G04*
G04 #@! TF.GenerationSoftware,Altium Limited,Altium Designer,24.0.1 (36)*
G04*
G04 Layer_Color=255*
%FSLAX44Y44*%
%MOMM*%
G71*
G04*
G04 #@! TF.SameCoordinates,72622C8A-B07E-4F55-B3FE-632304D3AF33*
G04*
G04*
G04 #@! TF.FilePolarity,Positive*
G04*
G01*
G75*
%ADD25R,2.2000X1.7500*%
%ADD26R,1.5000X2.3000*%
%ADD27R,0.7000X3.6000*%
%ADD28R,1.0160X0.7620*%
%ADD29R,1.0160X0.8000*%
%ADD30R,0.8000X1.0160*%
%ADD31R,0.4500X1.0000*%
%ADD32R,0.7500X1.0000*%
%ADD33R,0.8000X0.8000*%
%ADD34R,2.0000X1.5000*%
%ADD35R,0.6000X1.5000*%
%ADD36R,1.2000X3.0000*%
%ADD37R,0.7620X1.0160*%
%ADD38R,1.3000X1.1000*%
%ADD39R,2.5000X2.1000*%
%ADD40R,1.3000X0.8000*%
%ADD41R,1.2700X1.2700*%
%ADD42R,1.0160X1.3970*%
%ADD43R,2.2000X2.2000*%
%ADD44R,1.4000X1.2000*%
%ADD45R,1.6000X1.5240*%
%ADD46R,1.8000X0.5500*%
%ADD47O,1.8000X0.5500*%
%ADD48O,2.1000X0.6000*%
%ADD49R,2.1000X0.6000*%
%ADD50R,3.0000X3.5000*%
%ADD51R,1.7500X2.2000*%
%ADD52O,0.3000X1.8000*%
%ADD53O,1.8000X0.3000*%
%ADD84C,4.5000*%
%ADD91C,3.5000*%
%ADD93R,2.5000X3.4000*%
%ADD95O,2.0000X3.0000*%
%ADD96R,1.7000X1.7000*%
%ADD97C,1.7000*%
%ADD98R,1.7000X1.7000*%
%ADD99C,3.2000*%
%ADD100C,1.8000*%
D25*
X130810Y97790D02*
D03*
X176810D02*
D03*
D26*
X642798Y84379D02*
D03*
X571380Y84291D02*
D03*
Y20791D02*
D03*
X642798Y20879D02*
D03*
X285392Y377282D02*
D03*
X356810Y377370D02*
D03*
X424180Y21590D02*
D03*
X352762Y21502D02*
D03*
X514528Y22149D02*
D03*
X443110Y22061D02*
D03*
Y85561D02*
D03*
X514528Y85649D02*
D03*
D27*
X621881Y104791D02*
D03*
X606880D02*
D03*
X591880D02*
D03*
Y41291D02*
D03*
X606880D02*
D03*
X621881D02*
D03*
X306309Y356870D02*
D03*
X321310D02*
D03*
X336310D02*
D03*
X403264Y42002D02*
D03*
X388262D02*
D03*
X373262D02*
D03*
X493611Y42561D02*
D03*
X478610D02*
D03*
X463610D02*
D03*
Y106061D02*
D03*
X478610D02*
D03*
X493611D02*
D03*
D28*
X280670Y284480D02*
D03*
X262128D02*
D03*
X174879D02*
D03*
X193421D02*
D03*
X85979Y287020D02*
D03*
X104521D02*
D03*
X593090Y147320D02*
D03*
X611632D02*
D03*
X611251Y160020D02*
D03*
X592709D02*
D03*
X443611Y170180D02*
D03*
X425069D02*
D03*
X424688Y184150D02*
D03*
X443230D02*
D03*
X244221Y124460D02*
D03*
X225679D02*
D03*
X619379Y255270D02*
D03*
X637921D02*
D03*
X444500Y243840D02*
D03*
X425958D02*
D03*
D29*
X174879Y256032D02*
D03*
X193421D02*
D03*
X174879Y241808D02*
D03*
X193421D02*
D03*
Y270256D02*
D03*
X174879D02*
D03*
Y213360D02*
D03*
X193421D02*
D03*
X174879Y227584D02*
D03*
X193421D02*
D03*
X121158Y287020D02*
D03*
X139700D02*
D03*
X231521Y370840D02*
D03*
X212979D02*
D03*
X231521Y386080D02*
D03*
X212979D02*
D03*
X424688Y201930D02*
D03*
X443230D02*
D03*
X244221Y146050D02*
D03*
X225679D02*
D03*
Y160020D02*
D03*
X244221D02*
D03*
X637921Y233680D02*
D03*
X619379D02*
D03*
D30*
X153670Y210439D02*
D03*
Y228981D02*
D03*
X139700D02*
D03*
Y210439D02*
D03*
X86360Y228981D02*
D03*
Y210439D02*
D03*
X72390Y228981D02*
D03*
Y210439D02*
D03*
X139700Y269240D02*
D03*
Y250698D02*
D03*
X511810Y304419D02*
D03*
Y322961D02*
D03*
D31*
X104140Y208280D02*
D03*
X123140D02*
D03*
X113640Y230960D02*
D03*
X122530Y270510D02*
D03*
X103530D02*
D03*
X113030Y247830D02*
D03*
D32*
X85090Y272076D02*
D03*
Y248625D02*
D03*
D33*
X195955Y370875D02*
D03*
X179965Y370805D02*
D03*
X195955Y385718D02*
D03*
X179965Y385648D02*
D03*
D34*
X406400Y370840D02*
D03*
X485728Y371040D02*
D03*
D35*
X594660Y349650D02*
D03*
X607160D02*
D03*
X619660D02*
D03*
X632160D02*
D03*
D36*
X576410Y377650D02*
D03*
X650410D02*
D03*
D37*
X632460Y324231D02*
D03*
Y305689D02*
D03*
X605790Y324231D02*
D03*
Y305689D02*
D03*
X593090Y323850D02*
D03*
Y305308D02*
D03*
X537210Y304419D02*
D03*
Y322961D02*
D03*
X524510D02*
D03*
Y304419D02*
D03*
X499110Y322961D02*
D03*
Y304419D02*
D03*
D38*
X576580Y304800D02*
D03*
X553580Y323800D02*
D03*
X576580Y323800D02*
D03*
X553580Y304800D02*
D03*
D39*
X728980Y152724D02*
D03*
Y60360D02*
D03*
D40*
X702564Y87792D02*
D03*
Y100292D02*
D03*
Y112792D02*
D03*
Y125292D02*
D03*
D41*
X444500Y153670D02*
D03*
Y130810D02*
D03*
X377190Y153670D02*
D03*
Y130810D02*
D03*
X120650Y152400D02*
D03*
Y129540D02*
D03*
X102870Y152400D02*
D03*
Y129540D02*
D03*
D42*
X396000Y159460D02*
D03*
X411240D02*
D03*
X426480D02*
D03*
D43*
X411480Y124460D02*
D03*
D44*
X354330Y127780D02*
D03*
Y161780D02*
D03*
D45*
X334010Y127000D02*
D03*
Y161290D02*
D03*
X312420Y127000D02*
D03*
Y161290D02*
D03*
X290830D02*
D03*
Y127000D02*
D03*
X269240D02*
D03*
Y161290D02*
D03*
D46*
X224360Y266700D02*
D03*
D47*
Y254000D02*
D03*
Y241300D02*
D03*
Y228600D02*
D03*
X276860Y266700D02*
D03*
Y254000D02*
D03*
Y241300D02*
D03*
Y228600D02*
D03*
D48*
X145370Y160860D02*
D03*
Y135460D02*
D03*
Y122760D02*
D03*
X200370Y160860D02*
D03*
Y148160D02*
D03*
Y135460D02*
D03*
X145370Y148160D02*
D03*
D49*
X200370Y122760D02*
D03*
D50*
X208280Y72390D02*
D03*
X271780D02*
D03*
D51*
X73660Y158890D02*
D03*
Y112890D02*
D03*
D52*
X517170Y271654D02*
D03*
X572170D02*
D03*
Y160400D02*
D03*
X562170Y271654D02*
D03*
X567170D02*
D03*
X557170D02*
D03*
X552170D02*
D03*
X547170D02*
D03*
X542170D02*
D03*
X537170D02*
D03*
X532170D02*
D03*
X527170D02*
D03*
X522170D02*
D03*
X512170D02*
D03*
X507170D02*
D03*
X502170D02*
D03*
X497170D02*
D03*
Y160400D02*
D03*
X502170D02*
D03*
X507170D02*
D03*
X512170D02*
D03*
X517170D02*
D03*
X522170Y160400D02*
D03*
X527170D02*
D03*
X532170D02*
D03*
X537170Y160400D02*
D03*
X542170D02*
D03*
X547170D02*
D03*
X552170D02*
D03*
X557170D02*
D03*
X562170Y160400D02*
D03*
X567170D02*
D03*
D53*
X479170Y248400D02*
D03*
X590170D02*
D03*
X479170Y243400D02*
D03*
Y178400D02*
D03*
X590170Y253400D02*
D03*
X479170Y253400D02*
D03*
X479170Y238400D02*
D03*
Y233400D02*
D03*
X479170Y228400D02*
D03*
Y223400D02*
D03*
Y218400D02*
D03*
Y213400D02*
D03*
Y208400D02*
D03*
Y203400D02*
D03*
Y198400D02*
D03*
Y193400D02*
D03*
Y188400D02*
D03*
Y183400D02*
D03*
X590170Y178400D02*
D03*
X590170Y183400D02*
D03*
Y188400D02*
D03*
X590170Y193400D02*
D03*
Y198400D02*
D03*
Y203400D02*
D03*
Y208400D02*
D03*
Y213400D02*
D03*
X590170Y218400D02*
D03*
Y223400D02*
D03*
X590170Y228400D02*
D03*
Y233400D02*
D03*
Y238400D02*
D03*
Y243400D02*
D03*
D84*
X25000Y375000D02*
D03*
Y25000D02*
D03*
X725000Y375000D02*
D03*
Y25000D02*
D03*
D91*
X539530Y43140D02*
D03*
Y358140D02*
D03*
X684530Y43140D02*
D03*
Y358140D02*
D03*
D93*
X172870Y141810D02*
D03*
D95*
X72390Y43180D02*
D03*
X119390D02*
D03*
X166390D02*
D03*
D96*
X327660Y91440D02*
D03*
X299720Y15420D02*
D03*
D97*
X327660Y66040D02*
D03*
Y40640D02*
D03*
Y15240D02*
D03*
X299720Y40820D02*
D03*
Y66220D02*
D03*
Y91620D02*
D03*
X20320Y331470D02*
D03*
D98*
X45720D02*
D03*
D99*
X31750Y232810D02*
D03*
Y282810D02*
D03*
X722630Y198520D02*
D03*
Y248520D02*
D03*
X29210Y113030D02*
D03*
Y163030D02*
D03*
D100*
X139700Y345440D02*
D03*
X89700D02*
D03*
M02*
