G04*
G04 #@! TF.GenerationSoftware,Altium Limited,Altium Designer,24.0.1 (36)*
G04*
G04 Layer_Color=32896*
%FSLAX44Y44*%
%MOMM*%
G71*
G04*
G04 #@! TF.SameCoordinates,72622C8A-B07E-4F55-B3FE-632304D3AF33*
G04*
G04*
G04 #@! TF.FilePolarity,Positive*
G04*
G01*
G75*
%ADD13C,0.4000*%
%ADD14C,0.2032*%
%ADD18C,0.1524*%
G36*
X389978Y326826D02*
X389044Y326694D01*
X388956Y326817D01*
X388859Y326932D01*
X388753Y327029D01*
X388665Y327117D01*
X388577Y327178D01*
X388506Y327231D01*
X388462Y327258D01*
X388445Y327267D01*
X388295Y327346D01*
X388145Y327399D01*
X387995Y327443D01*
X387854Y327469D01*
X387740Y327487D01*
X387643Y327496D01*
X387563D01*
X387422Y327487D01*
X387290Y327478D01*
X387158Y327452D01*
X387043Y327416D01*
X386823Y327337D01*
X386735Y327293D01*
X386647Y327249D01*
X386567Y327196D01*
X386506Y327152D01*
X386444Y327108D01*
X386400Y327073D01*
X386365Y327037D01*
X386329Y327011D01*
X386321Y327002D01*
X386312Y326993D01*
X386224Y326896D01*
X386153Y326791D01*
X386083Y326685D01*
X386030Y326579D01*
X385942Y326350D01*
X385889Y326138D01*
X385871Y326033D01*
X385853Y325944D01*
X385845Y325856D01*
X385836Y325786D01*
X385827Y325724D01*
Y325680D01*
Y325654D01*
Y325645D01*
X385836Y325477D01*
X385845Y325327D01*
X385871Y325178D01*
X385906Y325037D01*
X385942Y324913D01*
X385986Y324790D01*
X386030Y324684D01*
X386074Y324587D01*
X386127Y324499D01*
X386171Y324420D01*
X386215Y324358D01*
X386250Y324296D01*
X386285Y324252D01*
X386312Y324226D01*
X386321Y324208D01*
X386329Y324199D01*
X386426Y324102D01*
X386523Y324023D01*
X386620Y323952D01*
X386726Y323891D01*
X386832Y323838D01*
X386929Y323794D01*
X387123Y323732D01*
X387290Y323688D01*
X387361Y323679D01*
X387422Y323671D01*
X387475Y323662D01*
X387546D01*
X387660Y323671D01*
X387766Y323679D01*
X387960Y323723D01*
X388136Y323785D01*
X388286Y323856D01*
X388409Y323917D01*
X388498Y323979D01*
X388533Y324005D01*
X388559Y324023D01*
X388568Y324041D01*
X388577D01*
X388647Y324120D01*
X388718Y324199D01*
X388833Y324376D01*
X388929Y324570D01*
X389000Y324755D01*
X389044Y324922D01*
X389071Y325001D01*
X389079Y325063D01*
X389088Y325116D01*
X389097Y325151D01*
X389106Y325178D01*
Y325186D01*
X390155Y325107D01*
X390128Y324922D01*
X390093Y324737D01*
X390049Y324570D01*
X389987Y324411D01*
X389925Y324270D01*
X389864Y324129D01*
X389793Y324005D01*
X389723Y323900D01*
X389652Y323794D01*
X389590Y323706D01*
X389529Y323635D01*
X389467Y323573D01*
X389423Y323521D01*
X389388Y323485D01*
X389370Y323468D01*
X389361Y323459D01*
X389220Y323353D01*
X389079Y323256D01*
X388929Y323177D01*
X388780Y323106D01*
X388630Y323045D01*
X388480Y322992D01*
X388330Y322948D01*
X388189Y322921D01*
X388057Y322895D01*
X387934Y322877D01*
X387828Y322860D01*
X387731Y322851D01*
X387651Y322842D01*
X387546D01*
X387299Y322851D01*
X387070Y322886D01*
X386849Y322930D01*
X386647Y323001D01*
X386453Y323071D01*
X386277Y323150D01*
X386118Y323247D01*
X385977Y323335D01*
X385845Y323424D01*
X385730Y323521D01*
X385633Y323600D01*
X385554Y323679D01*
X385492Y323741D01*
X385448Y323785D01*
X385422Y323820D01*
X385413Y323829D01*
X385298Y323979D01*
X385201Y324138D01*
X385113Y324305D01*
X385043Y324464D01*
X384981Y324622D01*
X384928Y324781D01*
X384884Y324940D01*
X384849Y325081D01*
X384822Y325222D01*
X384805Y325345D01*
X384787Y325451D01*
X384778Y325548D01*
X384769Y325627D01*
Y325680D01*
Y325724D01*
Y325733D01*
X384778Y325944D01*
X384805Y326147D01*
X384840Y326341D01*
X384884Y326517D01*
X384937Y326694D01*
X385007Y326843D01*
X385069Y326993D01*
X385140Y327126D01*
X385210Y327240D01*
X385272Y327337D01*
X385333Y327434D01*
X385395Y327505D01*
X385439Y327557D01*
X385474Y327601D01*
X385501Y327628D01*
X385510Y327637D01*
X385651Y327769D01*
X385801Y327883D01*
X385950Y327980D01*
X386100Y328069D01*
X386250Y328139D01*
X386400Y328201D01*
X386541Y328245D01*
X386682Y328289D01*
X386805Y328315D01*
X386929Y328342D01*
X387034Y328351D01*
X387123Y328368D01*
X387193D01*
X387255Y328377D01*
X387299D01*
X387449Y328368D01*
X387599Y328359D01*
X387740Y328333D01*
X387881Y328298D01*
X388136Y328218D01*
X388260Y328166D01*
X388365Y328121D01*
X388471Y328077D01*
X388559Y328024D01*
X388639Y327980D01*
X388709Y327945D01*
X388762Y327910D01*
X388797Y327892D01*
X388824Y327875D01*
X388833Y327866D01*
X388401Y330052D01*
X385148D01*
Y331004D01*
X389194D01*
X389978Y326826D01*
D02*
G37*
G36*
X381112Y322974D02*
X380001D01*
X376828Y331109D01*
X377921D01*
X380116Y325195D01*
X380204Y324949D01*
X380292Y324711D01*
X380371Y324481D01*
X380433Y324279D01*
X380459Y324190D01*
X380486Y324111D01*
X380504Y324041D01*
X380521Y323979D01*
X380539Y323935D01*
X380547Y323891D01*
X380556Y323873D01*
Y323864D01*
X380627Y324102D01*
X380697Y324340D01*
X380768Y324561D01*
X380830Y324763D01*
X380865Y324860D01*
X380891Y324940D01*
X380918Y325010D01*
X380935Y325072D01*
X380953Y325125D01*
X380971Y325160D01*
X380979Y325186D01*
Y325195D01*
X383095Y331109D01*
X384267D01*
X381112Y322974D01*
D02*
G37*
G36*
X432724Y328063D02*
X435871Y323850D01*
X434575D01*
X432512Y326670D01*
X432459Y326741D01*
X432407Y326829D01*
X432274Y327014D01*
X432213Y327102D01*
X432169Y327173D01*
X432133Y327226D01*
X432125Y327234D01*
Y327243D01*
X432001Y327058D01*
X431948Y326979D01*
X431895Y326908D01*
X431851Y326838D01*
X431816Y326794D01*
X431799Y326759D01*
X431790Y326750D01*
X429727Y323850D01*
X428414D01*
X431464Y328116D01*
X428634Y331985D01*
X429807D01*
X431428Y329817D01*
X431561Y329641D01*
X431693Y329473D01*
X431799Y329315D01*
X431895Y329174D01*
X431975Y329059D01*
X432028Y328980D01*
X432054Y328944D01*
X432072Y328918D01*
X432080Y328909D01*
Y328900D01*
X432160Y329041D01*
X432266Y329209D01*
X432371Y329367D01*
X432477Y329535D01*
X432574Y329676D01*
X432618Y329738D01*
X432653Y329790D01*
X432689Y329835D01*
X432715Y329870D01*
X432724Y329888D01*
X432733Y329896D01*
X434222Y331985D01*
X435500D01*
X432724Y328063D01*
D02*
G37*
G36*
X443230Y323850D02*
X442155D01*
Y327464D01*
X440771D01*
X440648Y327455D01*
X440542Y327446D01*
X440454D01*
X440392Y327437D01*
X440348Y327428D01*
X440321Y327420D01*
X440313D01*
X440216Y327393D01*
X440127Y327358D01*
X440048Y327323D01*
X439969Y327287D01*
X439907Y327252D01*
X439863Y327226D01*
X439828Y327208D01*
X439819Y327199D01*
X439731Y327137D01*
X439634Y327049D01*
X439537Y326961D01*
X439458Y326873D01*
X439378Y326794D01*
X439325Y326723D01*
X439290Y326679D01*
X439273Y326670D01*
Y326662D01*
X439149Y326503D01*
X439017Y326327D01*
X438894Y326142D01*
X438770Y325956D01*
X438665Y325798D01*
X438612Y325727D01*
X438576Y325666D01*
X438541Y325613D01*
X438515Y325578D01*
X438506Y325551D01*
X438497Y325542D01*
X437422Y323850D01*
X436073D01*
X437483Y326062D01*
X437642Y326291D01*
X437801Y326503D01*
X437951Y326688D01*
X438083Y326847D01*
X438197Y326970D01*
X438250Y327023D01*
X438294Y327067D01*
X438330Y327102D01*
X438356Y327129D01*
X438365Y327137D01*
X438374Y327146D01*
X438462Y327217D01*
X438568Y327296D01*
X438673Y327358D01*
X438779Y327420D01*
X438876Y327472D01*
X438955Y327517D01*
X439008Y327543D01*
X439017Y327552D01*
X439026D01*
X438814Y327587D01*
X438612Y327631D01*
X438427Y327684D01*
X438259Y327737D01*
X438100Y327799D01*
X437959Y327860D01*
X437836Y327922D01*
X437721Y327984D01*
X437616Y328045D01*
X437528Y328107D01*
X437457Y328160D01*
X437395Y328204D01*
X437351Y328248D01*
X437316Y328274D01*
X437298Y328292D01*
X437290Y328301D01*
X437192Y328415D01*
X437104Y328530D01*
X437025Y328653D01*
X436963Y328777D01*
X436911Y328900D01*
X436866Y329024D01*
X436796Y329253D01*
X436769Y329359D01*
X436752Y329456D01*
X436743Y329544D01*
X436734Y329623D01*
X436725Y329676D01*
Y329729D01*
Y329755D01*
Y329764D01*
X436743Y330011D01*
X436778Y330240D01*
X436831Y330443D01*
X436893Y330628D01*
X436928Y330707D01*
X436963Y330778D01*
X436990Y330839D01*
X437016Y330892D01*
X437034Y330936D01*
X437052Y330963D01*
X437069Y330980D01*
Y330989D01*
X437201Y331183D01*
X437351Y331342D01*
X437501Y331483D01*
X437651Y331589D01*
X437774Y331668D01*
X437880Y331721D01*
X437924Y331738D01*
X437951Y331756D01*
X437968Y331765D01*
X437977D01*
X438092Y331800D01*
X438206Y331835D01*
X438470Y331888D01*
X438744Y331932D01*
X439008Y331959D01*
X439140Y331968D01*
X439255Y331976D01*
X439352D01*
X439449Y331985D01*
X443230D01*
Y323850D01*
D02*
G37*
G36*
X457497Y328063D02*
X460644Y323850D01*
X459348D01*
X457286Y326670D01*
X457233Y326741D01*
X457180Y326829D01*
X457048Y327014D01*
X456986Y327102D01*
X456942Y327173D01*
X456907Y327226D01*
X456898Y327234D01*
Y327243D01*
X456775Y327058D01*
X456722Y326979D01*
X456669Y326908D01*
X456625Y326838D01*
X456590Y326794D01*
X456572Y326759D01*
X456563Y326750D01*
X454501Y323850D01*
X453187D01*
X456237Y328116D01*
X453408Y331985D01*
X454580D01*
X456202Y329817D01*
X456334Y329641D01*
X456466Y329473D01*
X456572Y329315D01*
X456669Y329174D01*
X456748Y329059D01*
X456801Y328980D01*
X456828Y328944D01*
X456845Y328918D01*
X456854Y328909D01*
Y328900D01*
X456933Y329041D01*
X457039Y329209D01*
X457145Y329367D01*
X457251Y329535D01*
X457347Y329676D01*
X457392Y329738D01*
X457427Y329790D01*
X457462Y329835D01*
X457489Y329870D01*
X457497Y329888D01*
X457506Y329896D01*
X458996Y331985D01*
X460274D01*
X457497Y328063D01*
D02*
G37*
G36*
X467360Y331024D02*
X464681D01*
Y323850D01*
X463605D01*
Y331024D01*
X460926D01*
Y331985D01*
X467360D01*
Y331024D01*
D02*
G37*
G36*
X412544Y323982D02*
X411513D01*
Y330363D01*
X407247Y323982D01*
X406137D01*
Y332117D01*
X407168D01*
Y325727D01*
X411442Y332117D01*
X412544D01*
Y323982D01*
D02*
G37*
G36*
X417797Y332250D02*
X418018Y332241D01*
X418229Y332214D01*
X418423Y332179D01*
X418617Y332144D01*
X418793Y332100D01*
X418961Y332056D01*
X419110Y332012D01*
X419243Y331959D01*
X419366Y331915D01*
X419472Y331871D01*
X419560Y331835D01*
X419631Y331800D01*
X419683Y331774D01*
X419719Y331765D01*
X419727Y331756D01*
X419895Y331659D01*
X420053Y331544D01*
X420203Y331430D01*
X420336Y331306D01*
X420468Y331174D01*
X420582Y331051D01*
X420688Y330928D01*
X420785Y330804D01*
X420864Y330681D01*
X420944Y330575D01*
X421005Y330478D01*
X421058Y330390D01*
X421093Y330319D01*
X421120Y330266D01*
X421138Y330231D01*
X421146Y330222D01*
X421235Y330028D01*
X421305Y329835D01*
X421376Y329641D01*
X421428Y329447D01*
X421517Y329077D01*
X421552Y328900D01*
X421578Y328733D01*
X421596Y328583D01*
X421614Y328442D01*
X421622Y328319D01*
X421631Y328213D01*
X421640Y328125D01*
Y328063D01*
Y328028D01*
Y328010D01*
X421631Y327790D01*
X421622Y327569D01*
X421596Y327367D01*
X421561Y327164D01*
X421525Y326979D01*
X421481Y326794D01*
X421437Y326626D01*
X421393Y326477D01*
X421349Y326335D01*
X421305Y326212D01*
X421261Y326106D01*
X421226Y326009D01*
X421190Y325939D01*
X421164Y325886D01*
X421155Y325851D01*
X421146Y325842D01*
X421049Y325666D01*
X420935Y325498D01*
X420820Y325348D01*
X420706Y325199D01*
X420582Y325066D01*
X420459Y324952D01*
X420336Y324837D01*
X420221Y324740D01*
X420106Y324652D01*
X420001Y324573D01*
X419904Y324511D01*
X419824Y324458D01*
X419763Y324414D01*
X419710Y324388D01*
X419674Y324370D01*
X419666Y324361D01*
X419481Y324273D01*
X419287Y324194D01*
X419102Y324123D01*
X418917Y324070D01*
X418723Y324017D01*
X418546Y323973D01*
X418370Y323938D01*
X418211Y323912D01*
X418062Y323894D01*
X417921Y323876D01*
X417797Y323868D01*
X417691Y323859D01*
X417603Y323850D01*
X417489D01*
X417163Y323868D01*
X416845Y323903D01*
X416554Y323947D01*
X416422Y323982D01*
X416290Y324009D01*
X416175Y324035D01*
X416078Y324070D01*
X415981Y324097D01*
X415911Y324114D01*
X415840Y324141D01*
X415797Y324150D01*
X415770Y324167D01*
X415761D01*
X415444Y324300D01*
X415144Y324449D01*
X414871Y324608D01*
X414739Y324687D01*
X414624Y324758D01*
X414518Y324828D01*
X414422Y324899D01*
X414333Y324952D01*
X414263Y325005D01*
X414201Y325049D01*
X414157Y325084D01*
X414131Y325102D01*
X414122Y325110D01*
Y328134D01*
X417568D01*
Y327173D01*
X415179D01*
Y325648D01*
X415321Y325533D01*
X415479Y325437D01*
X415647Y325340D01*
X415814Y325251D01*
X415964Y325181D01*
X416026Y325146D01*
X416078Y325119D01*
X416131Y325102D01*
X416167Y325084D01*
X416184Y325075D01*
X416193D01*
X416440Y324987D01*
X416687Y324925D01*
X416916Y324872D01*
X417118Y324846D01*
X417215Y324837D01*
X417295Y324828D01*
X417365Y324819D01*
X417427D01*
X417480Y324811D01*
X417550D01*
X417850Y324828D01*
X418132Y324864D01*
X418388Y324925D01*
X418511Y324952D01*
X418617Y324987D01*
X418714Y325022D01*
X418802Y325049D01*
X418881Y325084D01*
X418952Y325110D01*
X419005Y325128D01*
X419040Y325146D01*
X419066Y325163D01*
X419075D01*
X419207Y325234D01*
X419331Y325313D01*
X419542Y325481D01*
X419727Y325666D01*
X419886Y325842D01*
X420001Y326001D01*
X420053Y326071D01*
X420089Y326124D01*
X420124Y326177D01*
X420142Y326212D01*
X420150Y326239D01*
X420159Y326247D01*
X420283Y326538D01*
X420371Y326847D01*
X420441Y327146D01*
X420485Y327437D01*
X420494Y327569D01*
X420512Y327693D01*
X420521Y327799D01*
Y327896D01*
X420530Y327966D01*
Y328028D01*
Y328063D01*
Y328072D01*
X420512Y328398D01*
X420477Y328706D01*
X420433Y328980D01*
X420406Y329112D01*
X420371Y329226D01*
X420344Y329332D01*
X420318Y329429D01*
X420291Y329509D01*
X420265Y329579D01*
X420247Y329641D01*
X420230Y329676D01*
X420221Y329702D01*
Y329711D01*
X420150Y329870D01*
X420071Y330020D01*
X419983Y330161D01*
X419904Y330275D01*
X419833Y330372D01*
X419771Y330452D01*
X419736Y330496D01*
X419719Y330513D01*
X419586Y330645D01*
X419436Y330760D01*
X419296Y330866D01*
X419155Y330954D01*
X419031Y331024D01*
X418934Y331068D01*
X418899Y331086D01*
X418872Y331104D01*
X418855Y331113D01*
X418846D01*
X418634Y331192D01*
X418423Y331245D01*
X418203Y331289D01*
X418009Y331315D01*
X417912Y331324D01*
X417832Y331333D01*
X417753D01*
X417691Y331342D01*
X417568D01*
X417348Y331333D01*
X417136Y331306D01*
X416951Y331271D01*
X416784Y331236D01*
X416651Y331192D01*
X416590Y331174D01*
X416546Y331157D01*
X416510Y331139D01*
X416484Y331130D01*
X416466Y331121D01*
X416457D01*
X416281Y331033D01*
X416123Y330945D01*
X415990Y330848D01*
X415876Y330760D01*
X415797Y330672D01*
X415735Y330610D01*
X415691Y330566D01*
X415682Y330549D01*
X415585Y330407D01*
X415497Y330249D01*
X415418Y330090D01*
X415347Y329931D01*
X415294Y329790D01*
X415276Y329729D01*
X415259Y329685D01*
X415241Y329641D01*
X415232Y329605D01*
X415224Y329588D01*
Y329579D01*
X414245Y329843D01*
X414333Y330134D01*
X414430Y330399D01*
X414483Y330513D01*
X414536Y330628D01*
X414580Y330725D01*
X414633Y330813D01*
X414677Y330901D01*
X414721Y330972D01*
X414765Y331033D01*
X414792Y331086D01*
X414827Y331121D01*
X414845Y331148D01*
X414853Y331166D01*
X414862Y331174D01*
X415030Y331359D01*
X415206Y331518D01*
X415391Y331650D01*
X415576Y331765D01*
X415735Y331853D01*
X415805Y331888D01*
X415867Y331915D01*
X415911Y331941D01*
X415946Y331959D01*
X415973Y331968D01*
X415981D01*
X416255Y332065D01*
X416528Y332135D01*
X416801Y332188D01*
X417048Y332223D01*
X417163Y332232D01*
X417259Y332241D01*
X417348Y332250D01*
X417427Y332258D01*
X417577D01*
X417797Y332250D01*
D02*
G37*
G36*
X404330Y323982D02*
X401395D01*
X401130Y323991D01*
X400883Y324000D01*
X400663Y324026D01*
X400469Y324053D01*
X400390Y324062D01*
X400319Y324070D01*
X400249Y324088D01*
X400196Y324097D01*
X400152Y324106D01*
X400126D01*
X400108Y324114D01*
X400099D01*
X399896Y324176D01*
X399702Y324238D01*
X399535Y324308D01*
X399394Y324370D01*
X399279Y324432D01*
X399191Y324476D01*
X399138Y324511D01*
X399130Y324520D01*
X399121D01*
X398971Y324634D01*
X398830Y324749D01*
X398707Y324872D01*
X398601Y324996D01*
X398504Y325102D01*
X398442Y325181D01*
X398416Y325216D01*
X398398Y325243D01*
X398380Y325251D01*
Y325260D01*
X398257Y325445D01*
X398151Y325639D01*
X398054Y325842D01*
X397975Y326027D01*
X397913Y326194D01*
X397887Y326265D01*
X397860Y326327D01*
X397852Y326371D01*
X397834Y326406D01*
X397825Y326432D01*
Y326441D01*
X397755Y326723D01*
X397702Y327005D01*
X397658Y327279D01*
X397631Y327534D01*
X397622Y327649D01*
X397614Y327755D01*
Y327851D01*
X397605Y327931D01*
Y328001D01*
Y328045D01*
Y328081D01*
Y328089D01*
X397622Y328486D01*
X397631Y328671D01*
X397658Y328847D01*
X397684Y329015D01*
X397710Y329174D01*
X397737Y329323D01*
X397763Y329464D01*
X397799Y329588D01*
X397825Y329693D01*
X397852Y329790D01*
X397878Y329870D01*
X397904Y329931D01*
X397913Y329984D01*
X397931Y330011D01*
Y330020D01*
X398063Y330319D01*
X398213Y330593D01*
X398292Y330716D01*
X398372Y330830D01*
X398451Y330936D01*
X398530Y331033D01*
X398601Y331121D01*
X398671Y331192D01*
X398733Y331262D01*
X398786Y331315D01*
X398830Y331359D01*
X398865Y331386D01*
X398883Y331403D01*
X398892Y331412D01*
X399086Y331562D01*
X399288Y331685D01*
X399482Y331782D01*
X399667Y331862D01*
X399835Y331923D01*
X399905Y331941D01*
X399967Y331959D01*
X400011Y331976D01*
X400046Y331985D01*
X400073Y331994D01*
X400081D01*
X400178Y332012D01*
X400284Y332038D01*
X400522Y332065D01*
X400760Y332091D01*
X400998Y332100D01*
X401104Y332108D01*
X401210D01*
X401298Y332117D01*
X404330D01*
Y323982D01*
D02*
G37*
G36*
X230934Y282072D02*
X229903D01*
Y288453D01*
X225637Y282072D01*
X224527D01*
Y290207D01*
X225558D01*
Y283817D01*
X229832Y290207D01*
X230934D01*
Y282072D01*
D02*
G37*
G36*
X236187Y290340D02*
X236408Y290331D01*
X236619Y290304D01*
X236813Y290269D01*
X237007Y290234D01*
X237183Y290190D01*
X237351Y290146D01*
X237500Y290102D01*
X237633Y290049D01*
X237756Y290005D01*
X237862Y289961D01*
X237950Y289925D01*
X238020Y289890D01*
X238073Y289864D01*
X238109Y289855D01*
X238117Y289846D01*
X238285Y289749D01*
X238444Y289634D01*
X238593Y289520D01*
X238726Y289396D01*
X238858Y289264D01*
X238972Y289141D01*
X239078Y289018D01*
X239175Y288894D01*
X239254Y288771D01*
X239334Y288665D01*
X239395Y288568D01*
X239448Y288480D01*
X239484Y288409D01*
X239510Y288356D01*
X239528Y288321D01*
X239536Y288312D01*
X239625Y288118D01*
X239695Y287925D01*
X239766Y287731D01*
X239818Y287537D01*
X239907Y287167D01*
X239942Y286990D01*
X239968Y286823D01*
X239986Y286673D01*
X240004Y286532D01*
X240012Y286409D01*
X240021Y286303D01*
X240030Y286215D01*
Y286153D01*
Y286118D01*
Y286100D01*
X240021Y285880D01*
X240012Y285659D01*
X239986Y285457D01*
X239951Y285254D01*
X239915Y285069D01*
X239871Y284884D01*
X239827Y284716D01*
X239783Y284566D01*
X239739Y284426D01*
X239695Y284302D01*
X239651Y284196D01*
X239616Y284099D01*
X239580Y284029D01*
X239554Y283976D01*
X239545Y283941D01*
X239536Y283932D01*
X239440Y283756D01*
X239325Y283588D01*
X239210Y283438D01*
X239096Y283288D01*
X238972Y283156D01*
X238849Y283042D01*
X238726Y282927D01*
X238611Y282830D01*
X238496Y282742D01*
X238391Y282663D01*
X238294Y282601D01*
X238214Y282548D01*
X238153Y282504D01*
X238100Y282478D01*
X238064Y282460D01*
X238056Y282451D01*
X237871Y282363D01*
X237677Y282284D01*
X237492Y282213D01*
X237306Y282160D01*
X237113Y282108D01*
X236936Y282063D01*
X236760Y282028D01*
X236601Y282002D01*
X236452Y281984D01*
X236311Y281966D01*
X236187Y281958D01*
X236081Y281949D01*
X235993Y281940D01*
X235879D01*
X235553Y281958D01*
X235235Y281993D01*
X234944Y282037D01*
X234812Y282072D01*
X234680Y282099D01*
X234565Y282125D01*
X234468Y282160D01*
X234371Y282187D01*
X234301Y282204D01*
X234230Y282231D01*
X234186Y282240D01*
X234160Y282257D01*
X234151D01*
X233834Y282390D01*
X233534Y282539D01*
X233261Y282698D01*
X233129Y282777D01*
X233014Y282848D01*
X232908Y282918D01*
X232812Y282989D01*
X232723Y283042D01*
X232653Y283095D01*
X232591Y283139D01*
X232547Y283174D01*
X232521Y283192D01*
X232512Y283200D01*
Y286224D01*
X235958D01*
Y285263D01*
X233570D01*
Y283738D01*
X233710Y283623D01*
X233869Y283526D01*
X234037Y283430D01*
X234204Y283341D01*
X234354Y283271D01*
X234416Y283236D01*
X234468Y283209D01*
X234521Y283192D01*
X234557Y283174D01*
X234574Y283165D01*
X234583D01*
X234830Y283077D01*
X235077Y283015D01*
X235306Y282962D01*
X235508Y282936D01*
X235606Y282927D01*
X235685Y282918D01*
X235755Y282910D01*
X235817D01*
X235870Y282901D01*
X235940D01*
X236240Y282918D01*
X236522Y282954D01*
X236778Y283015D01*
X236901Y283042D01*
X237007Y283077D01*
X237104Y283112D01*
X237192Y283139D01*
X237271Y283174D01*
X237342Y283200D01*
X237395Y283218D01*
X237430Y283236D01*
X237456Y283253D01*
X237465D01*
X237597Y283324D01*
X237721Y283403D01*
X237932Y283571D01*
X238117Y283756D01*
X238276Y283932D01*
X238391Y284091D01*
X238444Y284161D01*
X238479Y284214D01*
X238514Y284267D01*
X238532Y284302D01*
X238540Y284328D01*
X238549Y284337D01*
X238673Y284628D01*
X238761Y284937D01*
X238831Y285236D01*
X238875Y285527D01*
X238884Y285659D01*
X238902Y285783D01*
X238911Y285889D01*
Y285986D01*
X238920Y286056D01*
Y286118D01*
Y286153D01*
Y286162D01*
X238902Y286488D01*
X238867Y286796D01*
X238822Y287070D01*
X238796Y287202D01*
X238761Y287316D01*
X238734Y287422D01*
X238708Y287519D01*
X238682Y287598D01*
X238655Y287669D01*
X238637Y287731D01*
X238620Y287766D01*
X238611Y287792D01*
Y287801D01*
X238540Y287960D01*
X238461Y288110D01*
X238373Y288251D01*
X238294Y288365D01*
X238223Y288462D01*
X238162Y288542D01*
X238126Y288586D01*
X238109Y288603D01*
X237976Y288735D01*
X237826Y288850D01*
X237686Y288956D01*
X237544Y289044D01*
X237421Y289114D01*
X237324Y289158D01*
X237289Y289176D01*
X237262Y289194D01*
X237245Y289203D01*
X237236D01*
X237024Y289282D01*
X236813Y289335D01*
X236593Y289379D01*
X236399Y289405D01*
X236302Y289414D01*
X236222Y289423D01*
X236143D01*
X236081Y289432D01*
X235958D01*
X235738Y289423D01*
X235526Y289396D01*
X235341Y289361D01*
X235174Y289326D01*
X235041Y289282D01*
X234980Y289264D01*
X234936Y289247D01*
X234900Y289229D01*
X234874Y289220D01*
X234856Y289211D01*
X234848D01*
X234671Y289123D01*
X234513Y289035D01*
X234380Y288938D01*
X234266Y288850D01*
X234186Y288762D01*
X234125Y288700D01*
X234081Y288656D01*
X234072Y288638D01*
X233975Y288498D01*
X233887Y288339D01*
X233808Y288180D01*
X233737Y288022D01*
X233684Y287880D01*
X233666Y287819D01*
X233649Y287775D01*
X233631Y287731D01*
X233622Y287695D01*
X233614Y287678D01*
Y287669D01*
X232635Y287933D01*
X232723Y288224D01*
X232820Y288489D01*
X232873Y288603D01*
X232926Y288718D01*
X232970Y288815D01*
X233023Y288903D01*
X233067Y288991D01*
X233111Y289062D01*
X233155Y289123D01*
X233182Y289176D01*
X233217Y289211D01*
X233235Y289238D01*
X233243Y289256D01*
X233252Y289264D01*
X233420Y289449D01*
X233596Y289608D01*
X233781Y289740D01*
X233966Y289855D01*
X234125Y289943D01*
X234195Y289978D01*
X234257Y290005D01*
X234301Y290031D01*
X234336Y290049D01*
X234363Y290058D01*
X234371D01*
X234645Y290154D01*
X234918Y290225D01*
X235191Y290278D01*
X235438Y290313D01*
X235553Y290322D01*
X235650Y290331D01*
X235738Y290340D01*
X235817Y290348D01*
X235967D01*
X236187Y290340D01*
D02*
G37*
G36*
X222720Y282072D02*
X219785D01*
X219520Y282081D01*
X219273Y282090D01*
X219053Y282116D01*
X218859Y282143D01*
X218780Y282152D01*
X218709Y282160D01*
X218639Y282178D01*
X218586Y282187D01*
X218542Y282196D01*
X218515D01*
X218498Y282204D01*
X218489D01*
X218286Y282266D01*
X218092Y282328D01*
X217925Y282398D01*
X217784Y282460D01*
X217669Y282522D01*
X217581Y282566D01*
X217528Y282601D01*
X217520Y282610D01*
X217511D01*
X217361Y282724D01*
X217220Y282839D01*
X217097Y282962D01*
X216991Y283086D01*
X216894Y283192D01*
X216832Y283271D01*
X216806Y283306D01*
X216788Y283333D01*
X216770Y283341D01*
Y283350D01*
X216647Y283535D01*
X216541Y283729D01*
X216444Y283932D01*
X216365Y284117D01*
X216303Y284284D01*
X216277Y284355D01*
X216250Y284417D01*
X216242Y284461D01*
X216224Y284496D01*
X216215Y284522D01*
Y284531D01*
X216145Y284813D01*
X216092Y285095D01*
X216048Y285369D01*
X216021Y285624D01*
X216012Y285739D01*
X216004Y285844D01*
Y285942D01*
X215995Y286021D01*
Y286091D01*
Y286135D01*
Y286171D01*
Y286179D01*
X216012Y286576D01*
X216021Y286761D01*
X216048Y286937D01*
X216074Y287105D01*
X216101Y287264D01*
X216127Y287413D01*
X216153Y287554D01*
X216189Y287678D01*
X216215Y287784D01*
X216242Y287880D01*
X216268Y287960D01*
X216294Y288022D01*
X216303Y288074D01*
X216321Y288101D01*
Y288110D01*
X216453Y288409D01*
X216603Y288683D01*
X216682Y288806D01*
X216762Y288920D01*
X216841Y289026D01*
X216920Y289123D01*
X216991Y289211D01*
X217061Y289282D01*
X217123Y289352D01*
X217176Y289405D01*
X217220Y289449D01*
X217255Y289476D01*
X217273Y289493D01*
X217282Y289502D01*
X217475Y289652D01*
X217678Y289776D01*
X217872Y289872D01*
X218057Y289952D01*
X218225Y290013D01*
X218295Y290031D01*
X218357Y290049D01*
X218401Y290066D01*
X218436Y290075D01*
X218463Y290084D01*
X218471D01*
X218568Y290102D01*
X218674Y290128D01*
X218912Y290154D01*
X219150Y290181D01*
X219388Y290190D01*
X219494Y290198D01*
X219600D01*
X219688Y290207D01*
X222720D01*
Y282072D01*
D02*
G37*
G36*
X199687Y286153D02*
X202834Y281940D01*
X201538D01*
X199476Y284760D01*
X199423Y284831D01*
X199370Y284919D01*
X199238Y285104D01*
X199176Y285192D01*
X199132Y285263D01*
X199097Y285316D01*
X199088Y285324D01*
Y285333D01*
X198965Y285148D01*
X198912Y285069D01*
X198859Y284998D01*
X198815Y284928D01*
X198780Y284884D01*
X198762Y284849D01*
X198753Y284840D01*
X196691Y281940D01*
X195377D01*
X198427Y286206D01*
X195598Y290075D01*
X196770D01*
X198392Y287907D01*
X198524Y287731D01*
X198656Y287563D01*
X198762Y287405D01*
X198859Y287264D01*
X198938Y287149D01*
X198991Y287070D01*
X199018Y287034D01*
X199035Y287008D01*
X199044Y286999D01*
Y286990D01*
X199123Y287131D01*
X199229Y287299D01*
X199335Y287457D01*
X199441Y287625D01*
X199538Y287766D01*
X199582Y287828D01*
X199617Y287880D01*
X199652Y287925D01*
X199678Y287960D01*
X199687Y287978D01*
X199696Y287986D01*
X201186Y290075D01*
X202464D01*
X199687Y286153D01*
D02*
G37*
G36*
X209550Y289114D02*
X206871D01*
Y281940D01*
X205795D01*
Y289114D01*
X203116D01*
Y290075D01*
X209550D01*
Y289114D01*
D02*
G37*
G36*
X173644Y286153D02*
X176791Y281940D01*
X175495D01*
X173432Y284760D01*
X173379Y284831D01*
X173327Y284919D01*
X173194Y285104D01*
X173133Y285192D01*
X173089Y285263D01*
X173053Y285316D01*
X173045Y285324D01*
Y285333D01*
X172921Y285148D01*
X172868Y285069D01*
X172815Y284998D01*
X172771Y284928D01*
X172736Y284884D01*
X172719Y284849D01*
X172710Y284840D01*
X170647Y281940D01*
X169334D01*
X172384Y286206D01*
X169554Y290075D01*
X170727D01*
X172348Y287907D01*
X172481Y287731D01*
X172613Y287563D01*
X172719Y287405D01*
X172815Y287264D01*
X172895Y287149D01*
X172948Y287070D01*
X172974Y287034D01*
X172992Y287008D01*
X173001Y286999D01*
Y286990D01*
X173080Y287131D01*
X173186Y287299D01*
X173291Y287457D01*
X173397Y287625D01*
X173494Y287766D01*
X173538Y287828D01*
X173573Y287880D01*
X173609Y287925D01*
X173635Y287960D01*
X173644Y287978D01*
X173653Y287986D01*
X175142Y290075D01*
X176420D01*
X173644Y286153D01*
D02*
G37*
G36*
X184150Y281940D02*
X183075D01*
Y285554D01*
X181691D01*
X181568Y285545D01*
X181462Y285536D01*
X181374D01*
X181312Y285527D01*
X181268Y285518D01*
X181241Y285510D01*
X181233D01*
X181136Y285483D01*
X181047Y285448D01*
X180968Y285413D01*
X180889Y285377D01*
X180827Y285342D01*
X180783Y285316D01*
X180748Y285298D01*
X180739Y285289D01*
X180651Y285228D01*
X180554Y285139D01*
X180457Y285051D01*
X180378Y284963D01*
X180298Y284884D01*
X180245Y284813D01*
X180210Y284769D01*
X180193Y284760D01*
Y284752D01*
X180069Y284593D01*
X179937Y284417D01*
X179814Y284232D01*
X179690Y284046D01*
X179585Y283888D01*
X179532Y283817D01*
X179496Y283756D01*
X179461Y283703D01*
X179435Y283668D01*
X179426Y283641D01*
X179417Y283632D01*
X178342Y281940D01*
X176993D01*
X178403Y284152D01*
X178562Y284381D01*
X178721Y284593D01*
X178871Y284778D01*
X179003Y284937D01*
X179117Y285060D01*
X179170Y285113D01*
X179214Y285157D01*
X179249Y285192D01*
X179276Y285219D01*
X179285Y285228D01*
X179294Y285236D01*
X179382Y285307D01*
X179487Y285386D01*
X179593Y285448D01*
X179699Y285510D01*
X179796Y285562D01*
X179875Y285606D01*
X179928Y285633D01*
X179937Y285642D01*
X179946D01*
X179734Y285677D01*
X179532Y285721D01*
X179347Y285774D01*
X179179Y285827D01*
X179020Y285889D01*
X178879Y285950D01*
X178756Y286012D01*
X178641Y286074D01*
X178536Y286135D01*
X178447Y286197D01*
X178377Y286250D01*
X178315Y286294D01*
X178271Y286338D01*
X178236Y286364D01*
X178218Y286382D01*
X178209Y286391D01*
X178113Y286506D01*
X178024Y286620D01*
X177945Y286744D01*
X177883Y286867D01*
X177831Y286990D01*
X177786Y287114D01*
X177716Y287343D01*
X177689Y287449D01*
X177672Y287546D01*
X177663Y287634D01*
X177654Y287713D01*
X177645Y287766D01*
Y287819D01*
Y287845D01*
Y287854D01*
X177663Y288101D01*
X177698Y288330D01*
X177751Y288533D01*
X177813Y288718D01*
X177848Y288797D01*
X177883Y288868D01*
X177910Y288929D01*
X177936Y288982D01*
X177954Y289026D01*
X177971Y289053D01*
X177989Y289070D01*
Y289079D01*
X178121Y289273D01*
X178271Y289432D01*
X178421Y289573D01*
X178571Y289678D01*
X178694Y289758D01*
X178800Y289811D01*
X178844Y289828D01*
X178871Y289846D01*
X178888Y289855D01*
X178897D01*
X179012Y289890D01*
X179126Y289925D01*
X179391Y289978D01*
X179664Y290022D01*
X179928Y290049D01*
X180060Y290058D01*
X180175Y290066D01*
X180272D01*
X180369Y290075D01*
X184150D01*
Y281940D01*
D02*
G37*
G36*
X158574Y285924D02*
X157640Y285792D01*
X157551Y285915D01*
X157454Y286030D01*
X157349Y286127D01*
X157261Y286215D01*
X157172Y286276D01*
X157102Y286329D01*
X157058Y286356D01*
X157040Y286364D01*
X156890Y286444D01*
X156741Y286497D01*
X156591Y286541D01*
X156450Y286567D01*
X156335Y286585D01*
X156238Y286594D01*
X156159D01*
X156018Y286585D01*
X155885Y286576D01*
X155753Y286550D01*
X155639Y286514D01*
X155418Y286435D01*
X155330Y286391D01*
X155242Y286347D01*
X155163Y286294D01*
X155101Y286250D01*
X155039Y286206D01*
X154995Y286171D01*
X154960Y286135D01*
X154925Y286109D01*
X154916Y286100D01*
X154907Y286091D01*
X154819Y285994D01*
X154748Y285889D01*
X154678Y285783D01*
X154625Y285677D01*
X154537Y285448D01*
X154484Y285236D01*
X154466Y285131D01*
X154449Y285042D01*
X154440Y284954D01*
X154431Y284884D01*
X154422Y284822D01*
Y284778D01*
Y284752D01*
Y284743D01*
X154431Y284575D01*
X154440Y284426D01*
X154466Y284276D01*
X154502Y284135D01*
X154537Y284011D01*
X154581Y283888D01*
X154625Y283782D01*
X154669Y283685D01*
X154722Y283597D01*
X154766Y283518D01*
X154810Y283456D01*
X154846Y283394D01*
X154881Y283350D01*
X154907Y283324D01*
X154916Y283306D01*
X154925Y283297D01*
X155022Y283200D01*
X155119Y283121D01*
X155216Y283050D01*
X155321Y282989D01*
X155427Y282936D01*
X155524Y282892D01*
X155718Y282830D01*
X155885Y282786D01*
X155956Y282777D01*
X156018Y282768D01*
X156071Y282760D01*
X156141D01*
X156256Y282768D01*
X156362Y282777D01*
X156555Y282821D01*
X156732Y282883D01*
X156882Y282954D01*
X157005Y283015D01*
X157093Y283077D01*
X157128Y283103D01*
X157155Y283121D01*
X157163Y283139D01*
X157172D01*
X157243Y283218D01*
X157313Y283297D01*
X157428Y283474D01*
X157525Y283668D01*
X157595Y283853D01*
X157640Y284020D01*
X157666Y284099D01*
X157675Y284161D01*
X157683Y284214D01*
X157692Y284249D01*
X157701Y284276D01*
Y284284D01*
X158750Y284205D01*
X158724Y284020D01*
X158688Y283835D01*
X158644Y283668D01*
X158582Y283509D01*
X158521Y283368D01*
X158459Y283227D01*
X158389Y283103D01*
X158318Y282998D01*
X158248Y282892D01*
X158186Y282804D01*
X158124Y282733D01*
X158062Y282672D01*
X158019Y282619D01*
X157983Y282583D01*
X157966Y282566D01*
X157957Y282557D01*
X157816Y282451D01*
X157675Y282354D01*
X157525Y282275D01*
X157375Y282204D01*
X157225Y282143D01*
X157075Y282090D01*
X156925Y282046D01*
X156784Y282019D01*
X156652Y281993D01*
X156529Y281975D01*
X156423Y281958D01*
X156326Y281949D01*
X156247Y281940D01*
X156141D01*
X155894Y281949D01*
X155665Y281984D01*
X155445Y282028D01*
X155242Y282099D01*
X155048Y282169D01*
X154872Y282248D01*
X154713Y282345D01*
X154572Y282434D01*
X154440Y282522D01*
X154326Y282619D01*
X154228Y282698D01*
X154149Y282777D01*
X154087Y282839D01*
X154043Y282883D01*
X154017Y282918D01*
X154008Y282927D01*
X153894Y283077D01*
X153797Y283236D01*
X153708Y283403D01*
X153638Y283562D01*
X153576Y283720D01*
X153523Y283879D01*
X153479Y284038D01*
X153444Y284179D01*
X153418Y284320D01*
X153400Y284443D01*
X153382Y284549D01*
X153374Y284646D01*
X153365Y284725D01*
Y284778D01*
Y284822D01*
Y284831D01*
X153374Y285042D01*
X153400Y285245D01*
X153435Y285439D01*
X153479Y285615D01*
X153532Y285792D01*
X153603Y285942D01*
X153664Y286091D01*
X153735Y286224D01*
X153806Y286338D01*
X153867Y286435D01*
X153929Y286532D01*
X153990Y286602D01*
X154035Y286655D01*
X154070Y286700D01*
X154096Y286726D01*
X154105Y286735D01*
X154246Y286867D01*
X154396Y286982D01*
X154546Y287078D01*
X154696Y287167D01*
X154846Y287237D01*
X154995Y287299D01*
X155136Y287343D01*
X155277Y287387D01*
X155401Y287413D01*
X155524Y287440D01*
X155630Y287449D01*
X155718Y287466D01*
X155789D01*
X155850Y287475D01*
X155894D01*
X156044Y287466D01*
X156194Y287457D01*
X156335Y287431D01*
X156476Y287396D01*
X156732Y287316D01*
X156855Y287264D01*
X156961Y287220D01*
X157067Y287175D01*
X157155Y287122D01*
X157234Y287078D01*
X157304Y287043D01*
X157357Y287008D01*
X157393Y286990D01*
X157419Y286973D01*
X157428Y286964D01*
X156996Y289150D01*
X153744D01*
Y290102D01*
X157789D01*
X158574Y285924D01*
D02*
G37*
G36*
X149707Y282072D02*
X148596D01*
X145423Y290207D01*
X146516D01*
X148711Y284293D01*
X148799Y284046D01*
X148887Y283808D01*
X148967Y283579D01*
X149028Y283377D01*
X149055Y283288D01*
X149081Y283209D01*
X149099Y283139D01*
X149116Y283077D01*
X149134Y283033D01*
X149143Y282989D01*
X149152Y282971D01*
Y282962D01*
X149222Y283200D01*
X149293Y283438D01*
X149363Y283659D01*
X149425Y283861D01*
X149460Y283958D01*
X149487Y284038D01*
X149513Y284108D01*
X149531Y284170D01*
X149548Y284223D01*
X149566Y284258D01*
X149575Y284284D01*
Y284293D01*
X151690Y290207D01*
X152862D01*
X149707Y282072D01*
D02*
G37*
G36*
X698941Y327541D02*
X699205Y327499D01*
X699459Y327446D01*
X699692Y327372D01*
X699913Y327287D01*
X700114Y327192D01*
X700304Y327097D01*
X700473Y326992D01*
X700621Y326886D01*
X700748Y326791D01*
X700864Y326696D01*
X700949Y326611D01*
X701023Y326537D01*
X701076Y326484D01*
X701107Y326442D01*
X701118Y326432D01*
X701298Y326178D01*
X701467Y325893D01*
X701604Y325576D01*
X701720Y325248D01*
X701826Y324910D01*
X701910Y324572D01*
X701974Y324234D01*
X702037Y323895D01*
X702080Y323578D01*
X702111Y323283D01*
X702132Y323018D01*
X702143Y322786D01*
X702153Y322680D01*
Y322596D01*
X702164Y322511D01*
Y322448D01*
Y322395D01*
Y322353D01*
Y322332D01*
Y322321D01*
X702153Y321867D01*
X702122Y321444D01*
X702080Y321053D01*
X702016Y320694D01*
X701942Y320366D01*
X701868Y320070D01*
X701784Y319806D01*
X701689Y319574D01*
X701604Y319363D01*
X701520Y319183D01*
X701446Y319035D01*
X701372Y318919D01*
X701308Y318824D01*
X701266Y318760D01*
X701234Y318718D01*
X701224Y318707D01*
X701044Y318517D01*
X700843Y318348D01*
X700653Y318200D01*
X700442Y318073D01*
X700241Y317968D01*
X700040Y317873D01*
X699839Y317809D01*
X699649Y317746D01*
X699470Y317704D01*
X699311Y317672D01*
X699163Y317640D01*
X699036Y317630D01*
X698931Y317619D01*
X698846Y317609D01*
X698783D01*
X698466Y317630D01*
X698170Y317672D01*
X697895Y317735D01*
X697663Y317820D01*
X697568Y317852D01*
X697473Y317894D01*
X697399Y317925D01*
X697335Y317957D01*
X697282Y317978D01*
X697240Y317999D01*
X697219Y318021D01*
X697208D01*
X696965Y318190D01*
X696743Y318390D01*
X696553Y318591D01*
X696405Y318781D01*
X696279Y318961D01*
X696236Y319035D01*
X696194Y319098D01*
X696162Y319151D01*
X696141Y319193D01*
X696120Y319215D01*
Y319225D01*
X695983Y319532D01*
X695888Y319827D01*
X695814Y320113D01*
X695771Y320377D01*
X695750Y320493D01*
X695740Y320609D01*
X695729Y320704D01*
Y320778D01*
X695719Y320852D01*
Y320895D01*
Y320926D01*
Y320937D01*
X695729Y321190D01*
X695750Y321433D01*
X695793Y321666D01*
X695845Y321877D01*
X695919Y322078D01*
X695983Y322268D01*
X696067Y322437D01*
X696141Y322596D01*
X696215Y322733D01*
X696300Y322860D01*
X696363Y322966D01*
X696426Y323050D01*
X696490Y323124D01*
X696532Y323166D01*
X696553Y323198D01*
X696564Y323209D01*
X696722Y323367D01*
X696891Y323505D01*
X697060Y323621D01*
X697240Y323727D01*
X697409Y323811D01*
X697578Y323885D01*
X697747Y323938D01*
X697895Y323991D01*
X698043Y324022D01*
X698181Y324054D01*
X698297Y324065D01*
X698402Y324086D01*
X698487D01*
X698550Y324096D01*
X698603D01*
X698857Y324086D01*
X699100Y324043D01*
X699322Y323991D01*
X699522Y323938D01*
X699692Y323874D01*
X699755Y323843D01*
X699818Y323822D01*
X699861Y323800D01*
X699892Y323779D01*
X699913Y323769D01*
X699924D01*
X700146Y323631D01*
X700347Y323483D01*
X700526Y323325D01*
X700685Y323166D01*
X700801Y323018D01*
X700896Y322902D01*
X700928Y322860D01*
X700949Y322828D01*
X700970Y322808D01*
X700970Y322797D01*
Y322807D01*
X700970Y322808D01*
X700959Y323061D01*
X700949Y323314D01*
X700938Y323547D01*
X700917Y323758D01*
X700886Y323959D01*
X700854Y324149D01*
X700833Y324318D01*
X700801Y324466D01*
X700769Y324593D01*
X700738Y324709D01*
X700706Y324815D01*
X700685Y324889D01*
X700664Y324952D01*
X700642Y325005D01*
X700632Y325026D01*
Y325037D01*
X700495Y325311D01*
X700357Y325554D01*
X700209Y325766D01*
X700061Y325935D01*
X699935Y326072D01*
X699839Y326167D01*
X699797Y326199D01*
X699765Y326220D01*
X699755Y326241D01*
X699744D01*
X699575Y326347D01*
X699406Y326432D01*
X699237Y326484D01*
X699079Y326527D01*
X698941Y326548D01*
X698825Y326569D01*
X698730D01*
X698603Y326558D01*
X698476Y326548D01*
X698244Y326484D01*
X698033Y326410D01*
X697864Y326315D01*
X697716Y326220D01*
X697610Y326136D01*
X697578Y326104D01*
X697547Y326072D01*
X697536Y326062D01*
X697525Y326051D01*
X697420Y325914D01*
X697335Y325755D01*
X697251Y325586D01*
X697187Y325417D01*
X697134Y325269D01*
X697103Y325142D01*
X697092Y325089D01*
X697082Y325058D01*
X697071Y325037D01*
Y325026D01*
X695877Y325121D01*
X695909Y325332D01*
X695962Y325523D01*
X696014Y325702D01*
X696078Y325871D01*
X696152Y326030D01*
X696226Y326178D01*
X696300Y326315D01*
X696374Y326432D01*
X696448Y326537D01*
X696522Y326632D01*
X696585Y326717D01*
X696648Y326780D01*
X696691Y326833D01*
X696733Y326865D01*
X696754Y326886D01*
X696765Y326896D01*
X696913Y327013D01*
X697060Y327108D01*
X697208Y327203D01*
X697367Y327277D01*
X697536Y327340D01*
X697684Y327393D01*
X697990Y327467D01*
X698128Y327499D01*
X698254Y327520D01*
X698371Y327530D01*
X698466Y327541D01*
X698540Y327551D01*
X698656D01*
X698941Y327541D01*
D02*
G37*
G36*
X711441Y321888D02*
Y321603D01*
X711420Y321338D01*
X711410Y321085D01*
X711378Y320852D01*
X711357Y320630D01*
X711325Y320430D01*
X711293Y320250D01*
X711251Y320081D01*
X711219Y319933D01*
X711188Y319806D01*
X711156Y319690D01*
X711124Y319606D01*
X711103Y319532D01*
X711082Y319479D01*
X711072Y319447D01*
Y319436D01*
X710998Y319278D01*
X710913Y319119D01*
X710723Y318845D01*
X710522Y318612D01*
X710311Y318422D01*
X710216Y318338D01*
X710131Y318274D01*
X710047Y318211D01*
X709973Y318158D01*
X709920Y318126D01*
X709878Y318095D01*
X709846Y318084D01*
X709835Y318073D01*
X709666Y317989D01*
X709487Y317925D01*
X709117Y317809D01*
X708736Y317725D01*
X708377Y317672D01*
X708219Y317651D01*
X708060Y317630D01*
X707933Y317619D01*
X707817D01*
X707722Y317609D01*
X707585D01*
X707331Y317619D01*
X707088Y317630D01*
X706856Y317661D01*
X706634Y317693D01*
X706433Y317735D01*
X706243Y317778D01*
X706074Y317830D01*
X705926Y317883D01*
X705778Y317925D01*
X705662Y317978D01*
X705556Y318021D01*
X705471Y318063D01*
X705397Y318095D01*
X705355Y318126D01*
X705323Y318137D01*
X705313Y318147D01*
X705154Y318253D01*
X705006Y318359D01*
X704880Y318475D01*
X704753Y318591D01*
X704647Y318707D01*
X704541Y318834D01*
X704457Y318940D01*
X704383Y319056D01*
X704256Y319246D01*
X704214Y319331D01*
X704172Y319405D01*
X704140Y319468D01*
X704119Y319510D01*
X704108Y319542D01*
Y319553D01*
X704045Y319722D01*
X703992Y319901D01*
X703908Y320282D01*
X703855Y320673D01*
X703812Y321043D01*
X703802Y321222D01*
X703791Y321381D01*
X703781Y321518D01*
X703770Y321645D01*
Y321750D01*
Y321824D01*
Y321867D01*
Y321888D01*
Y327520D01*
X705059D01*
Y321888D01*
X705070Y321560D01*
X705080Y321254D01*
X705112Y320979D01*
X705154Y320726D01*
X705197Y320504D01*
X705249Y320303D01*
X705313Y320123D01*
X705366Y319965D01*
X705419Y319827D01*
X705482Y319711D01*
X705535Y319616D01*
X705577Y319542D01*
X705619Y319489D01*
X705640Y319447D01*
X705662Y319426D01*
X705672Y319415D01*
X705799Y319299D01*
X705936Y319204D01*
X706084Y319119D01*
X706243Y319046D01*
X706412Y318982D01*
X706581Y318929D01*
X706908Y318855D01*
X707067Y318824D01*
X707215Y318803D01*
X707352Y318792D01*
X707468Y318781D01*
X707563Y318771D01*
X707701D01*
X707997Y318781D01*
X708271Y318824D01*
X708514Y318876D01*
X708726Y318929D01*
X708810Y318961D01*
X708884Y318993D01*
X708958Y319014D01*
X709011Y319035D01*
X709053Y319056D01*
X709085Y319077D01*
X709106Y319088D01*
X709117D01*
X709318Y319225D01*
X709487Y319373D01*
X709624Y319521D01*
X709730Y319680D01*
X709814Y319806D01*
X709878Y319923D01*
X709899Y319965D01*
X709909Y319996D01*
X709920Y320007D01*
Y320018D01*
X709962Y320134D01*
X709994Y320271D01*
X710057Y320567D01*
X710099Y320873D01*
X710121Y321180D01*
X710131Y321317D01*
X710142Y321455D01*
Y321571D01*
X710152Y321677D01*
Y321772D01*
Y321835D01*
Y321877D01*
Y321888D01*
Y327520D01*
X711441D01*
Y321888D01*
D02*
G37*
G36*
X118071Y217278D02*
X118314Y217257D01*
X118535Y217225D01*
X118747Y217172D01*
X118948Y217120D01*
X119127Y217056D01*
X119296Y216993D01*
X119444Y216929D01*
X119582Y216855D01*
X119698Y216792D01*
X119803Y216729D01*
X119888Y216676D01*
X119951Y216623D01*
X119994Y216591D01*
X120025Y216570D01*
X120036Y216560D01*
X120184Y216422D01*
X120311Y216264D01*
X120427Y216105D01*
X120533Y215926D01*
X120617Y215756D01*
X120702Y215588D01*
X120765Y215408D01*
X120818Y215249D01*
X120871Y215091D01*
X120902Y214943D01*
X120934Y214806D01*
X120955Y214689D01*
X120966Y214594D01*
X120976Y214531D01*
X120987Y214489D01*
Y214467D01*
X119761Y214341D01*
X119751Y214510D01*
X119740Y214668D01*
X119677Y214943D01*
X119592Y215196D01*
X119550Y215302D01*
X119497Y215397D01*
X119455Y215482D01*
X119402Y215556D01*
X119360Y215619D01*
X119328Y215672D01*
X119286Y215714D01*
X119265Y215746D01*
X119254Y215756D01*
X119243Y215767D01*
X119138Y215862D01*
X119032Y215947D01*
X118916Y216010D01*
X118800Y216073D01*
X118567Y216169D01*
X118345Y216232D01*
X118155Y216264D01*
X118071Y216285D01*
X117997D01*
X117933Y216295D01*
X117701D01*
X117553Y216274D01*
X117289Y216222D01*
X117067Y216137D01*
X116866Y216052D01*
X116718Y215957D01*
X116655Y215915D01*
X116602Y215873D01*
X116560Y215841D01*
X116528Y215820D01*
X116517Y215809D01*
X116507Y215799D01*
X116412Y215704D01*
X116338Y215609D01*
X116264Y215513D01*
X116211Y215408D01*
X116116Y215207D01*
X116052Y215017D01*
X116021Y214858D01*
X116000Y214784D01*
Y214721D01*
X115989Y214679D01*
Y214636D01*
Y214615D01*
Y214605D01*
X116000Y214478D01*
X116010Y214351D01*
X116074Y214098D01*
X116169Y213855D01*
X116274Y213633D01*
X116380Y213442D01*
X116422Y213368D01*
X116475Y213295D01*
X116507Y213242D01*
X116538Y213200D01*
X116549Y213178D01*
X116560Y213168D01*
X116676Y213020D01*
X116813Y212861D01*
X116972Y212692D01*
X117141Y212523D01*
X117489Y212174D01*
X117849Y211847D01*
X118018Y211688D01*
X118187Y211551D01*
X118335Y211424D01*
X118462Y211319D01*
X118567Y211224D01*
X118641Y211160D01*
X118694Y211107D01*
X118715Y211097D01*
X118905Y210938D01*
X119074Y210790D01*
X119243Y210653D01*
X119391Y210516D01*
X119539Y210389D01*
X119666Y210262D01*
X119782Y210156D01*
X119888Y210051D01*
X119983Y209956D01*
X120057Y209871D01*
X120131Y209797D01*
X120184Y209744D01*
X120237Y209691D01*
X120268Y209660D01*
X120279Y209639D01*
X120289Y209628D01*
X120480Y209396D01*
X120638Y209163D01*
X120776Y208941D01*
X120881Y208741D01*
X120966Y208571D01*
X120997Y208497D01*
X121029Y208445D01*
X121050Y208392D01*
X121061Y208360D01*
X121071Y208339D01*
Y208328D01*
X121124Y208180D01*
X121156Y208032D01*
X121188Y207895D01*
X121198Y207768D01*
X121209Y207663D01*
Y207578D01*
Y207525D01*
Y207504D01*
X114753D01*
Y208656D01*
X119560D01*
X119391Y208888D01*
X119307Y208994D01*
X119222Y209089D01*
X119148Y209174D01*
X119095Y209237D01*
X119053Y209279D01*
X119043Y209290D01*
X118979Y209353D01*
X118895Y209438D01*
X118800Y209522D01*
X118694Y209618D01*
X118472Y209829D01*
X118240Y210030D01*
X118018Y210220D01*
X117923Y210304D01*
X117828Y210378D01*
X117764Y210442D01*
X117701Y210484D01*
X117669Y210516D01*
X117659Y210526D01*
X117426Y210727D01*
X117204Y210917D01*
X117003Y211086D01*
X116824Y211255D01*
X116655Y211403D01*
X116507Y211551D01*
X116369Y211678D01*
X116243Y211794D01*
X116137Y211889D01*
X116052Y211984D01*
X115978Y212058D01*
X115915Y212122D01*
X115873Y212174D01*
X115830Y212206D01*
X115820Y212227D01*
X115809Y212238D01*
X115609Y212470D01*
X115450Y212682D01*
X115313Y212882D01*
X115197Y213062D01*
X115112Y213210D01*
X115049Y213326D01*
X115028Y213368D01*
X115017Y213400D01*
X115006Y213411D01*
Y213421D01*
X114922Y213633D01*
X114869Y213844D01*
X114827Y214034D01*
X114795Y214214D01*
X114774Y214362D01*
X114763Y214478D01*
Y214520D01*
Y214552D01*
Y214562D01*
Y214573D01*
X114774Y214784D01*
X114795Y214985D01*
X114837Y215175D01*
X114890Y215366D01*
X114953Y215535D01*
X115028Y215693D01*
X115101Y215841D01*
X115175Y215968D01*
X115249Y216095D01*
X115323Y216200D01*
X115397Y216295D01*
X115461Y216369D01*
X115513Y216422D01*
X115556Y216475D01*
X115577Y216496D01*
X115588Y216507D01*
X115746Y216644D01*
X115915Y216760D01*
X116095Y216866D01*
X116285Y216961D01*
X116465Y217035D01*
X116655Y217099D01*
X116834Y217151D01*
X117014Y217194D01*
X117172Y217225D01*
X117331Y217246D01*
X117468Y217267D01*
X117584Y217278D01*
X117680Y217289D01*
X117817D01*
X118071Y217278D01*
D02*
G37*
G36*
X127200Y217416D02*
X127443Y217394D01*
X127675Y217373D01*
X127897Y217331D01*
X128119Y217278D01*
X128320Y217225D01*
X128500Y217172D01*
X128679Y217120D01*
X128827Y217056D01*
X128975Y217003D01*
X129091Y216950D01*
X129197Y216898D01*
X129282Y216855D01*
X129334Y216834D01*
X129377Y216813D01*
X129387Y216803D01*
X129588Y216686D01*
X129768Y216549D01*
X129937Y216412D01*
X130106Y216264D01*
X130254Y216116D01*
X130380Y215968D01*
X130507Y215820D01*
X130624Y215672D01*
X130719Y215535D01*
X130803Y215418D01*
X130877Y215302D01*
X130941Y215196D01*
X130983Y215123D01*
X131014Y215059D01*
X131036Y215017D01*
X131046Y215006D01*
X131152Y214784D01*
X131236Y214552D01*
X131310Y214319D01*
X131384Y214098D01*
X131490Y213654D01*
X131522Y213442D01*
X131553Y213252D01*
X131574Y213062D01*
X131596Y212893D01*
X131606Y212745D01*
X131617Y212618D01*
X131627Y212513D01*
Y212439D01*
Y212396D01*
Y212375D01*
X131617Y212111D01*
X131606Y211847D01*
X131574Y211593D01*
X131532Y211361D01*
X131490Y211129D01*
X131448Y210917D01*
X131395Y210716D01*
X131331Y210526D01*
X131279Y210357D01*
X131226Y210209D01*
X131184Y210082D01*
X131141Y209966D01*
X131099Y209882D01*
X131067Y209818D01*
X131057Y209776D01*
X131046Y209765D01*
X130930Y209554D01*
X130803Y209353D01*
X130676Y209174D01*
X130539Y209005D01*
X130402Y208846D01*
X130264Y208698D01*
X130127Y208561D01*
X130000Y208445D01*
X129873Y208339D01*
X129757Y208244D01*
X129651Y208159D01*
X129567Y208096D01*
X129493Y208043D01*
X129430Y208011D01*
X129398Y207990D01*
X129387Y207980D01*
X129186Y207863D01*
X128975Y207768D01*
X128764Y207684D01*
X128552Y207610D01*
X128352Y207557D01*
X128151Y207504D01*
X127961Y207462D01*
X127781Y207430D01*
X127612Y207398D01*
X127464Y207377D01*
X127327Y207367D01*
X127211Y207356D01*
X127115Y207346D01*
X126989D01*
X126746Y207356D01*
X126513Y207367D01*
X126059Y207441D01*
X125847Y207483D01*
X125657Y207536D01*
X125467Y207589D01*
X125298Y207642D01*
X125140Y207694D01*
X125002Y207747D01*
X124886Y207800D01*
X124780Y207842D01*
X124696Y207885D01*
X124643Y207916D01*
X124601Y207927D01*
X124590Y207937D01*
X124199Y207652D01*
X123819Y207409D01*
X123470Y207208D01*
X123301Y207124D01*
X123153Y207050D01*
X123016Y206976D01*
X122889Y206912D01*
X122773Y206870D01*
X122677Y206828D01*
X122604Y206796D01*
X122540Y206775D01*
X122508Y206754D01*
X122498D01*
X122107Y207642D01*
X122392Y207758D01*
X122688Y207906D01*
X122973Y208054D01*
X123227Y208202D01*
X123343Y208276D01*
X123449Y208339D01*
X123544Y208402D01*
X123618Y208445D01*
X123692Y208487D01*
X123734Y208519D01*
X123766Y208540D01*
X123776Y208550D01*
X123512Y208825D01*
X123290Y209110D01*
X123100Y209385D01*
X122942Y209649D01*
X122878Y209765D01*
X122825Y209882D01*
X122773Y209977D01*
X122741Y210061D01*
X122709Y210125D01*
X122688Y210177D01*
X122667Y210209D01*
Y210220D01*
X122540Y210590D01*
X122456Y210959D01*
X122392Y211329D01*
X122360Y211498D01*
X122339Y211667D01*
X122329Y211815D01*
X122318Y211953D01*
X122308Y212079D01*
Y212185D01*
X122297Y212270D01*
Y212333D01*
Y212375D01*
Y212386D01*
X122308Y212650D01*
X122318Y212914D01*
X122350Y213168D01*
X122382Y213400D01*
X122424Y213633D01*
X122477Y213844D01*
X122530Y214045D01*
X122582Y214224D01*
X122635Y214394D01*
X122688Y214541D01*
X122730Y214679D01*
X122783Y214784D01*
X122815Y214869D01*
X122847Y214932D01*
X122857Y214975D01*
X122868Y214985D01*
X122984Y215196D01*
X123100Y215397D01*
X123237Y215577D01*
X123364Y215756D01*
X123502Y215915D01*
X123639Y216063D01*
X123776Y216190D01*
X123914Y216317D01*
X124041Y216422D01*
X124157Y216517D01*
X124252Y216602D01*
X124347Y216665D01*
X124421Y216718D01*
X124474Y216750D01*
X124516Y216771D01*
X124527Y216782D01*
X124738Y216898D01*
X124939Y216993D01*
X125150Y217077D01*
X125361Y217151D01*
X125573Y217215D01*
X125773Y217267D01*
X125964Y217310D01*
X126154Y217341D01*
X126323Y217373D01*
X126471Y217394D01*
X126608Y217405D01*
X126735Y217416D01*
X126830Y217426D01*
X126957D01*
X127200Y217416D01*
D02*
G37*
G36*
X269147Y264335D02*
X275466D01*
Y263352D01*
X269147Y258893D01*
X268048D01*
Y263141D01*
X265713D01*
Y264335D01*
X268048D01*
Y265656D01*
X269147D01*
Y264335D01*
D02*
G37*
G36*
X275466Y256347D02*
X269834D01*
X269506Y256336D01*
X269200Y256325D01*
X268925Y256294D01*
X268671Y256252D01*
X268450Y256209D01*
X268249Y256156D01*
X268069Y256093D01*
X267911Y256040D01*
X267773Y255987D01*
X267657Y255924D01*
X267562Y255871D01*
X267488Y255829D01*
X267435Y255786D01*
X267393Y255765D01*
X267372Y255744D01*
X267361Y255734D01*
X267245Y255607D01*
X267150Y255469D01*
X267065Y255322D01*
X266991Y255163D01*
X266928Y254994D01*
X266875Y254825D01*
X266801Y254497D01*
X266770Y254339D01*
X266748Y254191D01*
X266738Y254054D01*
X266727Y253937D01*
X266717Y253842D01*
Y253705D01*
X266727Y253409D01*
X266770Y253134D01*
X266822Y252891D01*
X266875Y252680D01*
X266907Y252596D01*
X266939Y252521D01*
X266960Y252448D01*
X266981Y252395D01*
X267002Y252353D01*
X267023Y252321D01*
X267034Y252300D01*
Y252289D01*
X267171Y252088D01*
X267319Y251919D01*
X267467Y251782D01*
X267625Y251676D01*
X267752Y251592D01*
X267868Y251528D01*
X267911Y251507D01*
X267942Y251497D01*
X267953Y251486D01*
X267964D01*
X268080Y251444D01*
X268217Y251412D01*
X268513Y251349D01*
X268819Y251306D01*
X269126Y251285D01*
X269263Y251275D01*
X269401Y251264D01*
X269517D01*
X269622Y251254D01*
X269718D01*
X269781D01*
X269823D01*
X269834D01*
X275466D01*
Y249964D01*
X269834D01*
X269548D01*
X269284Y249986D01*
X269031Y249996D01*
X268798Y250028D01*
X268576Y250049D01*
X268376Y250081D01*
X268196Y250112D01*
X268027Y250155D01*
X267879Y250186D01*
X267752Y250218D01*
X267636Y250250D01*
X267551Y250281D01*
X267477Y250303D01*
X267425Y250324D01*
X267393Y250334D01*
X267382D01*
X267224Y250408D01*
X267065Y250493D01*
X266791Y250683D01*
X266558Y250884D01*
X266368Y251095D01*
X266283Y251190D01*
X266220Y251275D01*
X266157Y251359D01*
X266104Y251433D01*
X266072Y251486D01*
X266040Y251528D01*
X266030Y251560D01*
X266019Y251570D01*
X265935Y251740D01*
X265871Y251919D01*
X265755Y252289D01*
X265671Y252669D01*
X265618Y253029D01*
X265597Y253187D01*
X265576Y253346D01*
X265565Y253472D01*
Y253589D01*
X265554Y253684D01*
Y253821D01*
X265565Y254075D01*
X265576Y254318D01*
X265607Y254550D01*
X265639Y254772D01*
X265681Y254973D01*
X265723Y255163D01*
X265776Y255332D01*
X265829Y255480D01*
X265871Y255628D01*
X265924Y255744D01*
X265966Y255850D01*
X266009Y255935D01*
X266040Y256008D01*
X266072Y256051D01*
X266083Y256082D01*
X266093Y256093D01*
X266199Y256252D01*
X266305Y256399D01*
X266421Y256526D01*
X266537Y256653D01*
X266653Y256759D01*
X266780Y256864D01*
X266886Y256949D01*
X267002Y257023D01*
X267192Y257150D01*
X267277Y257192D01*
X267351Y257234D01*
X267414Y257266D01*
X267456Y257287D01*
X267488Y257297D01*
X267499D01*
X267668Y257361D01*
X267847Y257414D01*
X268228Y257498D01*
X268619Y257551D01*
X268988Y257593D01*
X269168Y257604D01*
X269327Y257614D01*
X269464Y257625D01*
X269591Y257636D01*
X269696D01*
X269770D01*
X269813D01*
X269834D01*
X275466D01*
Y256347D01*
D02*
G37*
G36*
X396654Y377002D02*
X396897Y376981D01*
X397119Y376949D01*
X397330Y376897D01*
X397531Y376844D01*
X397711Y376780D01*
X397880Y376717D01*
X398028Y376654D01*
X398165Y376580D01*
X398281Y376516D01*
X398387Y376453D01*
X398471Y376400D01*
X398535Y376347D01*
X398577Y376315D01*
X398609Y376294D01*
X398619Y376284D01*
X398767Y376146D01*
X398894Y375988D01*
X399010Y375829D01*
X399116Y375650D01*
X399201Y375481D01*
X399285Y375312D01*
X399349Y375132D01*
X399401Y374973D01*
X399454Y374815D01*
X399486Y374667D01*
X399518Y374530D01*
X399539Y374413D01*
X399549Y374318D01*
X399560Y374255D01*
X399570Y374213D01*
Y374192D01*
X398345Y374065D01*
X398334Y374234D01*
X398324Y374392D01*
X398260Y374667D01*
X398176Y374921D01*
X398133Y375026D01*
X398081Y375121D01*
X398038Y375206D01*
X397985Y375280D01*
X397943Y375343D01*
X397911Y375396D01*
X397869Y375438D01*
X397848Y375470D01*
X397838Y375481D01*
X397827Y375491D01*
X397721Y375586D01*
X397616Y375671D01*
X397499Y375734D01*
X397383Y375798D01*
X397151Y375893D01*
X396929Y375956D01*
X396739Y375988D01*
X396654Y376009D01*
X396580D01*
X396517Y376020D01*
X396284D01*
X396136Y375998D01*
X395872Y375946D01*
X395650Y375861D01*
X395450Y375776D01*
X395302Y375681D01*
X395238Y375639D01*
X395185Y375597D01*
X395143Y375565D01*
X395111Y375544D01*
X395101Y375533D01*
X395090Y375523D01*
X394995Y375428D01*
X394921Y375333D01*
X394847Y375238D01*
X394794Y375132D01*
X394699Y374931D01*
X394636Y374741D01*
X394604Y374582D01*
X394583Y374509D01*
Y374445D01*
X394572Y374403D01*
Y374361D01*
Y374339D01*
Y374329D01*
X394583Y374202D01*
X394594Y374075D01*
X394657Y373822D01*
X394752Y373579D01*
X394858Y373357D01*
X394963Y373167D01*
X395006Y373093D01*
X395059Y373019D01*
X395090Y372966D01*
X395122Y372924D01*
X395133Y372902D01*
X395143Y372892D01*
X395259Y372744D01*
X395397Y372585D01*
X395555Y372416D01*
X395724Y372247D01*
X396073Y371899D01*
X396432Y371571D01*
X396601Y371413D01*
X396770Y371275D01*
X396918Y371148D01*
X397045Y371043D01*
X397151Y370948D01*
X397225Y370884D01*
X397277Y370831D01*
X397299Y370821D01*
X397489Y370662D01*
X397658Y370514D01*
X397827Y370377D01*
X397975Y370240D01*
X398123Y370113D01*
X398250Y369986D01*
X398366Y369880D01*
X398471Y369775D01*
X398567Y369680D01*
X398641Y369595D01*
X398715Y369521D01*
X398767Y369468D01*
X398820Y369416D01*
X398852Y369384D01*
X398862Y369363D01*
X398873Y369352D01*
X399063Y369120D01*
X399222Y368887D01*
X399359Y368665D01*
X399465Y368465D01*
X399549Y368296D01*
X399581Y368222D01*
X399613Y368169D01*
X399634Y368116D01*
X399644Y368084D01*
X399655Y368063D01*
Y368052D01*
X399708Y367905D01*
X399739Y367757D01*
X399771Y367619D01*
X399782Y367492D01*
X399792Y367387D01*
Y367302D01*
Y367249D01*
Y367228D01*
X393336D01*
Y368380D01*
X398144D01*
X397975Y368613D01*
X397890Y368718D01*
X397806Y368813D01*
X397732Y368898D01*
X397679Y368961D01*
X397637Y369003D01*
X397626Y369014D01*
X397563Y369077D01*
X397478Y369162D01*
X397383Y369246D01*
X397277Y369342D01*
X397056Y369553D01*
X396823Y369754D01*
X396601Y369944D01*
X396506Y370028D01*
X396411Y370102D01*
X396348Y370166D01*
X396284Y370208D01*
X396253Y370240D01*
X396242Y370250D01*
X396010Y370451D01*
X395788Y370641D01*
X395587Y370810D01*
X395407Y370979D01*
X395238Y371127D01*
X395090Y371275D01*
X394953Y371402D01*
X394826Y371518D01*
X394720Y371613D01*
X394636Y371708D01*
X394562Y371782D01*
X394499Y371846D01*
X394456Y371899D01*
X394414Y371930D01*
X394403Y371951D01*
X394393Y371962D01*
X394192Y372195D01*
X394034Y372406D01*
X393896Y372607D01*
X393780Y372786D01*
X393695Y372934D01*
X393632Y373050D01*
X393611Y373093D01*
X393600Y373124D01*
X393590Y373135D01*
Y373145D01*
X393505Y373357D01*
X393452Y373568D01*
X393410Y373758D01*
X393378Y373938D01*
X393357Y374086D01*
X393347Y374202D01*
Y374244D01*
Y374276D01*
Y374287D01*
Y374297D01*
X393357Y374509D01*
X393378Y374709D01*
X393421Y374899D01*
X393474Y375090D01*
X393537Y375259D01*
X393611Y375417D01*
X393685Y375565D01*
X393759Y375692D01*
X393833Y375819D01*
X393907Y375924D01*
X393981Y376020D01*
X394044Y376093D01*
X394097Y376146D01*
X394139Y376199D01*
X394160Y376220D01*
X394171Y376231D01*
X394329Y376368D01*
X394499Y376484D01*
X394678Y376590D01*
X394868Y376685D01*
X395048Y376759D01*
X395238Y376823D01*
X395418Y376875D01*
X395597Y376918D01*
X395756Y376949D01*
X395914Y376970D01*
X396052Y376992D01*
X396168Y377002D01*
X396263Y377013D01*
X396400D01*
X396654Y377002D01*
D02*
G37*
G36*
X388888D02*
X389152Y376960D01*
X389406Y376907D01*
X389638Y376833D01*
X389860Y376749D01*
X390061Y376654D01*
X390251Y376558D01*
X390420Y376453D01*
X390568Y376347D01*
X390695Y376252D01*
X390811Y376157D01*
X390895Y376072D01*
X390969Y375998D01*
X391022Y375946D01*
X391054Y375903D01*
X391064Y375893D01*
X391244Y375639D01*
X391413Y375354D01*
X391551Y375037D01*
X391667Y374709D01*
X391772Y374371D01*
X391857Y374033D01*
X391920Y373695D01*
X391984Y373357D01*
X392026Y373040D01*
X392058Y372744D01*
X392079Y372480D01*
X392089Y372247D01*
X392100Y372142D01*
Y372057D01*
X392111Y371973D01*
Y371909D01*
Y371856D01*
Y371814D01*
Y371793D01*
Y371782D01*
X392100Y371328D01*
X392068Y370905D01*
X392026Y370514D01*
X391963Y370155D01*
X391889Y369828D01*
X391815Y369532D01*
X391730Y369268D01*
X391635Y369035D01*
X391551Y368824D01*
X391466Y368644D01*
X391392Y368496D01*
X391318Y368380D01*
X391255Y368285D01*
X391212Y368222D01*
X391181Y368179D01*
X391170Y368169D01*
X390990Y367979D01*
X390790Y367809D01*
X390600Y367662D01*
X390388Y367535D01*
X390187Y367429D01*
X389987Y367334D01*
X389786Y367271D01*
X389596Y367207D01*
X389416Y367165D01*
X389258Y367133D01*
X389110Y367102D01*
X388983Y367091D01*
X388877Y367080D01*
X388793Y367070D01*
X388729D01*
X388412Y367091D01*
X388116Y367133D01*
X387842Y367197D01*
X387609Y367281D01*
X387514Y367313D01*
X387419Y367355D01*
X387345Y367387D01*
X387282Y367419D01*
X387229Y367440D01*
X387187Y367461D01*
X387165Y367482D01*
X387155D01*
X386912Y367651D01*
X386690Y367852D01*
X386500Y368052D01*
X386352Y368243D01*
X386225Y368422D01*
X386183Y368496D01*
X386141Y368560D01*
X386109Y368613D01*
X386088Y368655D01*
X386067Y368676D01*
Y368686D01*
X385929Y368993D01*
X385834Y369289D01*
X385760Y369574D01*
X385718Y369838D01*
X385697Y369954D01*
X385686Y370071D01*
X385676Y370166D01*
Y370240D01*
X385665Y370314D01*
Y370356D01*
Y370388D01*
Y370398D01*
X385676Y370652D01*
X385697Y370895D01*
X385739Y371127D01*
X385792Y371339D01*
X385866Y371539D01*
X385929Y371730D01*
X386014Y371899D01*
X386088Y372057D01*
X386162Y372195D01*
X386246Y372321D01*
X386310Y372427D01*
X386373Y372511D01*
X386436Y372585D01*
X386479Y372628D01*
X386500Y372659D01*
X386510Y372670D01*
X386669Y372828D01*
X386838Y372966D01*
X387007Y373082D01*
X387187Y373188D01*
X387356Y373272D01*
X387525Y373346D01*
X387694Y373399D01*
X387842Y373452D01*
X387990Y373484D01*
X388127Y373515D01*
X388243Y373526D01*
X388349Y373547D01*
X388433D01*
X388497Y373558D01*
X388550D01*
X388803Y373547D01*
X389046Y373505D01*
X389268Y373452D01*
X389469Y373399D01*
X389638Y373336D01*
X389701Y373304D01*
X389765Y373283D01*
X389807Y373262D01*
X389839Y373241D01*
X389860Y373230D01*
X389870D01*
X390092Y373093D01*
X390293Y372945D01*
X390473Y372786D01*
X390631Y372628D01*
X390747Y372480D01*
X390843Y372364D01*
X390874Y372321D01*
X390895Y372290D01*
X390916Y372269D01*
X390917Y372258D01*
Y372268D01*
X390916Y372269D01*
X390906Y372522D01*
X390895Y372776D01*
X390885Y373008D01*
X390864Y373219D01*
X390832Y373420D01*
X390800Y373610D01*
X390779Y373779D01*
X390747Y373927D01*
X390716Y374054D01*
X390684Y374170D01*
X390652Y374276D01*
X390631Y374350D01*
X390610Y374413D01*
X390589Y374466D01*
X390578Y374487D01*
Y374498D01*
X390441Y374773D01*
X390304Y375016D01*
X390156Y375227D01*
X390008Y375396D01*
X389881Y375533D01*
X389786Y375629D01*
X389744Y375660D01*
X389712Y375681D01*
X389701Y375703D01*
X389691D01*
X389522Y375808D01*
X389353Y375893D01*
X389184Y375946D01*
X389025Y375988D01*
X388888Y376009D01*
X388772Y376030D01*
X388676D01*
X388550Y376020D01*
X388423Y376009D01*
X388190Y375946D01*
X387979Y375872D01*
X387810Y375776D01*
X387662Y375681D01*
X387556Y375597D01*
X387525Y375565D01*
X387493Y375533D01*
X387482Y375523D01*
X387472Y375512D01*
X387366Y375375D01*
X387282Y375216D01*
X387197Y375047D01*
X387134Y374878D01*
X387081Y374730D01*
X387049Y374604D01*
X387039Y374551D01*
X387028Y374519D01*
X387018Y374498D01*
Y374487D01*
X385824Y374582D01*
X385855Y374794D01*
X385908Y374984D01*
X385961Y375164D01*
X386024Y375333D01*
X386098Y375491D01*
X386172Y375639D01*
X386246Y375776D01*
X386320Y375893D01*
X386394Y375998D01*
X386468Y376093D01*
X386531Y376178D01*
X386595Y376241D01*
X386637Y376294D01*
X386679Y376326D01*
X386701Y376347D01*
X386711Y376358D01*
X386859Y376474D01*
X387007Y376569D01*
X387155Y376664D01*
X387313Y376738D01*
X387482Y376801D01*
X387630Y376854D01*
X387937Y376928D01*
X388074Y376960D01*
X388201Y376981D01*
X388317Y376992D01*
X388412Y377002D01*
X388486Y377013D01*
X388602D01*
X388888Y377002D01*
D02*
G37*
G36*
X405002Y377140D02*
X405234Y377129D01*
X405667Y377055D01*
X405879Y377013D01*
X406069Y376960D01*
X406259Y376907D01*
X406428Y376854D01*
X406576Y376801D01*
X406713Y376749D01*
X406840Y376696D01*
X406935Y376654D01*
X407020Y376611D01*
X407073Y376580D01*
X407115Y376569D01*
X407125Y376558D01*
X407316Y376442D01*
X407506Y376315D01*
X407675Y376178D01*
X407833Y376041D01*
X407981Y375893D01*
X408119Y375755D01*
X408235Y375607D01*
X408351Y375481D01*
X408446Y375343D01*
X408531Y375227D01*
X408605Y375121D01*
X408668Y375026D01*
X408710Y374942D01*
X408742Y374889D01*
X408763Y374847D01*
X408774Y374836D01*
X408879Y374625D01*
X408964Y374392D01*
X409038Y374170D01*
X409112Y373949D01*
X409218Y373494D01*
X409249Y373283D01*
X409281Y373082D01*
X409302Y372892D01*
X409323Y372723D01*
X409334Y372564D01*
X409344Y372427D01*
X409355Y372321D01*
Y372237D01*
Y372195D01*
Y372173D01*
X409344Y371920D01*
X409334Y371666D01*
X409270Y371180D01*
X409239Y370948D01*
X409196Y370736D01*
X409144Y370536D01*
X409101Y370345D01*
X409049Y370176D01*
X409006Y370018D01*
X408964Y369891D01*
X408922Y369775D01*
X408890Y369690D01*
X408869Y369616D01*
X408858Y369574D01*
X408848Y369563D01*
X408742Y369342D01*
X408636Y369130D01*
X408520Y368940D01*
X408393Y368760D01*
X408267Y368591D01*
X408150Y368443D01*
X408024Y368306D01*
X407907Y368179D01*
X407791Y368063D01*
X407685Y367968D01*
X407590Y367894D01*
X407506Y367820D01*
X407442Y367767D01*
X407390Y367735D01*
X407358Y367714D01*
X407347Y367704D01*
X407157Y367588D01*
X406956Y367492D01*
X406745Y367408D01*
X406523Y367334D01*
X406312Y367281D01*
X406101Y367228D01*
X405889Y367186D01*
X405688Y367154D01*
X405498Y367123D01*
X405329Y367102D01*
X405171Y367091D01*
X405044Y367080D01*
X404928Y367070D01*
X404780D01*
X404494Y367080D01*
X404230Y367102D01*
X403977Y367144D01*
X403734Y367197D01*
X403501Y367260D01*
X403290Y367334D01*
X403100Y367408D01*
X402920Y367482D01*
X402751Y367556D01*
X402614Y367630D01*
X402487Y367704D01*
X402392Y367767D01*
X402307Y367820D01*
X402254Y367862D01*
X402212Y367883D01*
X402201Y367894D01*
X402011Y368063D01*
X401832Y368243D01*
X401673Y368433D01*
X401525Y368623D01*
X401388Y368824D01*
X401272Y369035D01*
X401166Y369225D01*
X401071Y369426D01*
X400986Y369606D01*
X400923Y369775D01*
X400859Y369933D01*
X400817Y370060D01*
X400775Y370176D01*
X400754Y370250D01*
X400733Y370303D01*
Y370324D01*
X402022Y370652D01*
X402075Y370430D01*
X402149Y370219D01*
X402223Y370018D01*
X402297Y369838D01*
X402381Y369669D01*
X402466Y369521D01*
X402550Y369384D01*
X402635Y369257D01*
X402719Y369151D01*
X402793Y369056D01*
X402867Y368972D01*
X402920Y368908D01*
X402973Y368856D01*
X403015Y368824D01*
X403036Y368803D01*
X403047Y368792D01*
X403195Y368686D01*
X403343Y368591D01*
X403491Y368507D01*
X403649Y368433D01*
X403808Y368369D01*
X403955Y368317D01*
X404251Y368243D01*
X404378Y368222D01*
X404505Y368200D01*
X404611Y368190D01*
X404706Y368179D01*
X404780Y368169D01*
X404885D01*
X405054Y368179D01*
X405213Y368190D01*
X405519Y368243D01*
X405805Y368317D01*
X406048Y368401D01*
X406153Y368443D01*
X406248Y368475D01*
X406333Y368517D01*
X406407Y368549D01*
X406470Y368581D01*
X406513Y368602D01*
X406534Y368623D01*
X406544D01*
X406682Y368718D01*
X406808Y368813D01*
X407041Y369035D01*
X407231Y369257D01*
X407390Y369490D01*
X407506Y369690D01*
X407559Y369775D01*
X407601Y369859D01*
X407622Y369923D01*
X407643Y369965D01*
X407664Y369997D01*
Y370007D01*
X407780Y370367D01*
X407876Y370736D01*
X407939Y371106D01*
X407960Y371275D01*
X407981Y371444D01*
X407992Y371603D01*
X408002Y371740D01*
X408013Y371867D01*
Y371973D01*
X408024Y372068D01*
Y372131D01*
Y372173D01*
Y372184D01*
X408013Y372543D01*
X407981Y372881D01*
X407929Y373198D01*
X407907Y373346D01*
X407876Y373484D01*
X407844Y373600D01*
X407823Y373716D01*
X407791Y373811D01*
X407770Y373896D01*
X407759Y373959D01*
X407738Y374012D01*
X407728Y374044D01*
Y374054D01*
X407590Y374382D01*
X407432Y374667D01*
X407263Y374910D01*
X407168Y375016D01*
X407083Y375121D01*
X406999Y375206D01*
X406925Y375280D01*
X406851Y375354D01*
X406798Y375407D01*
X406745Y375449D01*
X406703Y375481D01*
X406682Y375491D01*
X406671Y375502D01*
X406523Y375597D01*
X406375Y375681D01*
X406217Y375755D01*
X406058Y375819D01*
X405741Y375914D01*
X405435Y375988D01*
X405308Y376009D01*
X405181Y376020D01*
X405065Y376030D01*
X404970Y376041D01*
X404885Y376051D01*
X404600D01*
X404431Y376030D01*
X404114Y375977D01*
X403839Y375893D01*
X403723Y375850D01*
X403607Y375808D01*
X403501Y375766D01*
X403417Y375724D01*
X403343Y375681D01*
X403279Y375639D01*
X403226Y375607D01*
X403195Y375586D01*
X403174Y375576D01*
X403163Y375565D01*
X403047Y375470D01*
X402931Y375364D01*
X402740Y375121D01*
X402561Y374857D01*
X402423Y374604D01*
X402318Y374371D01*
X402265Y374276D01*
X402233Y374192D01*
X402201Y374118D01*
X402191Y374054D01*
X402170Y374022D01*
Y374012D01*
X400902Y374308D01*
X400986Y374551D01*
X401081Y374783D01*
X401176Y375005D01*
X401293Y375206D01*
X401398Y375396D01*
X401515Y375565D01*
X401631Y375724D01*
X401747Y375861D01*
X401863Y375988D01*
X401959Y376093D01*
X402054Y376189D01*
X402138Y376263D01*
X402201Y376326D01*
X402254Y376368D01*
X402286Y376389D01*
X402297Y376400D01*
X402487Y376537D01*
X402687Y376643D01*
X402888Y376749D01*
X403100Y376833D01*
X403311Y376907D01*
X403512Y376970D01*
X403713Y377013D01*
X403903Y377055D01*
X404082Y377087D01*
X404241Y377108D01*
X404389Y377129D01*
X404515Y377140D01*
X404621Y377150D01*
X404759D01*
X405002Y377140D01*
D02*
G37*
G36*
X190898Y357952D02*
X191141Y357931D01*
X191363Y357899D01*
X191574Y357847D01*
X191775Y357794D01*
X191955Y357730D01*
X192124Y357667D01*
X192272Y357604D01*
X192409Y357530D01*
X192526Y357466D01*
X192631Y357403D01*
X192716Y357350D01*
X192779Y357297D01*
X192821Y357265D01*
X192853Y357244D01*
X192864Y357234D01*
X193012Y357096D01*
X193138Y356938D01*
X193255Y356779D01*
X193360Y356600D01*
X193445Y356431D01*
X193529Y356262D01*
X193593Y356082D01*
X193645Y355924D01*
X193698Y355765D01*
X193730Y355617D01*
X193762Y355480D01*
X193783Y355364D01*
X193794Y355268D01*
X193804Y355205D01*
X193815Y355163D01*
Y355142D01*
X192589Y355015D01*
X192578Y355184D01*
X192568Y355342D01*
X192504Y355617D01*
X192420Y355871D01*
X192378Y355976D01*
X192325Y356071D01*
X192283Y356156D01*
X192230Y356230D01*
X192187Y356293D01*
X192156Y356346D01*
X192113Y356388D01*
X192092Y356420D01*
X192082Y356431D01*
X192071Y356441D01*
X191966Y356536D01*
X191860Y356621D01*
X191744Y356684D01*
X191627Y356748D01*
X191395Y356843D01*
X191173Y356906D01*
X190983Y356938D01*
X190898Y356959D01*
X190824D01*
X190761Y356970D01*
X190528D01*
X190380Y356948D01*
X190116Y356896D01*
X189895Y356811D01*
X189694Y356726D01*
X189546Y356631D01*
X189482Y356589D01*
X189429Y356547D01*
X189387Y356515D01*
X189356Y356494D01*
X189345Y356483D01*
X189334Y356473D01*
X189239Y356378D01*
X189165Y356283D01*
X189091Y356188D01*
X189039Y356082D01*
X188944Y355881D01*
X188880Y355691D01*
X188848Y355532D01*
X188827Y355459D01*
Y355395D01*
X188817Y355353D01*
Y355311D01*
Y355289D01*
Y355279D01*
X188827Y355152D01*
X188838Y355025D01*
X188901Y354772D01*
X188996Y354529D01*
X189102Y354307D01*
X189208Y354117D01*
X189250Y354043D01*
X189303Y353969D01*
X189334Y353916D01*
X189366Y353874D01*
X189377Y353853D01*
X189387Y353842D01*
X189503Y353694D01*
X189641Y353535D01*
X189799Y353366D01*
X189968Y353197D01*
X190317Y352849D01*
X190676Y352521D01*
X190845Y352363D01*
X191014Y352225D01*
X191162Y352099D01*
X191289Y351993D01*
X191395Y351898D01*
X191469Y351834D01*
X191522Y351782D01*
X191543Y351771D01*
X191733Y351612D01*
X191902Y351465D01*
X192071Y351327D01*
X192219Y351190D01*
X192367Y351063D01*
X192494Y350936D01*
X192610Y350830D01*
X192716Y350725D01*
X192811Y350630D01*
X192885Y350545D01*
X192959Y350471D01*
X193012Y350418D01*
X193064Y350366D01*
X193096Y350334D01*
X193107Y350313D01*
X193117Y350302D01*
X193307Y350070D01*
X193466Y349837D01*
X193603Y349615D01*
X193709Y349415D01*
X193794Y349245D01*
X193825Y349172D01*
X193857Y349119D01*
X193878Y349066D01*
X193889Y349034D01*
X193899Y349013D01*
Y349002D01*
X193952Y348855D01*
X193984Y348707D01*
X194015Y348569D01*
X194026Y348442D01*
X194037Y348337D01*
Y348252D01*
Y348200D01*
Y348178D01*
X187580D01*
Y349330D01*
X192388D01*
X192219Y349562D01*
X192134Y349668D01*
X192050Y349763D01*
X191976Y349848D01*
X191923Y349911D01*
X191881Y349953D01*
X191870Y349964D01*
X191807Y350027D01*
X191723Y350112D01*
X191627Y350196D01*
X191522Y350292D01*
X191300Y350503D01*
X191067Y350704D01*
X190845Y350894D01*
X190750Y350978D01*
X190655Y351052D01*
X190592Y351116D01*
X190528Y351158D01*
X190497Y351190D01*
X190486Y351200D01*
X190254Y351401D01*
X190032Y351591D01*
X189831Y351760D01*
X189651Y351929D01*
X189482Y352077D01*
X189334Y352225D01*
X189197Y352352D01*
X189070Y352468D01*
X188965Y352563D01*
X188880Y352659D01*
X188806Y352732D01*
X188743Y352796D01*
X188701Y352849D01*
X188658Y352880D01*
X188648Y352901D01*
X188637Y352912D01*
X188436Y353144D01*
X188278Y353356D01*
X188140Y353557D01*
X188024Y353736D01*
X187940Y353884D01*
X187876Y354000D01*
X187855Y354043D01*
X187845Y354074D01*
X187834Y354085D01*
Y354095D01*
X187750Y354307D01*
X187697Y354518D01*
X187654Y354708D01*
X187623Y354888D01*
X187602Y355036D01*
X187591Y355152D01*
Y355194D01*
Y355226D01*
Y355237D01*
Y355247D01*
X187602Y355459D01*
X187623Y355659D01*
X187665Y355849D01*
X187718Y356040D01*
X187781Y356209D01*
X187855Y356367D01*
X187929Y356515D01*
X188003Y356642D01*
X188077Y356769D01*
X188151Y356875D01*
X188225Y356970D01*
X188288Y357043D01*
X188341Y357096D01*
X188384Y357149D01*
X188405Y357170D01*
X188415Y357181D01*
X188574Y357318D01*
X188743Y357435D01*
X188922Y357540D01*
X189113Y357635D01*
X189292Y357709D01*
X189482Y357773D01*
X189662Y357825D01*
X189842Y357868D01*
X190000Y357899D01*
X190159Y357920D01*
X190296Y357942D01*
X190412Y357952D01*
X190507Y357963D01*
X190645D01*
X190898Y357952D01*
D02*
G37*
G36*
X199246Y358090D02*
X199478Y358079D01*
X199911Y358005D01*
X200123Y357963D01*
X200313Y357910D01*
X200503Y357857D01*
X200672Y357804D01*
X200820Y357752D01*
X200958Y357699D01*
X201084Y357646D01*
X201179Y357604D01*
X201264Y357561D01*
X201317Y357530D01*
X201359Y357519D01*
X201370Y357509D01*
X201560Y357392D01*
X201750Y357265D01*
X201919Y357128D01*
X202078Y356991D01*
X202225Y356843D01*
X202363Y356705D01*
X202479Y356558D01*
X202595Y356431D01*
X202690Y356293D01*
X202775Y356177D01*
X202849Y356071D01*
X202912Y355976D01*
X202955Y355892D01*
X202986Y355839D01*
X203007Y355797D01*
X203018Y355786D01*
X203124Y355575D01*
X203208Y355342D01*
X203282Y355120D01*
X203356Y354899D01*
X203462Y354444D01*
X203493Y354233D01*
X203525Y354032D01*
X203546Y353842D01*
X203567Y353673D01*
X203578Y353514D01*
X203589Y353377D01*
X203599Y353271D01*
Y353187D01*
Y353144D01*
Y353123D01*
X203589Y352870D01*
X203578Y352616D01*
X203515Y352130D01*
X203483Y351898D01*
X203441Y351686D01*
X203388Y351486D01*
X203346Y351295D01*
X203293Y351126D01*
X203250Y350968D01*
X203208Y350841D01*
X203166Y350725D01*
X203134Y350640D01*
X203113Y350566D01*
X203102Y350524D01*
X203092Y350513D01*
X202986Y350292D01*
X202881Y350080D01*
X202764Y349890D01*
X202638Y349711D01*
X202511Y349541D01*
X202395Y349394D01*
X202268Y349256D01*
X202152Y349129D01*
X202035Y349013D01*
X201930Y348918D01*
X201835Y348844D01*
X201750Y348770D01*
X201687Y348717D01*
X201634Y348685D01*
X201602Y348664D01*
X201591Y348654D01*
X201401Y348538D01*
X201201Y348442D01*
X200989Y348358D01*
X200767Y348284D01*
X200556Y348231D01*
X200345Y348178D01*
X200133Y348136D01*
X199932Y348104D01*
X199742Y348073D01*
X199573Y348051D01*
X199415Y348041D01*
X199288Y348030D01*
X199172Y348020D01*
X199024D01*
X198738Y348030D01*
X198474Y348051D01*
X198221Y348094D01*
X197978Y348147D01*
X197745Y348210D01*
X197534Y348284D01*
X197344Y348358D01*
X197164Y348432D01*
X196995Y348506D01*
X196858Y348580D01*
X196731Y348654D01*
X196636Y348717D01*
X196551Y348770D01*
X196499Y348812D01*
X196456Y348833D01*
X196446Y348844D01*
X196255Y349013D01*
X196076Y349193D01*
X195917Y349383D01*
X195769Y349573D01*
X195632Y349774D01*
X195516Y349985D01*
X195410Y350175D01*
X195315Y350376D01*
X195231Y350556D01*
X195167Y350725D01*
X195104Y350883D01*
X195061Y351010D01*
X195019Y351126D01*
X194998Y351200D01*
X194977Y351253D01*
Y351274D01*
X196266Y351602D01*
X196319Y351380D01*
X196393Y351169D01*
X196467Y350968D01*
X196541Y350788D01*
X196625Y350619D01*
X196710Y350471D01*
X196794Y350334D01*
X196879Y350207D01*
X196963Y350101D01*
X197037Y350006D01*
X197111Y349922D01*
X197164Y349858D01*
X197217Y349805D01*
X197259Y349774D01*
X197280Y349753D01*
X197291Y349742D01*
X197439Y349636D01*
X197587Y349541D01*
X197735Y349457D01*
X197893Y349383D01*
X198052Y349319D01*
X198200Y349267D01*
X198496Y349193D01*
X198622Y349172D01*
X198749Y349150D01*
X198855Y349140D01*
X198950Y349129D01*
X199024Y349119D01*
X199130D01*
X199299Y349129D01*
X199457Y349140D01*
X199764Y349193D01*
X200049Y349267D01*
X200292Y349351D01*
X200397Y349394D01*
X200493Y349425D01*
X200577Y349467D01*
X200651Y349499D01*
X200714Y349531D01*
X200757Y349552D01*
X200778Y349573D01*
X200788D01*
X200926Y349668D01*
X201053Y349763D01*
X201285Y349985D01*
X201475Y350207D01*
X201634Y350439D01*
X201750Y350640D01*
X201803Y350725D01*
X201845Y350809D01*
X201866Y350873D01*
X201887Y350915D01*
X201908Y350947D01*
Y350957D01*
X202025Y351316D01*
X202120Y351686D01*
X202183Y352056D01*
X202204Y352225D01*
X202225Y352394D01*
X202236Y352553D01*
X202247Y352690D01*
X202257Y352817D01*
Y352923D01*
X202268Y353018D01*
Y353081D01*
Y353123D01*
Y353134D01*
X202257Y353493D01*
X202225Y353831D01*
X202173Y354148D01*
X202152Y354296D01*
X202120Y354434D01*
X202088Y354550D01*
X202067Y354666D01*
X202035Y354761D01*
X202014Y354846D01*
X202004Y354909D01*
X201982Y354962D01*
X201972Y354994D01*
Y355004D01*
X201835Y355332D01*
X201676Y355617D01*
X201507Y355860D01*
X201412Y355966D01*
X201327Y356071D01*
X201243Y356156D01*
X201169Y356230D01*
X201095Y356304D01*
X201042Y356357D01*
X200989Y356399D01*
X200947Y356431D01*
X200926Y356441D01*
X200915Y356452D01*
X200767Y356547D01*
X200619Y356631D01*
X200461Y356705D01*
X200302Y356769D01*
X199985Y356864D01*
X199679Y356938D01*
X199552Y356959D01*
X199425Y356970D01*
X199309Y356980D01*
X199214Y356991D01*
X199130Y357001D01*
X198844D01*
X198675Y356980D01*
X198358Y356927D01*
X198083Y356843D01*
X197967Y356800D01*
X197851Y356758D01*
X197745Y356716D01*
X197661Y356674D01*
X197587Y356631D01*
X197523Y356589D01*
X197471Y356558D01*
X197439Y356536D01*
X197418Y356526D01*
X197407Y356515D01*
X197291Y356420D01*
X197175Y356315D01*
X196985Y356071D01*
X196805Y355807D01*
X196667Y355554D01*
X196562Y355321D01*
X196509Y355226D01*
X196477Y355142D01*
X196446Y355068D01*
X196435Y355004D01*
X196414Y354972D01*
Y354962D01*
X195146Y355258D01*
X195231Y355501D01*
X195326Y355733D01*
X195421Y355955D01*
X195537Y356156D01*
X195643Y356346D01*
X195759Y356515D01*
X195875Y356674D01*
X195991Y356811D01*
X196108Y356938D01*
X196203Y357043D01*
X196298Y357139D01*
X196382Y357213D01*
X196446Y357276D01*
X196499Y357318D01*
X196530Y357339D01*
X196541Y357350D01*
X196731Y357487D01*
X196932Y357593D01*
X197132Y357699D01*
X197344Y357783D01*
X197555Y357857D01*
X197756Y357920D01*
X197957Y357963D01*
X198147Y358005D01*
X198326Y358037D01*
X198485Y358058D01*
X198633Y358079D01*
X198760Y358090D01*
X198865Y358100D01*
X199003D01*
X199246Y358090D01*
D02*
G37*
G36*
X186703Y351612D02*
Y350513D01*
X182456D01*
Y348178D01*
X181262D01*
Y350513D01*
X179941D01*
Y351612D01*
X181262D01*
Y357931D01*
X182244D01*
X186703Y351612D01*
D02*
G37*
G36*
X180935Y145868D02*
X181136Y145846D01*
X181326Y145815D01*
X181516Y145772D01*
X181686Y145720D01*
X181844Y145667D01*
X181992Y145603D01*
X182119Y145550D01*
X182246Y145487D01*
X182351Y145424D01*
X182436Y145371D01*
X182520Y145318D01*
X182573Y145276D01*
X182626Y145244D01*
X182647Y145223D01*
X182658Y145212D01*
X182795Y145086D01*
X182922Y144938D01*
X183038Y144790D01*
X183144Y144642D01*
X183239Y144483D01*
X183313Y144335D01*
X183450Y144029D01*
X183503Y143892D01*
X183545Y143765D01*
X183577Y143649D01*
X183609Y143553D01*
X183630Y143469D01*
X183640Y143406D01*
X183651Y143363D01*
Y143353D01*
X182457Y143141D01*
X182393Y143448D01*
X182309Y143712D01*
X182214Y143944D01*
X182108Y144124D01*
X182024Y144272D01*
X181939Y144367D01*
X181886Y144431D01*
X181865Y144452D01*
X181675Y144600D01*
X181485Y144705D01*
X181284Y144790D01*
X181104Y144843D01*
X180935Y144874D01*
X180872Y144885D01*
X180809D01*
X180756Y144895D01*
X180692D01*
X180439Y144874D01*
X180217Y144832D01*
X180016Y144758D01*
X179847Y144684D01*
X179720Y144600D01*
X179625Y144526D01*
X179562Y144483D01*
X179541Y144462D01*
X179456Y144378D01*
X179393Y144293D01*
X179277Y144103D01*
X179192Y143923D01*
X179139Y143754D01*
X179107Y143596D01*
X179097Y143479D01*
X179086Y143427D01*
Y143395D01*
Y143374D01*
Y143363D01*
X179097Y143215D01*
X179118Y143078D01*
X179139Y142941D01*
X179181Y142824D01*
X179287Y142613D01*
X179393Y142444D01*
X179509Y142307D01*
X179615Y142212D01*
X179657Y142180D01*
X179678Y142159D01*
X179699Y142138D01*
X179710D01*
X179942Y142000D01*
X180185Y141905D01*
X180418Y141831D01*
X180629Y141789D01*
X180809Y141757D01*
X180882Y141747D01*
X180956D01*
X181009Y141736D01*
X181147D01*
X181210Y141747D01*
X181263Y141757D01*
X181284D01*
X181411Y140711D01*
X181231Y140753D01*
X181062Y140785D01*
X180925Y140806D01*
X180798Y140827D01*
X180703D01*
X180629Y140838D01*
X180566D01*
X180418Y140827D01*
X180270Y140817D01*
X180005Y140753D01*
X179773Y140669D01*
X179572Y140574D01*
X179414Y140468D01*
X179350Y140426D01*
X179298Y140384D01*
X179255Y140352D01*
X179224Y140320D01*
X179213Y140310D01*
X179202Y140299D01*
X179107Y140193D01*
X179023Y140088D01*
X178949Y139982D01*
X178885Y139866D01*
X178790Y139644D01*
X178716Y139422D01*
X178685Y139232D01*
X178674Y139158D01*
X178664Y139084D01*
X178653Y139031D01*
Y138978D01*
Y138957D01*
Y138947D01*
X178664Y138788D01*
X178674Y138640D01*
X178748Y138355D01*
X178833Y138112D01*
X178938Y137900D01*
X179002Y137805D01*
X179055Y137731D01*
X179097Y137657D01*
X179139Y137605D01*
X179181Y137562D01*
X179213Y137531D01*
X179224Y137509D01*
X179234Y137499D01*
X179350Y137393D01*
X179467Y137309D01*
X179583Y137235D01*
X179699Y137161D01*
X179942Y137055D01*
X180175Y136992D01*
X180365Y136950D01*
X180460Y136939D01*
X180523Y136928D01*
X180587Y136918D01*
X180671D01*
X180925Y136939D01*
X181168Y136992D01*
X181369Y137055D01*
X181548Y137140D01*
X181696Y137224D01*
X181802Y137288D01*
X181833Y137319D01*
X181865Y137340D01*
X181876Y137362D01*
X181886D01*
X181971Y137457D01*
X182055Y137552D01*
X182203Y137774D01*
X182320Y138017D01*
X182415Y138260D01*
X182489Y138482D01*
X182510Y138577D01*
X182531Y138661D01*
X182552Y138735D01*
X182563Y138788D01*
X182573Y138820D01*
Y138830D01*
X183767Y138672D01*
X183736Y138450D01*
X183693Y138239D01*
X183630Y138038D01*
X183566Y137848D01*
X183492Y137668D01*
X183408Y137509D01*
X183323Y137351D01*
X183239Y137224D01*
X183154Y137097D01*
X183080Y136992D01*
X183006Y136897D01*
X182943Y136823D01*
X182880Y136759D01*
X182837Y136717D01*
X182816Y136696D01*
X182806Y136685D01*
X182647Y136548D01*
X182467Y136432D01*
X182298Y136337D01*
X182119Y136242D01*
X181939Y136168D01*
X181760Y136115D01*
X181590Y136062D01*
X181421Y136020D01*
X181263Y135988D01*
X181126Y135967D01*
X180999Y135946D01*
X180882Y135935D01*
X180798D01*
X180724Y135925D01*
X180671D01*
X180407Y135935D01*
X180164Y135967D01*
X179932Y136009D01*
X179710Y136062D01*
X179498Y136125D01*
X179308Y136199D01*
X179128Y136284D01*
X178970Y136368D01*
X178822Y136442D01*
X178695Y136527D01*
X178579Y136601D01*
X178494Y136664D01*
X178421Y136717D01*
X178368Y136759D01*
X178336Y136791D01*
X178326Y136802D01*
X178156Y136971D01*
X178019Y137150D01*
X177892Y137330D01*
X177787Y137520D01*
X177691Y137700D01*
X177617Y137879D01*
X177554Y138048D01*
X177501Y138217D01*
X177459Y138376D01*
X177438Y138513D01*
X177417Y138640D01*
X177396Y138756D01*
Y138841D01*
X177385Y138915D01*
Y138957D01*
Y138968D01*
Y139137D01*
X177406Y139306D01*
X177459Y139612D01*
X177544Y139876D01*
X177586Y139993D01*
X177628Y140098D01*
X177670Y140204D01*
X177713Y140288D01*
X177755Y140362D01*
X177797Y140415D01*
X177829Y140468D01*
X177850Y140500D01*
X177861Y140521D01*
X177871Y140532D01*
X178061Y140753D01*
X178283Y140933D01*
X178505Y141070D01*
X178716Y141187D01*
X178917Y141271D01*
X179002Y141303D01*
X179065Y141324D01*
X179128Y141345D01*
X179171Y141356D01*
X179202Y141366D01*
X179213D01*
X178981Y141493D01*
X178780Y141620D01*
X178600Y141757D01*
X178463Y141895D01*
X178347Y142011D01*
X178273Y142106D01*
X178220Y142169D01*
X178209Y142180D01*
Y142190D01*
X178093Y142391D01*
X178008Y142592D01*
X177945Y142782D01*
X177903Y142962D01*
X177882Y143110D01*
X177861Y143237D01*
Y143279D01*
Y143310D01*
Y143332D01*
Y143342D01*
X177871Y143585D01*
X177913Y143818D01*
X177977Y144029D01*
X178040Y144219D01*
X178104Y144378D01*
X178135Y144441D01*
X178167Y144494D01*
X178188Y144536D01*
X178209Y144578D01*
X178220Y144589D01*
Y144600D01*
X178368Y144811D01*
X178537Y144991D01*
X178706Y145149D01*
X178875Y145286D01*
X179023Y145392D01*
X179139Y145466D01*
X179192Y145498D01*
X179224Y145519D01*
X179245Y145529D01*
X179255D01*
X179509Y145646D01*
X179762Y145730D01*
X180016Y145794D01*
X180238Y145836D01*
X180439Y145857D01*
X180513Y145868D01*
X180587Y145878D01*
X180724D01*
X180935Y145868D01*
D02*
G37*
G36*
X188374D02*
X188617Y145846D01*
X188839Y145815D01*
X189050Y145762D01*
X189251Y145709D01*
X189431Y145646D01*
X189600Y145582D01*
X189748Y145519D01*
X189885Y145445D01*
X190001Y145381D01*
X190107Y145318D01*
X190191Y145265D01*
X190255Y145212D01*
X190297Y145181D01*
X190329Y145160D01*
X190340Y145149D01*
X190487Y145012D01*
X190614Y144853D01*
X190730Y144695D01*
X190836Y144515D01*
X190921Y144346D01*
X191005Y144177D01*
X191069Y143997D01*
X191121Y143839D01*
X191174Y143680D01*
X191206Y143532D01*
X191238Y143395D01*
X191259Y143279D01*
X191269Y143184D01*
X191280Y143120D01*
X191290Y143078D01*
Y143057D01*
X190065Y142930D01*
X190054Y143099D01*
X190044Y143258D01*
X189980Y143532D01*
X189896Y143786D01*
X189853Y143892D01*
X189801Y143987D01*
X189758Y144071D01*
X189706Y144145D01*
X189663Y144209D01*
X189632Y144261D01*
X189589Y144304D01*
X189568Y144335D01*
X189558Y144346D01*
X189547Y144356D01*
X189441Y144452D01*
X189336Y144536D01*
X189219Y144600D01*
X189103Y144663D01*
X188871Y144758D01*
X188649Y144822D01*
X188459Y144853D01*
X188374Y144874D01*
X188300D01*
X188237Y144885D01*
X188004D01*
X187856Y144864D01*
X187592Y144811D01*
X187370Y144726D01*
X187170Y144642D01*
X187022Y144547D01*
X186958Y144504D01*
X186905Y144462D01*
X186863Y144431D01*
X186831Y144409D01*
X186821Y144399D01*
X186810Y144388D01*
X186715Y144293D01*
X186641Y144198D01*
X186567Y144103D01*
X186514Y143997D01*
X186419Y143797D01*
X186356Y143606D01*
X186324Y143448D01*
X186303Y143374D01*
Y143310D01*
X186292Y143268D01*
Y143226D01*
Y143205D01*
Y143194D01*
X186303Y143067D01*
X186314Y142941D01*
X186377Y142687D01*
X186472Y142444D01*
X186578Y142222D01*
X186684Y142032D01*
X186726Y141958D01*
X186779Y141884D01*
X186810Y141831D01*
X186842Y141789D01*
X186853Y141768D01*
X186863Y141757D01*
X186979Y141609D01*
X187117Y141451D01*
X187275Y141282D01*
X187444Y141113D01*
X187793Y140764D01*
X188152Y140436D01*
X188321Y140278D01*
X188490Y140140D01*
X188638Y140014D01*
X188765Y139908D01*
X188871Y139813D01*
X188945Y139750D01*
X188997Y139697D01*
X189019Y139686D01*
X189209Y139528D01*
X189378Y139380D01*
X189547Y139242D01*
X189695Y139105D01*
X189843Y138978D01*
X189970Y138851D01*
X190086Y138746D01*
X190191Y138640D01*
X190287Y138545D01*
X190361Y138461D01*
X190435Y138386D01*
X190487Y138334D01*
X190540Y138281D01*
X190572Y138249D01*
X190583Y138228D01*
X190593Y138217D01*
X190783Y137985D01*
X190942Y137753D01*
X191079Y137531D01*
X191185Y137330D01*
X191269Y137161D01*
X191301Y137087D01*
X191333Y137034D01*
X191354Y136981D01*
X191364Y136950D01*
X191375Y136928D01*
Y136918D01*
X191428Y136770D01*
X191460Y136622D01*
X191491Y136485D01*
X191502Y136358D01*
X191512Y136252D01*
Y136168D01*
Y136115D01*
Y136094D01*
X185056D01*
Y137245D01*
X189864D01*
X189695Y137478D01*
X189610Y137584D01*
X189526Y137679D01*
X189452Y137763D01*
X189399Y137826D01*
X189357Y137869D01*
X189346Y137879D01*
X189283Y137943D01*
X189198Y138027D01*
X189103Y138112D01*
X188997Y138207D01*
X188776Y138418D01*
X188543Y138619D01*
X188321Y138809D01*
X188226Y138894D01*
X188131Y138968D01*
X188068Y139031D01*
X188004Y139073D01*
X187973Y139105D01*
X187962Y139116D01*
X187730Y139316D01*
X187508Y139507D01*
X187307Y139676D01*
X187127Y139845D01*
X186958Y139993D01*
X186810Y140140D01*
X186673Y140267D01*
X186546Y140384D01*
X186441Y140479D01*
X186356Y140574D01*
X186282Y140648D01*
X186219Y140711D01*
X186176Y140764D01*
X186134Y140796D01*
X186124Y140817D01*
X186113Y140827D01*
X185912Y141060D01*
X185754Y141271D01*
X185616Y141472D01*
X185500Y141651D01*
X185415Y141799D01*
X185352Y141916D01*
X185331Y141958D01*
X185320Y141990D01*
X185310Y142000D01*
Y142011D01*
X185225Y142222D01*
X185173Y142433D01*
X185130Y142624D01*
X185098Y142803D01*
X185077Y142951D01*
X185067Y143067D01*
Y143110D01*
Y143141D01*
Y143152D01*
Y143162D01*
X185077Y143374D01*
X185098Y143575D01*
X185141Y143765D01*
X185194Y143955D01*
X185257Y144124D01*
X185331Y144283D01*
X185405Y144431D01*
X185479Y144557D01*
X185553Y144684D01*
X185627Y144790D01*
X185701Y144885D01*
X185764Y144959D01*
X185817Y145012D01*
X185859Y145064D01*
X185881Y145086D01*
X185891Y145096D01*
X186049Y145233D01*
X186219Y145350D01*
X186398Y145455D01*
X186588Y145550D01*
X186768Y145625D01*
X186958Y145688D01*
X187138Y145741D01*
X187318Y145783D01*
X187476Y145815D01*
X187635Y145836D01*
X187772Y145857D01*
X187888Y145868D01*
X187983Y145878D01*
X188120D01*
X188374Y145868D01*
D02*
G37*
G36*
X196722Y146005D02*
X196954Y145994D01*
X197387Y145920D01*
X197599Y145878D01*
X197789Y145825D01*
X197979Y145772D01*
X198148Y145720D01*
X198296Y145667D01*
X198433Y145614D01*
X198560Y145561D01*
X198655Y145519D01*
X198740Y145477D01*
X198793Y145445D01*
X198835Y145434D01*
X198845Y145424D01*
X199036Y145308D01*
X199226Y145181D01*
X199395Y145043D01*
X199553Y144906D01*
X199701Y144758D01*
X199839Y144621D01*
X199955Y144473D01*
X200071Y144346D01*
X200166Y144209D01*
X200251Y144092D01*
X200325Y143987D01*
X200388Y143892D01*
X200430Y143807D01*
X200462Y143754D01*
X200483Y143712D01*
X200494Y143701D01*
X200599Y143490D01*
X200684Y143258D01*
X200758Y143036D01*
X200832Y142814D01*
X200938Y142360D01*
X200969Y142148D01*
X201001Y141947D01*
X201022Y141757D01*
X201043Y141588D01*
X201054Y141430D01*
X201064Y141292D01*
X201075Y141187D01*
Y141102D01*
Y141060D01*
Y141039D01*
X201064Y140785D01*
X201054Y140532D01*
X200990Y140045D01*
X200959Y139813D01*
X200916Y139602D01*
X200864Y139401D01*
X200821Y139211D01*
X200769Y139042D01*
X200726Y138883D01*
X200684Y138756D01*
X200642Y138640D01*
X200610Y138556D01*
X200589Y138482D01*
X200578Y138439D01*
X200568Y138429D01*
X200462Y138207D01*
X200356Y137996D01*
X200240Y137805D01*
X200113Y137626D01*
X199987Y137457D01*
X199870Y137309D01*
X199744Y137171D01*
X199627Y137045D01*
X199511Y136928D01*
X199405Y136833D01*
X199310Y136759D01*
X199226Y136685D01*
X199162Y136632D01*
X199110Y136601D01*
X199078Y136580D01*
X199067Y136569D01*
X198877Y136453D01*
X198676Y136358D01*
X198465Y136273D01*
X198243Y136199D01*
X198032Y136146D01*
X197820Y136094D01*
X197609Y136051D01*
X197408Y136020D01*
X197218Y135988D01*
X197049Y135967D01*
X196891Y135956D01*
X196764Y135946D01*
X196648Y135935D01*
X196500D01*
X196214Y135946D01*
X195950Y135967D01*
X195697Y136009D01*
X195454Y136062D01*
X195221Y136125D01*
X195010Y136199D01*
X194820Y136273D01*
X194640Y136347D01*
X194471Y136421D01*
X194334Y136495D01*
X194207Y136569D01*
X194112Y136632D01*
X194027Y136685D01*
X193974Y136728D01*
X193932Y136749D01*
X193922Y136759D01*
X193731Y136928D01*
X193552Y137108D01*
X193393Y137298D01*
X193245Y137488D01*
X193108Y137689D01*
X192992Y137900D01*
X192886Y138091D01*
X192791Y138291D01*
X192706Y138471D01*
X192643Y138640D01*
X192579Y138799D01*
X192537Y138925D01*
X192495Y139042D01*
X192474Y139116D01*
X192453Y139168D01*
Y139190D01*
X193742Y139517D01*
X193795Y139295D01*
X193869Y139084D01*
X193943Y138883D01*
X194017Y138703D01*
X194101Y138534D01*
X194186Y138386D01*
X194270Y138249D01*
X194355Y138122D01*
X194439Y138017D01*
X194513Y137922D01*
X194587Y137837D01*
X194640Y137774D01*
X194693Y137721D01*
X194735Y137689D01*
X194756Y137668D01*
X194767Y137657D01*
X194915Y137552D01*
X195063Y137457D01*
X195211Y137372D01*
X195369Y137298D01*
X195528Y137235D01*
X195676Y137182D01*
X195971Y137108D01*
X196098Y137087D01*
X196225Y137066D01*
X196331Y137055D01*
X196426Y137045D01*
X196500Y137034D01*
X196605D01*
X196774Y137045D01*
X196933Y137055D01*
X197239Y137108D01*
X197525Y137182D01*
X197768Y137267D01*
X197873Y137309D01*
X197968Y137340D01*
X198053Y137383D01*
X198127Y137414D01*
X198190Y137446D01*
X198233Y137467D01*
X198254Y137488D01*
X198264D01*
X198402Y137584D01*
X198528Y137679D01*
X198761Y137900D01*
X198951Y138122D01*
X199110Y138355D01*
X199226Y138556D01*
X199279Y138640D01*
X199321Y138725D01*
X199342Y138788D01*
X199363Y138830D01*
X199384Y138862D01*
Y138873D01*
X199501Y139232D01*
X199596Y139602D01*
X199659Y139972D01*
X199680Y140140D01*
X199701Y140310D01*
X199712Y140468D01*
X199722Y140605D01*
X199733Y140732D01*
Y140838D01*
X199744Y140933D01*
Y140996D01*
Y141039D01*
Y141049D01*
X199733Y141409D01*
X199701Y141747D01*
X199648Y142064D01*
X199627Y142212D01*
X199596Y142349D01*
X199564Y142465D01*
X199543Y142581D01*
X199511Y142676D01*
X199490Y142761D01*
X199479Y142824D01*
X199458Y142877D01*
X199448Y142909D01*
Y142920D01*
X199310Y143247D01*
X199152Y143532D01*
X198983Y143775D01*
X198888Y143881D01*
X198803Y143987D01*
X198719Y144071D01*
X198645Y144145D01*
X198571Y144219D01*
X198518Y144272D01*
X198465Y144314D01*
X198423Y144346D01*
X198402Y144356D01*
X198391Y144367D01*
X198243Y144462D01*
X198095Y144547D01*
X197937Y144621D01*
X197778Y144684D01*
X197461Y144779D01*
X197155Y144853D01*
X197028Y144874D01*
X196901Y144885D01*
X196785Y144895D01*
X196690Y144906D01*
X196605Y144917D01*
X196320D01*
X196151Y144895D01*
X195834Y144843D01*
X195559Y144758D01*
X195443Y144716D01*
X195327Y144674D01*
X195221Y144631D01*
X195137Y144589D01*
X195063Y144547D01*
X194999Y144504D01*
X194946Y144473D01*
X194915Y144452D01*
X194894Y144441D01*
X194883Y144431D01*
X194767Y144335D01*
X194651Y144230D01*
X194460Y143987D01*
X194281Y143722D01*
X194143Y143469D01*
X194038Y143237D01*
X193985Y143141D01*
X193953Y143057D01*
X193922Y142983D01*
X193911Y142920D01*
X193890Y142888D01*
Y142877D01*
X192622Y143173D01*
X192706Y143416D01*
X192801Y143649D01*
X192896Y143870D01*
X193013Y144071D01*
X193118Y144261D01*
X193235Y144431D01*
X193351Y144589D01*
X193467Y144726D01*
X193583Y144853D01*
X193678Y144959D01*
X193774Y145054D01*
X193858Y145128D01*
X193922Y145191D01*
X193974Y145233D01*
X194006Y145255D01*
X194017Y145265D01*
X194207Y145403D01*
X194408Y145508D01*
X194608Y145614D01*
X194820Y145698D01*
X195031Y145772D01*
X195232Y145836D01*
X195432Y145878D01*
X195623Y145920D01*
X195802Y145952D01*
X195961Y145973D01*
X196109Y145994D01*
X196236Y146005D01*
X196341Y146016D01*
X196479D01*
X196722Y146005D01*
D02*
G37*
%LPC*%
G36*
X442155Y331086D02*
X439414D01*
X439264Y331068D01*
X439123Y331051D01*
X438991Y331024D01*
X438876Y330998D01*
X438770Y330963D01*
X438673Y330936D01*
X438585Y330901D01*
X438506Y330866D01*
X438444Y330830D01*
X438382Y330795D01*
X438338Y330769D01*
X438303Y330742D01*
X438277Y330725D01*
X438268Y330716D01*
X438259Y330707D01*
X438189Y330637D01*
X438118Y330557D01*
X438012Y330407D01*
X437942Y330249D01*
X437889Y330099D01*
X437854Y329967D01*
X437845Y329905D01*
Y329861D01*
X437836Y329817D01*
Y329790D01*
Y329773D01*
Y329764D01*
X437845Y329623D01*
X437871Y329482D01*
X437906Y329359D01*
X437942Y329253D01*
X437986Y329156D01*
X438021Y329094D01*
X438047Y329050D01*
X438056Y329033D01*
X438144Y328918D01*
X438250Y328812D01*
X438356Y328733D01*
X438453Y328662D01*
X438550Y328610D01*
X438620Y328574D01*
X438673Y328557D01*
X438682Y328548D01*
X438691D01*
X438858Y328495D01*
X439043Y328460D01*
X439237Y328433D01*
X439422Y328415D01*
X439590Y328407D01*
X439660D01*
X439722Y328398D01*
X442155D01*
Y331086D01*
D02*
G37*
G36*
X403254Y331157D02*
X401377D01*
X401218Y331148D01*
X401069Y331139D01*
X400928Y331130D01*
X400804Y331121D01*
X400690Y331104D01*
X400584Y331086D01*
X400496Y331077D01*
X400416Y331060D01*
X400346Y331042D01*
X400293Y331024D01*
X400240Y331016D01*
X400205Y331007D01*
X400178Y330998D01*
X400170Y330989D01*
X400161D01*
X400046Y330936D01*
X399940Y330883D01*
X399747Y330742D01*
X399570Y330593D01*
X399420Y330434D01*
X399306Y330293D01*
X399253Y330231D01*
X399218Y330178D01*
X399182Y330125D01*
X399156Y330090D01*
X399147Y330073D01*
X399138Y330064D01*
X399068Y329931D01*
X398997Y329782D01*
X398892Y329473D01*
X398821Y329147D01*
X398768Y328830D01*
X398751Y328680D01*
X398733Y328548D01*
X398724Y328424D01*
Y328319D01*
X398715Y328231D01*
Y328160D01*
Y328125D01*
Y328107D01*
X398724Y327772D01*
X398751Y327472D01*
X398768Y327332D01*
X398786Y327208D01*
X398803Y327085D01*
X398821Y326979D01*
X398848Y326882D01*
X398865Y326794D01*
X398883Y326715D01*
X398900Y326653D01*
X398918Y326600D01*
X398927Y326565D01*
X398936Y326547D01*
Y326538D01*
X399024Y326309D01*
X399121Y326106D01*
X399218Y325930D01*
X399306Y325780D01*
X399394Y325666D01*
X399464Y325578D01*
X399509Y325525D01*
X399517Y325516D01*
X399526Y325507D01*
X399632Y325410D01*
X399755Y325322D01*
X399879Y325251D01*
X399993Y325190D01*
X400099Y325146D01*
X400178Y325110D01*
X400214Y325102D01*
X400240Y325093D01*
X400249Y325084D01*
X400258D01*
X400443Y325040D01*
X400645Y325005D01*
X400857Y324978D01*
X401060Y324961D01*
X401236Y324952D01*
X401315D01*
X401386Y324943D01*
X403254D01*
Y331157D01*
D02*
G37*
G36*
X221644Y289247D02*
X219767D01*
X219608Y289238D01*
X219459Y289229D01*
X219318Y289220D01*
X219194Y289211D01*
X219080Y289194D01*
X218974Y289176D01*
X218886Y289167D01*
X218806Y289150D01*
X218736Y289132D01*
X218683Y289114D01*
X218630Y289106D01*
X218595Y289097D01*
X218568Y289088D01*
X218560Y289079D01*
X218551D01*
X218436Y289026D01*
X218330Y288973D01*
X218137Y288832D01*
X217960Y288683D01*
X217810Y288524D01*
X217696Y288383D01*
X217643Y288321D01*
X217608Y288268D01*
X217572Y288215D01*
X217546Y288180D01*
X217537Y288162D01*
X217528Y288154D01*
X217458Y288022D01*
X217387Y287872D01*
X217282Y287563D01*
X217211Y287237D01*
X217158Y286920D01*
X217141Y286770D01*
X217123Y286638D01*
X217114Y286514D01*
Y286409D01*
X217105Y286320D01*
Y286250D01*
Y286215D01*
Y286197D01*
X217114Y285862D01*
X217141Y285562D01*
X217158Y285422D01*
X217176Y285298D01*
X217193Y285175D01*
X217211Y285069D01*
X217237Y284972D01*
X217255Y284884D01*
X217273Y284804D01*
X217290Y284743D01*
X217308Y284690D01*
X217317Y284655D01*
X217326Y284637D01*
Y284628D01*
X217414Y284399D01*
X217511Y284196D01*
X217608Y284020D01*
X217696Y283870D01*
X217784Y283756D01*
X217854Y283668D01*
X217899Y283615D01*
X217907Y283606D01*
X217916Y283597D01*
X218022Y283500D01*
X218145Y283412D01*
X218269Y283341D01*
X218383Y283280D01*
X218489Y283236D01*
X218568Y283200D01*
X218604Y283192D01*
X218630Y283183D01*
X218639Y283174D01*
X218648D01*
X218833Y283130D01*
X219035Y283095D01*
X219247Y283068D01*
X219450Y283050D01*
X219626Y283042D01*
X219705D01*
X219776Y283033D01*
X221644D01*
Y289247D01*
D02*
G37*
G36*
X183075Y289176D02*
X180334D01*
X180184Y289158D01*
X180043Y289141D01*
X179911Y289114D01*
X179796Y289088D01*
X179690Y289053D01*
X179593Y289026D01*
X179505Y288991D01*
X179426Y288956D01*
X179364Y288920D01*
X179302Y288885D01*
X179258Y288859D01*
X179223Y288832D01*
X179197Y288815D01*
X179188Y288806D01*
X179179Y288797D01*
X179109Y288727D01*
X179038Y288647D01*
X178932Y288498D01*
X178862Y288339D01*
X178809Y288189D01*
X178774Y288057D01*
X178765Y287995D01*
Y287951D01*
X178756Y287907D01*
Y287880D01*
Y287863D01*
Y287854D01*
X178765Y287713D01*
X178791Y287572D01*
X178827Y287449D01*
X178862Y287343D01*
X178906Y287246D01*
X178941Y287184D01*
X178967Y287140D01*
X178976Y287122D01*
X179064Y287008D01*
X179170Y286902D01*
X179276Y286823D01*
X179373Y286752D01*
X179470Y286700D01*
X179540Y286664D01*
X179593Y286647D01*
X179602Y286638D01*
X179611D01*
X179778Y286585D01*
X179963Y286550D01*
X180157Y286523D01*
X180342Y286506D01*
X180510Y286497D01*
X180580D01*
X180642Y286488D01*
X183075D01*
Y289176D01*
D02*
G37*
G36*
X698920Y323040D02*
X698846D01*
X698698Y323029D01*
X698550Y323018D01*
X698286Y322944D01*
X698054Y322849D01*
X697853Y322744D01*
X697694Y322638D01*
X697631Y322585D01*
X697578Y322543D01*
X697536Y322501D01*
X697504Y322469D01*
X697494Y322458D01*
X697483Y322448D01*
X697388Y322332D01*
X697304Y322215D01*
X697230Y322089D01*
X697166Y321951D01*
X697071Y321687D01*
X697008Y321433D01*
X696987Y321317D01*
X696976Y321212D01*
X696965Y321117D01*
X696955Y321032D01*
X696944Y320958D01*
Y320905D01*
Y320873D01*
Y320863D01*
X696955Y320673D01*
X696965Y320493D01*
X696997Y320313D01*
X697029Y320155D01*
X697071Y320007D01*
X697113Y319870D01*
X697166Y319743D01*
X697219Y319637D01*
X697272Y319532D01*
X697325Y319447D01*
X697367Y319373D01*
X697409Y319310D01*
X697441Y319257D01*
X697473Y319225D01*
X697483Y319204D01*
X697494Y319193D01*
X697599Y319088D01*
X697705Y318993D01*
X697811Y318919D01*
X697927Y318845D01*
X698033Y318792D01*
X698149Y318739D01*
X698350Y318665D01*
X698529Y318623D01*
X698603Y318612D01*
X698677Y318602D01*
X698730Y318591D01*
X698804D01*
X698994Y318602D01*
X699184Y318633D01*
X699353Y318686D01*
X699501Y318739D01*
X699628Y318792D01*
X699723Y318845D01*
X699787Y318876D01*
X699797Y318887D01*
X699808D01*
X699977Y319014D01*
X700114Y319151D01*
X700241Y319289D01*
X700347Y319426D01*
X700431Y319553D01*
X700484Y319648D01*
X700505Y319690D01*
X700526Y319722D01*
X700537Y319732D01*
Y319743D01*
X700621Y319954D01*
X700685Y320166D01*
X700727Y320366D01*
X700759Y320546D01*
X700780Y320704D01*
Y320768D01*
X700790Y320821D01*
Y320863D01*
Y320895D01*
Y320916D01*
Y320926D01*
X700780Y321095D01*
X700769Y321264D01*
X700706Y321560D01*
X700611Y321824D01*
X700558Y321941D01*
X700505Y322036D01*
X700463Y322131D01*
X700410Y322215D01*
X700357Y322289D01*
X700315Y322342D01*
X700283Y322384D01*
X700252Y322416D01*
X700241Y322437D01*
X700230Y322448D01*
X700125Y322554D01*
X700009Y322649D01*
X699892Y322723D01*
X699776Y322786D01*
X699544Y322892D01*
X699322Y322966D01*
X699131Y323008D01*
X699047Y323018D01*
X698984Y323029D01*
X698920Y323040D01*
D02*
G37*
G36*
X127020Y216317D02*
X126777D01*
X126598Y216295D01*
X126270Y216243D01*
X125974Y216158D01*
X125847Y216116D01*
X125721Y216073D01*
X125604Y216021D01*
X125509Y215978D01*
X125425Y215936D01*
X125351Y215894D01*
X125287Y215862D01*
X125245Y215841D01*
X125224Y215830D01*
X125213Y215820D01*
X124939Y215619D01*
X124706Y215397D01*
X124506Y215175D01*
X124337Y214953D01*
X124210Y214753D01*
X124157Y214668D01*
X124115Y214594D01*
X124083Y214531D01*
X124062Y214489D01*
X124041Y214457D01*
Y214446D01*
X123903Y214108D01*
X123798Y213759D01*
X123724Y213411D01*
X123681Y213083D01*
X123660Y212946D01*
X123650Y212808D01*
X123639Y212692D01*
Y212587D01*
X123629Y212502D01*
Y212439D01*
Y212396D01*
Y212386D01*
X123639Y212006D01*
X123681Y211657D01*
X123734Y211329D01*
X123808Y211023D01*
X123893Y210737D01*
X123988Y210484D01*
X124093Y210251D01*
X124199Y210051D01*
X124305Y209860D01*
X124410Y209702D01*
X124506Y209575D01*
X124590Y209459D01*
X124664Y209374D01*
X124717Y209322D01*
X124759Y209279D01*
X124770Y209269D01*
X125055Y209480D01*
X125361Y209670D01*
X125678Y209829D01*
X125964Y209966D01*
X126101Y210019D01*
X126228Y210061D01*
X126334Y210103D01*
X126429Y210135D01*
X126513Y210167D01*
X126566Y210188D01*
X126608Y210199D01*
X126619D01*
X126925Y209258D01*
X126682Y209184D01*
X126439Y209100D01*
X126228Y209005D01*
X126038Y208920D01*
X125879Y208836D01*
X125805Y208793D01*
X125752Y208762D01*
X125710Y208741D01*
X125678Y208719D01*
X125657Y208698D01*
X125647D01*
X125879Y208614D01*
X126112Y208550D01*
X126334Y208508D01*
X126534Y208476D01*
X126703Y208455D01*
X126777D01*
X126841Y208445D01*
X126957D01*
X127221Y208455D01*
X127475Y208487D01*
X127718Y208540D01*
X127950Y208603D01*
X128161Y208677D01*
X128352Y208762D01*
X128542Y208857D01*
X128700Y208952D01*
X128848Y209047D01*
X128986Y209142D01*
X129091Y209226D01*
X129186Y209300D01*
X129260Y209364D01*
X129313Y209417D01*
X129345Y209448D01*
X129355Y209459D01*
X129525Y209660D01*
X129662Y209871D01*
X129789Y210103D01*
X129894Y210347D01*
X129990Y210590D01*
X130063Y210833D01*
X130127Y211065D01*
X130180Y211297D01*
X130222Y211519D01*
X130243Y211720D01*
X130264Y211900D01*
X130285Y212058D01*
Y212196D01*
X130296Y212291D01*
Y212354D01*
Y212375D01*
X130285Y212735D01*
X130254Y213062D01*
X130211Y213379D01*
X130148Y213664D01*
X130074Y213929D01*
X129990Y214172D01*
X129905Y214394D01*
X129820Y214584D01*
X129736Y214763D01*
X129641Y214911D01*
X129567Y215038D01*
X129493Y215144D01*
X129430Y215218D01*
X129387Y215281D01*
X129355Y215313D01*
X129345Y215323D01*
X129165Y215503D01*
X128965Y215651D01*
X128774Y215788D01*
X128574Y215894D01*
X128373Y215989D01*
X128172Y216073D01*
X127982Y216137D01*
X127792Y216190D01*
X127623Y216232D01*
X127464Y216264D01*
X127316Y216285D01*
X127200Y216306D01*
X127094D01*
X127020Y216317D01*
D02*
G37*
G36*
X273543Y263141D02*
X269147D01*
Y260066D01*
X273543Y263141D01*
D02*
G37*
G36*
X388867Y372501D02*
X388793D01*
X388645Y372490D01*
X388497Y372480D01*
X388233Y372406D01*
X388000Y372311D01*
X387799Y372205D01*
X387641Y372099D01*
X387578Y372047D01*
X387525Y372004D01*
X387482Y371962D01*
X387451Y371930D01*
X387440Y371920D01*
X387430Y371909D01*
X387335Y371793D01*
X387250Y371677D01*
X387176Y371550D01*
X387113Y371413D01*
X387018Y371148D01*
X386954Y370895D01*
X386933Y370779D01*
X386922Y370673D01*
X386912Y370578D01*
X386901Y370493D01*
X386891Y370419D01*
Y370367D01*
Y370335D01*
Y370324D01*
X386901Y370134D01*
X386912Y369954D01*
X386944Y369775D01*
X386975Y369616D01*
X387018Y369468D01*
X387060Y369331D01*
X387113Y369204D01*
X387165Y369099D01*
X387218Y368993D01*
X387271Y368908D01*
X387313Y368834D01*
X387356Y368771D01*
X387387Y368718D01*
X387419Y368686D01*
X387430Y368665D01*
X387440Y368655D01*
X387546Y368549D01*
X387651Y368454D01*
X387757Y368380D01*
X387873Y368306D01*
X387979Y368253D01*
X388095Y368200D01*
X388296Y368126D01*
X388476Y368084D01*
X388550Y368074D01*
X388624Y368063D01*
X388676Y368052D01*
X388750D01*
X388941Y368063D01*
X389131Y368095D01*
X389300Y368148D01*
X389448Y368200D01*
X389575Y368253D01*
X389670Y368306D01*
X389733Y368338D01*
X389744Y368348D01*
X389754D01*
X389923Y368475D01*
X390061Y368613D01*
X390187Y368750D01*
X390293Y368887D01*
X390378Y369014D01*
X390430Y369109D01*
X390452Y369151D01*
X390473Y369183D01*
X390483Y369194D01*
Y369204D01*
X390568Y369416D01*
X390631Y369627D01*
X390673Y369828D01*
X390705Y370007D01*
X390726Y370166D01*
Y370229D01*
X390737Y370282D01*
Y370324D01*
Y370356D01*
Y370377D01*
Y370388D01*
X390726Y370557D01*
X390716Y370726D01*
X390652Y371022D01*
X390557Y371286D01*
X390504Y371402D01*
X390452Y371497D01*
X390409Y371592D01*
X390356Y371677D01*
X390304Y371751D01*
X390261Y371804D01*
X390230Y371846D01*
X390198Y371878D01*
X390187Y371899D01*
X390177Y371909D01*
X390071Y372015D01*
X389955Y372110D01*
X389839Y372184D01*
X389723Y372247D01*
X389490Y372353D01*
X389268Y372427D01*
X389078Y372469D01*
X388993Y372480D01*
X388930Y372490D01*
X388867Y372501D01*
D02*
G37*
G36*
X182456Y356008D02*
Y351612D01*
X185530D01*
X182456Y356008D01*
D02*
G37*
%LPD*%
D13*
X115588Y142339D02*
G03*
X115588Y142339I-1999J0D01*
G01*
D14*
X414655Y350266D02*
Y363474D01*
X380365Y350266D02*
Y363474D01*
Y350266D02*
X392938D01*
X380365Y363474D02*
X392938D01*
X402082Y350266D02*
X414655D01*
X402082Y363474D02*
X414655D01*
X173355Y149606D02*
Y162814D01*
X207645Y149606D02*
Y162814D01*
X195072D02*
X207645D01*
X195072Y149606D02*
X207645D01*
X173355Y162814D02*
X185928D01*
X173355Y149606D02*
X185928D01*
X203835Y329946D02*
Y343154D01*
X169545Y329946D02*
Y343154D01*
Y329946D02*
X182118D01*
X169545Y343154D02*
X182118D01*
X191262Y329946D02*
X203835D01*
X191262Y343154D02*
X203835D01*
D18*
X394970Y356870D02*
X396240D01*
X398780D02*
X400050D01*
X398780Y354330D02*
Y359410D01*
X396240Y354330D02*
Y359410D01*
X59228Y211352D02*
X61335D01*
X59228Y149328D02*
Y211352D01*
Y149328D02*
X61335D01*
X108845Y211352D02*
X110952D01*
Y149328D02*
Y211352D01*
X108845Y149328D02*
X110952D01*
X191770Y156210D02*
X193040D01*
X187960D02*
X189230D01*
Y153670D02*
Y158750D01*
X191770Y153670D02*
Y158750D01*
X184150Y336550D02*
X185420D01*
X187960D02*
X189230D01*
X187960Y334010D02*
Y339090D01*
X185420Y334010D02*
Y339090D01*
M02*
