G04*
G04 #@! TF.GenerationSoftware,Altium Limited,Altium Designer,24.0.1 (36)*
G04*
G04 Layer_Color=2752767*
%FSLAX44Y44*%
%MOMM*%
G71*
G04*
G04 #@! TF.SameCoordinates,72622C8A-B07E-4F55-B3FE-632304D3AF33*
G04*
G04*
G04 #@! TF.FilePolarity,Positive*
G04*
G01*
G75*
%ADD121C,0.1270*%
%ADD122C,0.1693*%
D121*
X19920Y369920D02*
X22460Y375000D01*
X19920Y380080D01*
X25000Y377540D01*
X30080Y380080D01*
X27540Y375000D01*
X30080Y369920D01*
X25000Y372460D01*
X19920Y369920D01*
Y19920D02*
X22460Y25000D01*
X19920Y30080D01*
X25000Y27540D01*
X30080Y30080D01*
X27540Y25000D01*
X30080Y19920D01*
X25000Y22460D01*
X19920Y19920D01*
X69850Y40640D02*
Y38100D01*
X74930D01*
Y40640D01*
X77470D01*
Y45720D01*
X74930D01*
Y48260D01*
X69850D01*
Y45720D01*
X67310D01*
Y40640D01*
X69850D01*
X116850D02*
Y38100D01*
X121930D01*
Y40640D01*
X124470D01*
Y45720D01*
X121930D01*
Y48260D01*
X116850D01*
Y45720D01*
X114310D01*
Y40640D01*
X116850D01*
X163850D02*
Y38100D01*
X168930D01*
Y40640D01*
X171470D01*
Y45720D01*
X168930D01*
Y48260D01*
X163850D01*
Y45720D01*
X161310D01*
Y40640D01*
X163850D01*
X26670Y227730D02*
Y237890D01*
X36830D01*
Y227730D01*
X26670D01*
Y277730D02*
Y287890D01*
X36830D01*
Y277730D01*
X26670D01*
X717550Y193440D02*
Y203600D01*
X727710D01*
Y193440D01*
X717550D01*
Y243440D02*
Y253600D01*
X727710D01*
Y243440D01*
X717550D01*
X719920Y369920D02*
X722460Y375000D01*
X719920Y380080D01*
X725000Y377540D01*
X730080Y380080D01*
X727540Y375000D01*
X730080Y369920D01*
X725000Y372460D01*
X719920Y369920D01*
X24130Y107950D02*
Y118110D01*
X34290D01*
Y107950D01*
X24130D01*
Y157950D02*
Y168110D01*
X34290D01*
Y157950D01*
X24130D01*
X139700Y340360D02*
X142240Y342900D01*
X144780D01*
X142240Y345440D01*
X144780Y347980D01*
X142240D01*
X139700Y350520D01*
X137160Y347980D01*
X134620D01*
X137160Y345440D01*
X134620Y342900D01*
X137160D01*
X139700Y340360D01*
X89700D02*
X92240Y342900D01*
X94780D01*
X92240Y345440D01*
X94780Y347980D01*
X92240D01*
X89700Y350520D01*
X87160Y347980D01*
X84620D01*
X87160Y345440D01*
X84620Y342900D01*
X87160D01*
X89700Y340360D01*
X539530Y38060D02*
X534450Y48220D01*
X544610D01*
X539530Y38060D01*
Y353060D02*
X534450Y363220D01*
X544610D01*
X539530Y353060D01*
X684530Y38060D02*
X679450Y48220D01*
X689610D01*
X684530Y38060D01*
Y353060D02*
X679450Y363220D01*
X689610D01*
X684530Y353060D01*
X719920Y19920D02*
X722460Y25000D01*
X719920Y30080D01*
X725000Y27540D01*
X730080Y30080D01*
X727540Y25000D01*
X730080Y19920D01*
X725000Y22460D01*
X719920Y19920D01*
X401320Y72390D02*
X403860D01*
X406400Y74930D01*
X408940Y72390D01*
X411480D01*
Y74930D01*
X408940Y77470D01*
X411480Y80010D01*
Y82550D01*
X408940D01*
X406400Y80010D01*
X403860Y82550D01*
X401320D01*
Y80010D01*
X403860Y77470D01*
X401320Y74930D01*
Y72390D01*
X402590Y171450D02*
X405130D01*
X407670Y173990D01*
X410210Y171450D01*
X412750D01*
Y173990D01*
X410210Y176530D01*
X412750Y179070D01*
Y181610D01*
X410210D01*
X407670Y179070D01*
X405130Y181610D01*
X402590D01*
Y179070D01*
X405130Y176530D01*
X402590Y173990D01*
Y171450D01*
Y185420D02*
X405130D01*
X407670Y187960D01*
X410210Y185420D01*
X412750D01*
Y187960D01*
X410210Y190500D01*
X412750Y193040D01*
Y195580D01*
X410210D01*
X407670Y193040D01*
X405130Y195580D01*
X402590D01*
Y193040D01*
X405130Y190500D01*
X402590Y187960D01*
Y185420D01*
Y199390D02*
X405130D01*
X407670Y201930D01*
X410210Y199390D01*
X412750D01*
Y201930D01*
X410210Y204470D01*
X412750Y207010D01*
Y209550D01*
X410210D01*
X407670Y207010D01*
X405130Y209550D01*
X402590D01*
Y207010D01*
X405130Y204470D01*
X402590Y201930D01*
Y199390D01*
X383540Y35560D02*
X386080D01*
X388620Y38100D01*
X391160Y35560D01*
X393700D01*
Y38100D01*
X391160Y40640D01*
X393700Y43180D01*
Y45720D01*
X391160D01*
X388620Y43180D01*
X386080Y45720D01*
X383540D01*
Y43180D01*
X386080Y40640D01*
X383540Y38100D01*
Y35560D01*
Y22860D02*
X386080D01*
X388620Y25400D01*
X391160Y22860D01*
X393700D01*
Y25400D01*
X391160Y27940D01*
X393700Y30480D01*
Y33020D01*
X391160D01*
X388620Y30480D01*
X386080Y33020D01*
X383540D01*
Y30480D01*
X386080Y27940D01*
X383540Y25400D01*
Y22860D01*
Y48260D02*
X386080D01*
X388620Y50800D01*
X391160Y48260D01*
X393700D01*
Y50800D01*
X391160Y53340D01*
X393700Y55880D01*
Y58420D01*
X391160D01*
X388620Y55880D01*
X386080Y58420D01*
X383540D01*
Y55880D01*
X386080Y53340D01*
X383540Y50800D01*
Y48260D01*
X377190Y115570D02*
X379730D01*
X382270Y118110D01*
X384810Y115570D01*
X387350D01*
Y118110D01*
X384810Y120650D01*
X387350Y123190D01*
Y125730D01*
X384810D01*
X382270Y123190D01*
X379730Y125730D01*
X377190D01*
Y123190D01*
X379730Y120650D01*
X377190Y118110D01*
Y115570D01*
X75009Y176761D02*
X77549D01*
X80089Y179301D01*
X82629Y176761D01*
X85169D01*
Y179301D01*
X82629Y181841D01*
X85169Y184381D01*
Y186921D01*
X82629D01*
X80089Y184381D01*
X77549Y186921D01*
X75009D01*
Y184381D01*
X77549Y181841D01*
X75009Y179301D01*
Y176761D01*
X85009D02*
X87549D01*
X90089Y179301D01*
X92629Y176761D01*
X95169D01*
Y179301D01*
X92629Y181841D01*
X95169Y184381D01*
Y186921D01*
X92629D01*
X90089Y184381D01*
X87549Y186921D01*
X85009D01*
Y184381D01*
X87549Y181841D01*
X85009Y179301D01*
Y176761D01*
X75009Y186761D02*
X77549D01*
X80089Y189301D01*
X82629Y186761D01*
X85169D01*
Y189301D01*
X82629Y191841D01*
X85169Y194381D01*
Y196921D01*
X82629D01*
X80089Y194381D01*
X77549Y196921D01*
X75009D01*
Y194381D01*
X77549Y191841D01*
X75009Y189301D01*
Y186761D01*
X85009D02*
X87549D01*
X90089Y189301D01*
X92629Y186761D01*
X95169D01*
Y189301D01*
X92629Y191841D01*
X95169Y194381D01*
Y196921D01*
X92629D01*
X90089Y194381D01*
X87549Y196921D01*
X85009D01*
Y194381D01*
X87549Y191841D01*
X85009Y189301D01*
Y186761D01*
X222250Y293693D02*
X224790D01*
X227330Y296233D01*
X229870Y293693D01*
X232410D01*
Y296233D01*
X229870Y298773D01*
X232410Y301313D01*
Y303853D01*
X229870D01*
X227330Y301313D01*
X224790Y303853D01*
X222250D01*
Y301313D01*
X224790Y298773D01*
X222250Y296233D01*
Y293693D01*
X426720Y295910D02*
X429260D01*
X431800Y298450D01*
X434340Y295910D01*
X436880D01*
Y298450D01*
X434340Y300990D01*
X436880Y303530D01*
Y306070D01*
X434340D01*
X431800Y303530D01*
X429260Y306070D01*
X426720D01*
Y303530D01*
X429260Y300990D01*
X426720Y298450D01*
Y295910D01*
X170180Y196850D02*
X172720D01*
X175260Y199390D01*
X177800Y196850D01*
X180340D01*
Y199390D01*
X177800Y201930D01*
X180340Y204470D01*
Y207010D01*
X177800D01*
X175260Y204470D01*
X172720Y207010D01*
X170180D01*
Y204470D01*
X172720Y201930D01*
X170180Y199390D01*
Y196850D01*
X146050Y187960D02*
X148590D01*
X151130Y190500D01*
X153670Y187960D01*
X156210D01*
Y190500D01*
X153670Y193040D01*
X156210Y195580D01*
Y198120D01*
X153670D01*
X151130Y195580D01*
X148590Y198120D01*
X146050D01*
Y195580D01*
X148590Y193040D01*
X146050Y190500D01*
Y187960D01*
X116840Y157480D02*
X119380D01*
X121920Y160020D01*
X124460Y157480D01*
X127000D01*
Y160020D01*
X124460Y162560D01*
X127000Y165100D01*
Y167640D01*
X124460D01*
X121920Y165100D01*
X119380Y167640D01*
X116840D01*
Y165100D01*
X119380Y162560D01*
X116840Y160020D01*
Y157480D01*
X44450Y193040D02*
X46990D01*
X49530Y195580D01*
X52070Y193040D01*
X54610D01*
Y195580D01*
X52070Y198120D01*
X54610Y200660D01*
Y203200D01*
X52070D01*
X49530Y200660D01*
X46990Y203200D01*
X44450D01*
Y200660D01*
X46990Y198120D01*
X44450Y195580D01*
Y193040D01*
X373380Y168910D02*
X375920D01*
X378460Y171450D01*
X381000Y168910D01*
X383540D01*
Y171450D01*
X381000Y173990D01*
X383540Y176530D01*
Y179070D01*
X381000D01*
X378460Y176530D01*
X375920Y179070D01*
X373380D01*
Y176530D01*
X375920Y173990D01*
X373380Y171450D01*
Y168910D01*
X176530Y140970D02*
X179070D01*
X181610Y143510D01*
X184150Y140970D01*
X186690D01*
Y143510D01*
X184150Y146050D01*
X186690Y148590D01*
Y151130D01*
X184150D01*
X181610Y148590D01*
X179070Y151130D01*
X176530D01*
Y148590D01*
X179070Y146050D01*
X176530Y143510D01*
Y140970D01*
X160020Y140547D02*
X162560D01*
X165100Y143087D01*
X167640Y140547D01*
X170180D01*
Y143087D01*
X167640Y145627D01*
X170180Y148167D01*
Y150707D01*
X167640D01*
X165100Y148167D01*
X162560Y150707D01*
X160020D01*
Y148167D01*
X162560Y145627D01*
X160020Y143087D01*
Y140547D01*
X176530Y97367D02*
X179070D01*
X181610Y99907D01*
X184150Y97367D01*
X186690D01*
Y99907D01*
X184150Y102447D01*
X186690Y104987D01*
Y107527D01*
X184150D01*
X181610Y104987D01*
X179070Y107527D01*
X176530D01*
Y104987D01*
X179070Y102447D01*
X176530Y99907D01*
Y97367D01*
X160020D02*
X162560D01*
X165100Y99907D01*
X167640Y97367D01*
X170180D01*
Y99907D01*
X167640Y102447D01*
X170180Y104987D01*
Y107527D01*
X167640D01*
X165100Y104987D01*
X162560Y107527D01*
X160020D01*
Y104987D01*
X162560Y102447D01*
X160020Y99907D01*
Y97367D01*
X176530Y126436D02*
X179070D01*
X181610Y128976D01*
X184150Y126436D01*
X186690D01*
Y128976D01*
X184150Y131516D01*
X186690Y134056D01*
Y136596D01*
X184150D01*
X181610Y134056D01*
X179070Y136596D01*
X176530D01*
Y134056D01*
X179070Y131516D01*
X176530Y128976D01*
Y126436D01*
X160020Y126153D02*
X162560D01*
X165100Y128693D01*
X167640Y126153D01*
X170180D01*
Y128693D01*
X167640Y131233D01*
X170180Y133773D01*
Y136313D01*
X167640D01*
X165100Y133773D01*
X162560Y136313D01*
X160020D01*
Y133773D01*
X162560Y131233D01*
X160020Y128693D01*
Y126153D01*
X176530Y111901D02*
X179070D01*
X181610Y114441D01*
X184150Y111901D01*
X186690D01*
Y114441D01*
X184150Y116981D01*
X186690Y119521D01*
Y122061D01*
X184150D01*
X181610Y119521D01*
X179070Y122061D01*
X176530D01*
Y119521D01*
X179070Y116981D01*
X176530Y114441D01*
Y111901D01*
X160020Y111760D02*
X162560D01*
X165100Y114300D01*
X167640Y111760D01*
X170180D01*
Y114300D01*
X167640Y116840D01*
X170180Y119380D01*
Y121920D01*
X167640D01*
X165100Y119380D01*
X162560Y121920D01*
X160020D01*
Y119380D01*
X162560Y116840D01*
X160020Y114300D01*
Y111760D01*
X360680Y168910D02*
X363220D01*
X365760Y171450D01*
X368300Y168910D01*
X370840D01*
Y171450D01*
X368300Y173990D01*
X370840Y176530D01*
Y179070D01*
X368300D01*
X365760Y176530D01*
X363220Y179070D01*
X360680D01*
Y176530D01*
X363220Y173990D01*
X360680Y171450D01*
Y168910D01*
X346710D02*
X349250D01*
X351790Y171450D01*
X354330Y168910D01*
X356870D01*
Y171450D01*
X354330Y173990D01*
X356870Y176530D01*
Y179070D01*
X354330D01*
X351790Y176530D01*
X349250Y179070D01*
X346710D01*
Y176530D01*
X349250Y173990D01*
X346710Y171450D01*
Y168910D01*
X332740D02*
X335280D01*
X337820Y171450D01*
X340360Y168910D01*
X342900D01*
Y171450D01*
X340360Y173990D01*
X342900Y176530D01*
Y179070D01*
X340360D01*
X337820Y176530D01*
X335280Y179070D01*
X332740D01*
Y176530D01*
X335280Y173990D01*
X332740Y171450D01*
Y168910D01*
X318770D02*
X321310D01*
X323850Y171450D01*
X326390Y168910D01*
X328930D01*
Y171450D01*
X326390Y173990D01*
X328930Y176530D01*
Y179070D01*
X326390D01*
X323850Y176530D01*
X321310Y179070D01*
X318770D01*
Y176530D01*
X321310Y173990D01*
X318770Y171450D01*
Y168910D01*
X304800D02*
X307340D01*
X309880Y171450D01*
X312420Y168910D01*
X314960D01*
Y171450D01*
X312420Y173990D01*
X314960Y176530D01*
Y179070D01*
X312420D01*
X309880Y176530D01*
X307340Y179070D01*
X304800D01*
Y176530D01*
X307340Y173990D01*
X304800Y171450D01*
Y168910D01*
X290830D02*
X293370D01*
X295910Y171450D01*
X298450Y168910D01*
X300990D01*
Y171450D01*
X298450Y173990D01*
X300990Y176530D01*
Y179070D01*
X298450D01*
X295910Y176530D01*
X293370Y179070D01*
X290830D01*
Y176530D01*
X293370Y173990D01*
X290830Y171450D01*
Y168910D01*
X276860D02*
X279400D01*
X281940Y171450D01*
X284480Y168910D01*
X287020D01*
Y171450D01*
X284480Y173990D01*
X287020Y176530D01*
Y179070D01*
X284480D01*
X281940Y176530D01*
X279400Y179070D01*
X276860D01*
Y176530D01*
X279400Y173990D01*
X276860Y171450D01*
Y168910D01*
X262890D02*
X265430D01*
X267970Y171450D01*
X270510Y168910D01*
X273050D01*
Y171450D01*
X270510Y173990D01*
X273050Y176530D01*
Y179070D01*
X270510D01*
X267970Y176530D01*
X265430Y179070D01*
X262890D01*
Y176530D01*
X265430Y173990D01*
X262890Y171450D01*
Y168910D01*
X359410Y81280D02*
X361950D01*
X364490Y83820D01*
X367030Y81280D01*
X369570D01*
Y83820D01*
X367030Y86360D01*
X369570Y88900D01*
Y91440D01*
X367030D01*
X364490Y88900D01*
X361950Y91440D01*
X359410D01*
Y88900D01*
X361950Y86360D01*
X359410Y83820D01*
Y81280D01*
X420370Y72390D02*
X422910D01*
X425450Y74930D01*
X427990Y72390D01*
X430530D01*
Y74930D01*
X427990Y77470D01*
X430530Y80010D01*
Y82550D01*
X427990D01*
X425450Y80010D01*
X422910Y82550D01*
X420370D01*
Y80010D01*
X422910Y77470D01*
X420370Y74930D01*
Y72390D01*
X407670Y113982D02*
X410210D01*
X412750Y116522D01*
X415290Y113982D01*
X417830D01*
Y116522D01*
X415290Y119062D01*
X417830Y121602D01*
Y124142D01*
X415290D01*
X412750Y121602D01*
X410210Y124142D01*
X407670D01*
Y121602D01*
X410210Y119062D01*
X407670Y116522D01*
Y113982D01*
X373380Y308610D02*
X375920D01*
X378460Y311150D01*
X381000Y308610D01*
X383540D01*
Y311150D01*
X381000Y313690D01*
X383540Y316230D01*
Y318770D01*
X381000D01*
X378460Y316230D01*
X375920Y318770D01*
X373380D01*
Y316230D01*
X375920Y313690D01*
X373380Y311150D01*
Y308610D01*
X467360Y294640D02*
X469900D01*
X472440Y297180D01*
X474980Y294640D01*
X477520D01*
Y297180D01*
X474980Y299720D01*
X477520Y302260D01*
Y304800D01*
X474980D01*
X472440Y302260D01*
X469900Y304800D01*
X467360D01*
Y302260D01*
X469900Y299720D01*
X467360Y297180D01*
Y294640D01*
X469900Y265430D02*
X472440D01*
X474980Y267970D01*
X477520Y265430D01*
X480060D01*
Y267970D01*
X477520Y270510D01*
X480060Y273050D01*
Y275590D01*
X477520D01*
X474980Y273050D01*
X472440Y275590D01*
X469900D01*
Y273050D01*
X472440Y270510D01*
X469900Y267970D01*
Y265430D01*
X466090Y255270D02*
X468630D01*
X471170Y257810D01*
X473710Y255270D01*
X476250D01*
Y257810D01*
X473710Y260350D01*
X476250Y262890D01*
Y265430D01*
X473710D01*
X471170Y262890D01*
X468630Y265430D01*
X466090D01*
Y262890D01*
X468630Y260350D01*
X466090Y257810D01*
Y255270D01*
X516890Y240030D02*
X519430D01*
X521970Y242570D01*
X524510Y240030D01*
X527050D01*
Y242570D01*
X524510Y245110D01*
X527050Y247650D01*
Y250190D01*
X524510D01*
X521970Y247650D01*
X519430Y250190D01*
X516890D01*
Y247650D01*
X519430Y245110D01*
X516890Y242570D01*
Y240030D01*
X402590Y254000D02*
X405130D01*
X407670Y256540D01*
X410210Y254000D01*
X412750D01*
Y256540D01*
X410210Y259080D01*
X412750Y261620D01*
Y264160D01*
X410210D01*
X407670Y261620D01*
X405130Y264160D01*
X402590D01*
Y261620D01*
X405130Y259080D01*
X402590Y256540D01*
Y254000D01*
X457200Y303530D02*
X459740D01*
X462280Y306070D01*
X464820Y303530D01*
X467360D01*
Y306070D01*
X464820Y308610D01*
X467360Y311150D01*
Y313690D01*
X464820D01*
X462280Y311150D01*
X459740Y313690D01*
X457200D01*
Y311150D01*
X459740Y308610D01*
X457200Y306070D01*
Y303530D01*
X516890Y200660D02*
X519430D01*
X521970Y203200D01*
X524510Y200660D01*
X527050D01*
Y203200D01*
X524510Y205740D01*
X527050Y208280D01*
Y210820D01*
X524510D01*
X521970Y208280D01*
X519430Y210820D01*
X516890D01*
Y208280D01*
X519430Y205740D01*
X516890Y203200D01*
Y200660D01*
X330200Y327660D02*
X332740D01*
X335280Y330200D01*
X337820Y327660D01*
X340360D01*
Y330200D01*
X337820Y332740D01*
X340360Y335280D01*
Y337820D01*
X337820D01*
X335280Y335280D01*
X332740Y337820D01*
X330200D01*
Y335280D01*
X332740Y332740D01*
X330200Y330200D01*
Y327660D01*
X516890Y209550D02*
X519430D01*
X521970Y212090D01*
X524510Y209550D01*
X527050D01*
Y212090D01*
X524510Y214630D01*
X527050Y217170D01*
Y219710D01*
X524510D01*
X521970Y217170D01*
X519430Y219710D01*
X516890D01*
Y217170D01*
X519430Y214630D01*
X516890Y212090D01*
Y209550D01*
X577850Y278130D02*
X580390D01*
X582930Y280670D01*
X585470Y278130D01*
X588010D01*
Y280670D01*
X585470Y283210D01*
X588010Y285750D01*
Y288290D01*
X585470D01*
X582930Y285750D01*
X580390Y288290D01*
X577850D01*
Y285750D01*
X580390Y283210D01*
X577850Y280670D01*
Y278130D01*
X124460Y201930D02*
X127000D01*
X129540Y204470D01*
X132080Y201930D01*
X134620D01*
Y204470D01*
X132080Y207010D01*
X134620Y209550D01*
Y212090D01*
X132080D01*
X129540Y209550D01*
X127000Y212090D01*
X124460D01*
Y209550D01*
X127000Y207010D01*
X124460Y204470D01*
Y201930D01*
X99060Y292100D02*
X101600D01*
X104140Y294640D01*
X106680Y292100D01*
X109220D01*
Y294640D01*
X106680Y297180D01*
X109220Y299720D01*
Y302260D01*
X106680D01*
X104140Y299720D01*
X101600Y302260D01*
X99060D01*
Y299720D01*
X101600Y297180D01*
X99060Y294640D01*
Y292100D01*
X145542Y245618D02*
X148082D01*
X150622Y248158D01*
X153162Y245618D01*
X155702D01*
Y248158D01*
X153162Y250698D01*
X155702Y253238D01*
Y255778D01*
X153162D01*
X150622Y253238D01*
X148082Y255778D01*
X145542D01*
Y253238D01*
X148082Y250698D01*
X145542Y248158D01*
Y245618D01*
X198120Y279400D02*
X200660D01*
X203200Y281940D01*
X205740Y279400D01*
X208280D01*
Y281940D01*
X205740Y284480D01*
X208280Y287020D01*
Y289560D01*
X205740D01*
X203200Y287020D01*
X200660Y289560D01*
X198120D01*
Y287020D01*
X200660Y284480D01*
X198120Y281940D01*
Y279400D01*
X160020Y265176D02*
X162560D01*
X165100Y267716D01*
X167640Y265176D01*
X170180D01*
Y267716D01*
X167640Y270256D01*
X170180Y272796D01*
Y275336D01*
X167640D01*
X165100Y272796D01*
X162560Y275336D01*
X160020D01*
Y272796D01*
X162560Y270256D01*
X160020Y267716D01*
Y265176D01*
Y222504D02*
X162560D01*
X165100Y225044D01*
X167640Y222504D01*
X170180D01*
Y225044D01*
X167640Y227584D01*
X170180Y230124D01*
Y232664D01*
X167640D01*
X165100Y230124D01*
X162560Y232664D01*
X160020D01*
Y230124D01*
X162560Y227584D01*
X160020Y225044D01*
Y222504D01*
Y236728D02*
X162560D01*
X165100Y239268D01*
X167640Y236728D01*
X170180D01*
Y239268D01*
X167640Y241808D01*
X170180Y244348D01*
Y246888D01*
X167640D01*
X165100Y244348D01*
X162560Y246888D01*
X160020D01*
Y244348D01*
X162560Y241808D01*
X160020Y239268D01*
Y236728D01*
Y208280D02*
X162560D01*
X165100Y210820D01*
X167640Y208280D01*
X170180D01*
Y210820D01*
X167640Y213360D01*
X170180Y215900D01*
Y218440D01*
X167640D01*
X165100Y215900D01*
X162560Y218440D01*
X160020D01*
Y215900D01*
X162560Y213360D01*
X160020Y210820D01*
Y208280D01*
X203200Y218440D02*
X205740D01*
X208280Y220980D01*
X210820Y218440D01*
X213360D01*
Y220980D01*
X210820Y223520D01*
X213360Y226060D01*
Y228600D01*
X210820D01*
X208280Y226060D01*
X205740Y228600D01*
X203200D01*
Y226060D01*
X205740Y223520D01*
X203200Y220980D01*
Y218440D01*
X255270Y261620D02*
X257810D01*
X260350Y264160D01*
X262890Y261620D01*
X265430D01*
Y264160D01*
X262890Y266700D01*
X265430Y269240D01*
Y271780D01*
X262890D01*
X260350Y269240D01*
X257810Y271780D01*
X255270D01*
Y269240D01*
X257810Y266700D01*
X255270Y264160D01*
Y261620D01*
X391160Y85090D02*
X393700D01*
X396240Y87630D01*
X398780Y85090D01*
X401320D01*
Y87630D01*
X398780Y90170D01*
X401320Y92710D01*
Y95250D01*
X398780D01*
X396240Y92710D01*
X393700Y95250D01*
X391160D01*
Y92710D01*
X393700Y90170D01*
X391160Y87630D01*
Y85090D01*
X604520Y228600D02*
X607060D01*
X609600Y231140D01*
X612140Y228600D01*
X614680D01*
Y231140D01*
X612140Y233680D01*
X614680Y236220D01*
Y238760D01*
X612140D01*
X609600Y236220D01*
X607060Y238760D01*
X604520D01*
Y236220D01*
X607060Y233680D01*
X604520Y231140D01*
Y228600D01*
X601980Y240030D02*
X604520D01*
X607060Y242570D01*
X609600Y240030D01*
X612140D01*
Y242570D01*
X609600Y245110D01*
X612140Y247650D01*
Y250190D01*
X609600D01*
X607060Y247650D01*
X604520Y250190D01*
X601980D01*
Y247650D01*
X604520Y245110D01*
X601980Y242570D01*
Y240030D01*
X422910Y132080D02*
X425450D01*
X427990Y134620D01*
X430530Y132080D01*
X433070D01*
Y134620D01*
X430530Y137160D01*
X433070Y139700D01*
Y142240D01*
X430530D01*
X427990Y139700D01*
X425450Y142240D01*
X422910D01*
Y139700D01*
X425450Y137160D01*
X422910Y134620D01*
Y132080D01*
X454380Y193320D02*
X456920D01*
X459460Y195860D01*
X462000Y193320D01*
X464540D01*
Y195860D01*
X462000Y198400D01*
X464540Y200940D01*
Y203480D01*
X462000D01*
X459460Y200940D01*
X456920Y203480D01*
X454380D01*
Y200940D01*
X456920Y198400D01*
X454380Y195860D01*
Y193320D01*
X643890Y334010D02*
X646430D01*
X648970Y336550D01*
X651510Y334010D01*
X654050D01*
Y336550D01*
X651510Y339090D01*
X654050Y341630D01*
Y344170D01*
X651510D01*
X648970Y341630D01*
X646430Y344170D01*
X643890D01*
Y341630D01*
X646430Y339090D01*
X643890Y336550D01*
Y334010D01*
X646430Y344170D02*
X648970D01*
X651510Y346710D01*
X654050Y344170D01*
X656590D01*
Y346710D01*
X654050Y349250D01*
X656590Y351790D01*
Y354330D01*
X654050D01*
X651510Y351790D01*
X648970Y354330D01*
X646430D01*
Y351790D01*
X648970Y349250D01*
X646430Y346710D01*
Y344170D01*
X605790Y370840D02*
X608330D01*
X610870Y373380D01*
X613410Y370840D01*
X615950D01*
Y373380D01*
X613410Y375920D01*
X615950Y378460D01*
Y381000D01*
X613410D01*
X610870Y378460D01*
X608330Y381000D01*
X605790D01*
Y378460D01*
X608330Y375920D01*
X605790Y373380D01*
Y370840D01*
X591820Y358140D02*
X594360D01*
X596900Y360680D01*
X599440Y358140D01*
X601980D01*
Y360680D01*
X599440Y363220D01*
X601980Y365760D01*
Y368300D01*
X599440D01*
X596900Y365760D01*
X594360Y368300D01*
X591820D01*
Y365760D01*
X594360Y363220D01*
X591820Y360680D01*
Y358140D01*
X605790Y208280D02*
X608330D01*
X610870Y210820D01*
X613410Y208280D01*
X615950D01*
Y210820D01*
X613410Y213360D01*
X615950Y215900D01*
Y218440D01*
X613410D01*
X610870Y215900D01*
X608330Y218440D01*
X605790D01*
Y215900D01*
X608330Y213360D01*
X605790Y210820D01*
Y208280D01*
X222250Y313690D02*
X224790D01*
X227330Y316230D01*
X229870Y313690D01*
X232410D01*
Y316230D01*
X229870Y318770D01*
X232410Y321310D01*
Y323850D01*
X229870D01*
X227330Y321310D01*
X224790Y323850D01*
X222250D01*
Y321310D01*
X224790Y318770D01*
X222250Y316230D01*
Y313690D01*
X146050Y297180D02*
X148590D01*
X151130Y299720D01*
X153670Y297180D01*
X156210D01*
Y299720D01*
X153670Y302260D01*
X156210Y304800D01*
Y307340D01*
X153670D01*
X151130Y304800D01*
X148590Y307340D01*
X146050D01*
Y304800D01*
X148590Y302260D01*
X146050Y299720D01*
Y297180D01*
Y313690D02*
X148590D01*
X151130Y316230D01*
X153670Y313690D01*
X156210D01*
Y316230D01*
X153670Y318770D01*
X156210Y321310D01*
Y323850D01*
X153670D01*
X151130Y321310D01*
X148590Y323850D01*
X146050D01*
Y321310D01*
X148590Y318770D01*
X146050Y316230D01*
Y313690D01*
X202120Y331470D02*
X204660D01*
X207201Y334010D01*
X209741Y331470D01*
X212281D01*
Y334010D01*
X209741Y336550D01*
X212281Y339090D01*
Y341630D01*
X209741D01*
X207201Y339090D01*
X204660Y341630D01*
X202120D01*
Y339090D01*
X204660Y336550D01*
X202120Y334010D01*
Y331470D01*
X160020D02*
X162560D01*
X165100Y334010D01*
X167640Y331470D01*
X170180D01*
Y334010D01*
X167640Y336550D01*
X170180Y339090D01*
Y341630D01*
X167640D01*
X165100Y339090D01*
X162560Y341630D01*
X160020D01*
Y339090D01*
X162560Y336550D01*
X160020Y334010D01*
Y331470D01*
X166370Y381000D02*
X168910D01*
X171450Y383540D01*
X173990Y381000D01*
X176530D01*
Y383540D01*
X173990Y386080D01*
X176530Y388620D01*
Y391160D01*
X173990D01*
X171450Y388620D01*
X168910Y391160D01*
X166370D01*
Y388620D01*
X168910Y386080D01*
X166370Y383540D01*
Y381000D01*
Y365760D02*
X168910D01*
X171450Y368300D01*
X173990Y365760D01*
X176530D01*
Y368300D01*
X173990Y370840D01*
X176530Y373380D01*
Y375920D01*
X173990D01*
X171450Y373380D01*
X168910Y375920D01*
X166370D01*
Y373380D01*
X168910Y370840D01*
X166370Y368300D01*
Y365760D01*
X571330Y372570D02*
X573870D01*
X576410Y375110D01*
X578950Y372570D01*
X581490D01*
Y375110D01*
X578950Y377650D01*
X581490Y380190D01*
Y382730D01*
X578950D01*
X576410Y380190D01*
X573870Y382730D01*
X571330D01*
Y380190D01*
X573870Y377650D01*
X571330Y375110D01*
Y372570D01*
X645330D02*
X647870D01*
X650410Y375110D01*
X652950Y372570D01*
X655490D01*
Y375110D01*
X652950Y377650D01*
X655490Y380190D01*
Y382730D01*
X652950D01*
X650410Y380190D01*
X647870Y382730D01*
X645330D01*
Y380190D01*
X647870Y377650D01*
X645330Y375110D01*
Y372570D01*
X723900Y55280D02*
X726440D01*
X728980Y57820D01*
X731520Y55280D01*
X734060D01*
Y57820D01*
X731520Y60360D01*
X734060Y62900D01*
Y65440D01*
X731520D01*
X728980Y62900D01*
X726440Y65440D01*
X723900D01*
Y62900D01*
X726440Y60360D01*
X723900Y57820D01*
Y55280D01*
Y147644D02*
X726440D01*
X728980Y150184D01*
X731520Y147644D01*
X734060D01*
Y150184D01*
X731520Y152724D01*
X734060Y155264D01*
Y157804D01*
X731520D01*
X728980Y155264D01*
X726440Y157804D01*
X723900D01*
Y155264D01*
X726440Y152724D01*
X723900Y150184D01*
Y147644D01*
X368182Y36922D02*
X370722D01*
X373262Y39462D01*
X375802Y36922D01*
X378342D01*
Y39462D01*
X375802Y42002D01*
X378342Y44542D01*
Y47082D01*
X375802D01*
X373262Y44542D01*
X370722Y47082D01*
X368182D01*
Y44542D01*
X370722Y42002D01*
X368182Y39462D01*
Y36922D01*
X398780Y22860D02*
X401320D01*
X403860Y25400D01*
X406400Y22860D01*
X408940D01*
Y25400D01*
X406400Y27940D01*
X408940Y30480D01*
Y33020D01*
X406400D01*
X403860Y30480D01*
X401320Y33020D01*
X398780D01*
Y30480D01*
X401320Y27940D01*
X398780Y25400D01*
Y22860D01*
X398184Y36922D02*
X400724D01*
X403264Y39462D01*
X405804Y36922D01*
X408344D01*
Y39462D01*
X405804Y42002D01*
X408344Y44542D01*
Y47082D01*
X405804D01*
X403264Y44542D01*
X400724Y47082D01*
X398184D01*
Y44542D01*
X400724Y42002D01*
X398184Y39462D01*
Y36922D01*
X397510Y52070D02*
X400050D01*
X402590Y54610D01*
X405130Y52070D01*
X407670D01*
Y54610D01*
X405130Y57150D01*
X407670Y59690D01*
Y62230D01*
X405130D01*
X402590Y59690D01*
X400050Y62230D01*
X397510D01*
Y59690D01*
X400050Y57150D01*
X397510Y54610D01*
Y52070D01*
X316230Y337820D02*
X318770D01*
X321310Y340360D01*
X323850Y337820D01*
X326390D01*
Y340360D01*
X323850Y342900D01*
X326390Y345440D01*
Y347980D01*
X323850D01*
X321310Y345440D01*
X318770Y347980D01*
X316230D01*
Y345440D01*
X318770Y342900D01*
X316230Y340360D01*
Y337820D01*
Y351790D02*
X318770D01*
X321310Y354330D01*
X323850Y351790D01*
X326390D01*
Y354330D01*
X323850Y356870D01*
X326390Y359410D01*
Y361950D01*
X323850D01*
X321310Y359410D01*
X318770Y361950D01*
X316230D01*
Y359410D01*
X318770Y356870D01*
X316230Y354330D01*
Y351790D01*
Y365760D02*
X318770D01*
X321310Y368300D01*
X323850Y365760D01*
X326390D01*
Y368300D01*
X323850Y370840D01*
X326390Y373380D01*
Y375920D01*
X323850D01*
X321310Y373380D01*
X318770Y375920D01*
X316230D01*
Y373380D01*
X318770Y370840D01*
X316230Y368300D01*
Y365760D01*
X300990Y337820D02*
X303530D01*
X306070Y340360D01*
X308610Y337820D01*
X311150D01*
Y340360D01*
X308610Y342900D01*
X311150Y345440D01*
Y347980D01*
X308610D01*
X306070Y345440D01*
X303530Y347980D01*
X300990D01*
Y345440D01*
X303530Y342900D01*
X300990Y340360D01*
Y337820D01*
X301229Y351790D02*
X303769D01*
X306309Y354330D01*
X308849Y351790D01*
X311389D01*
Y354330D01*
X308849Y356870D01*
X311389Y359410D01*
Y361950D01*
X308849D01*
X306309Y359410D01*
X303769Y361950D01*
X301229D01*
Y359410D01*
X303769Y356870D01*
X301229Y354330D01*
Y351790D01*
X300990Y365760D02*
X303530D01*
X306070Y368300D01*
X308610Y365760D01*
X311150D01*
Y368300D01*
X308610Y370840D01*
X311150Y373380D01*
Y375920D01*
X308610D01*
X306070Y373380D01*
X303530Y375920D01*
X300990D01*
Y373380D01*
X303530Y370840D01*
X300990Y368300D01*
Y365760D01*
X280312Y372202D02*
X282852D01*
X285392Y374742D01*
X287932Y372202D01*
X290472D01*
Y374742D01*
X287932Y377282D01*
X290472Y379822D01*
Y382362D01*
X287932D01*
X285392Y379822D01*
X282852Y382362D01*
X280312D01*
Y379822D01*
X282852Y377282D01*
X280312Y374742D01*
Y372202D01*
X351730Y372290D02*
X354270D01*
X356810Y374830D01*
X359350Y372290D01*
X361890D01*
Y374830D01*
X359350Y377370D01*
X361890Y379910D01*
Y382450D01*
X359350D01*
X356810Y379910D01*
X354270Y382450D01*
X351730D01*
Y379910D01*
X354270Y377370D01*
X351730Y374830D01*
Y372290D01*
X401320Y365760D02*
X403860D01*
X406400Y368300D01*
X408940Y365760D01*
X411480D01*
Y368300D01*
X408940Y370840D01*
X411480Y373380D01*
Y375920D01*
X408940D01*
X406400Y373380D01*
X403860Y375920D01*
X401320D01*
Y373380D01*
X403860Y370840D01*
X401320Y368300D01*
Y365760D01*
X494030Y327660D02*
X496570D01*
X499110Y330200D01*
X501650Y327660D01*
X504190D01*
Y330200D01*
X501650Y332740D01*
X504190Y335280D01*
Y337820D01*
X501650D01*
X499110Y335280D01*
X496570Y337820D01*
X494030D01*
Y335280D01*
X496570Y332740D01*
X494030Y330200D01*
Y327660D01*
X222250Y189230D02*
X224790D01*
X227330Y191770D01*
X229870Y189230D01*
X232410D01*
Y191770D01*
X229870Y194310D01*
X232410Y196850D01*
Y199390D01*
X229870D01*
X227330Y196850D01*
X224790Y199390D01*
X222250D01*
Y196850D01*
X224790Y194310D01*
X222250Y191770D01*
Y189230D01*
Y177800D02*
X224790D01*
X227330Y180340D01*
X229870Y177800D01*
X232410D01*
Y180340D01*
X229870Y182880D01*
X232410Y185420D01*
Y187960D01*
X229870D01*
X227330Y185420D01*
X224790Y187960D01*
X222250D01*
Y185420D01*
X224790Y182880D01*
X222250Y180340D01*
Y177800D01*
X146050D02*
X148590D01*
X151130Y180340D01*
X153670Y177800D01*
X156210D01*
Y180340D01*
X153670Y182880D01*
X156210Y185420D01*
Y187960D01*
X153670D01*
X151130Y185420D01*
X148590Y187960D01*
X146050D01*
Y185420D01*
X148590Y182880D01*
X146050Y180340D01*
Y177800D01*
X411480Y340360D02*
X414020D01*
X416560Y342900D01*
X419100Y340360D01*
X421640D01*
Y342900D01*
X419100Y345440D01*
X421640Y347980D01*
Y350520D01*
X419100D01*
X416560Y347980D01*
X414020Y350520D01*
X411480D01*
Y347980D01*
X414020Y345440D01*
X411480Y342900D01*
Y340360D01*
Y353060D02*
X414020D01*
X416560Y355600D01*
X419100Y353060D01*
X421640D01*
Y355600D01*
X419100Y358140D01*
X421640Y360680D01*
Y363220D01*
X419100D01*
X416560Y360680D01*
X414020Y363220D01*
X411480D01*
Y360680D01*
X414020Y358140D01*
X411480Y355600D01*
Y353060D01*
X372110Y344170D02*
X374650D01*
X377190Y346710D01*
X379730Y344170D01*
X382270D01*
Y346710D01*
X379730Y349250D01*
X382270Y351790D01*
Y354330D01*
X379730D01*
X377190Y351790D01*
X374650Y354330D01*
X372110D01*
Y351790D01*
X374650Y349250D01*
X372110Y346710D01*
Y344170D01*
Y354330D02*
X374650D01*
X377190Y356870D01*
X379730Y354330D01*
X382270D01*
Y356870D01*
X379730Y359410D01*
X382270Y361950D01*
Y364490D01*
X379730D01*
X377190Y361950D01*
X374650Y364490D01*
X372110D01*
Y361950D01*
X374650Y359410D01*
X372110Y356870D01*
Y354330D01*
X420370Y171450D02*
X422910D01*
X425450Y173990D01*
X427990Y171450D01*
X430530D01*
Y173990D01*
X427990Y176530D01*
X430530Y179070D01*
Y181610D01*
X427990D01*
X425450Y179070D01*
X422910Y181610D01*
X420370D01*
Y179070D01*
X422910Y176530D01*
X420370Y173990D01*
Y171450D01*
Y187960D02*
X422910D01*
X425450Y190500D01*
X427990Y187960D01*
X430530D01*
Y190500D01*
X427990Y193040D01*
X430530Y195580D01*
Y198120D01*
X427990D01*
X425450Y195580D01*
X422910Y198120D01*
X420370D01*
Y195580D01*
X422910Y193040D01*
X420370Y190500D01*
Y187960D01*
X617220Y90170D02*
X619760D01*
X622300Y92710D01*
X624840Y90170D01*
X627380D01*
Y92710D01*
X624840Y95250D01*
X627380Y97790D01*
Y100330D01*
X624840D01*
X622300Y97790D01*
X619760Y100330D01*
X617220D01*
Y97790D01*
X619760Y95250D01*
X617220Y92710D01*
Y90170D01*
X601980D02*
X604520D01*
X607060Y92710D01*
X609600Y90170D01*
X612140D01*
Y92710D01*
X609600Y95250D01*
X612140Y97790D01*
Y100330D01*
X609600D01*
X607060Y97790D01*
X604520Y100330D01*
X601980D01*
Y97790D01*
X604520Y95250D01*
X601980Y92710D01*
Y90170D01*
X488531Y100981D02*
X491072D01*
X493611Y103521D01*
X496152Y100981D01*
X498691D01*
Y103521D01*
X496152Y106061D01*
X498691Y108601D01*
Y111141D01*
X496152D01*
X493611Y108601D01*
X491072Y111141D01*
X488531D01*
Y108601D01*
X491072Y106061D01*
X488531Y103521D01*
Y100981D01*
X473530D02*
X476070D01*
X478610Y103521D01*
X481150Y100981D01*
X483690D01*
Y103521D01*
X481150Y106061D01*
X483690Y108601D01*
Y111141D01*
X481150D01*
X478610Y108601D01*
X476070Y111141D01*
X473530D01*
Y108601D01*
X476070Y106061D01*
X473530Y103521D01*
Y100981D01*
Y37481D02*
X476070D01*
X478610Y40021D01*
X481150Y37481D01*
X483690D01*
Y40021D01*
X481150Y42561D01*
X483690Y45101D01*
Y47641D01*
X481150D01*
X478610Y45101D01*
X476070Y47641D01*
X473530D01*
Y45101D01*
X476070Y42561D01*
X473530Y40021D01*
Y37481D01*
X488531D02*
X491072D01*
X493611Y40021D01*
X496152Y37481D01*
X498691D01*
Y40021D01*
X496152Y42561D01*
X498691Y45101D01*
Y47641D01*
X496152D01*
X493611Y45101D01*
X491072Y47641D01*
X488531D01*
Y45101D01*
X491072Y42561D01*
X488531Y40021D01*
Y37481D01*
X488950Y66040D02*
X491490D01*
X494030Y68580D01*
X496570Y66040D01*
X499110D01*
Y68580D01*
X496570Y71120D01*
X499110Y73660D01*
Y76200D01*
X496570D01*
X494030Y73660D01*
X491490Y76200D01*
X488950D01*
Y73660D01*
X491490Y71120D01*
X488950Y68580D01*
Y66040D01*
Y77470D02*
X491490D01*
X494030Y80010D01*
X496570Y77470D01*
X499110D01*
Y80010D01*
X496570Y82550D01*
X499110Y85090D01*
Y87630D01*
X496570D01*
X494030Y85090D01*
X491490Y87630D01*
X488950D01*
Y85090D01*
X491490Y82550D01*
X488950Y80010D01*
Y77470D01*
X616801Y36211D02*
X619342D01*
X621881Y38751D01*
X624422Y36211D01*
X626962D01*
Y38751D01*
X624422Y41291D01*
X626962Y43831D01*
Y46371D01*
X624422D01*
X621881Y43831D01*
X619342Y46371D01*
X616801D01*
Y43831D01*
X619342Y41291D01*
X616801Y38751D01*
Y36211D01*
X601800D02*
X604340D01*
X606880Y38751D01*
X609420Y36211D01*
X611960D01*
Y38751D01*
X609420Y41291D01*
X611960Y43831D01*
Y46371D01*
X609420D01*
X606880Y43831D01*
X604340Y46371D01*
X601800D01*
Y43831D01*
X604340Y41291D01*
X601800Y38751D01*
Y36211D01*
X617220Y62230D02*
X619760D01*
X622300Y64770D01*
X624840Y62230D01*
X627380D01*
Y64770D01*
X624840Y67310D01*
X627380Y69850D01*
Y72390D01*
X624840D01*
X622300Y69850D01*
X619760Y72390D01*
X617220D01*
Y69850D01*
X619760Y67310D01*
X617220Y64770D01*
Y62230D01*
Y74930D02*
X619760D01*
X622300Y77470D01*
X624840Y74930D01*
X627380D01*
Y77470D01*
X624840Y80010D01*
X627380Y82550D01*
Y85090D01*
X624840D01*
X622300Y82550D01*
X619760Y85090D01*
X617220D01*
Y82550D01*
X619760Y80010D01*
X617220Y77470D01*
Y74930D01*
X601980Y60960D02*
X604520D01*
X607060Y63500D01*
X609600Y60960D01*
X612140D01*
Y63500D01*
X609600Y66040D01*
X612140Y68580D01*
Y71120D01*
X609600D01*
X607060Y68580D01*
X604520Y71120D01*
X601980D01*
Y68580D01*
X604520Y66040D01*
X601980Y63500D01*
Y60960D01*
Y74930D02*
X604520D01*
X607060Y77470D01*
X609600Y74930D01*
X612140D01*
Y77470D01*
X609600Y80010D01*
X612140Y82550D01*
Y85090D01*
X609600D01*
X607060Y82550D01*
X604520Y85090D01*
X601980D01*
Y82550D01*
X604520Y80010D01*
X601980Y77470D01*
Y74930D01*
X473710Y64770D02*
X476250D01*
X478790Y67310D01*
X481330Y64770D01*
X483870D01*
Y67310D01*
X481330Y69850D01*
X483870Y72390D01*
Y74930D01*
X481330D01*
X478790Y72390D01*
X476250Y74930D01*
X473710D01*
Y72390D01*
X476250Y69850D01*
X473710Y67310D01*
Y64770D01*
Y77470D02*
X476250D01*
X478790Y80010D01*
X481330Y77470D01*
X483870D01*
Y80010D01*
X481330Y82550D01*
X483870Y85090D01*
Y87630D01*
X481330D01*
X478790Y85090D01*
X476250Y87630D01*
X473710D01*
Y85090D01*
X476250Y82550D01*
X473710Y80010D01*
Y77470D01*
X438030Y80481D02*
X440570D01*
X443110Y83021D01*
X445650Y80481D01*
X448190D01*
Y83021D01*
X445650Y85561D01*
X448190Y88101D01*
Y90641D01*
X445650D01*
X443110Y88101D01*
X440570Y90641D01*
X438030D01*
Y88101D01*
X440570Y85561D01*
X438030Y83021D01*
Y80481D01*
X509448Y80569D02*
X511988D01*
X514528Y83109D01*
X517068Y80569D01*
X519608D01*
Y83109D01*
X517068Y85649D01*
X519608Y88189D01*
Y90729D01*
X517068D01*
X514528Y88189D01*
X511988Y90729D01*
X509448D01*
Y88189D01*
X511988Y85649D01*
X509448Y83109D01*
Y80569D01*
X566300Y79211D02*
X568840D01*
X571380Y81751D01*
X573920Y79211D01*
X576460D01*
Y81751D01*
X573920Y84291D01*
X576460Y86831D01*
Y89371D01*
X573920D01*
X571380Y86831D01*
X568840Y89371D01*
X566300D01*
Y86831D01*
X568840Y84291D01*
X566300Y81751D01*
Y79211D01*
X637718Y79299D02*
X640258D01*
X642798Y81839D01*
X645338Y79299D01*
X647878D01*
Y81839D01*
X645338Y84379D01*
X647878Y86919D01*
Y89459D01*
X645338D01*
X642798Y86919D01*
X640258Y89459D01*
X637718D01*
Y86919D01*
X640258Y84379D01*
X637718Y81839D01*
Y79299D01*
Y15799D02*
X640258D01*
X642798Y18339D01*
X645338Y15799D01*
X647878D01*
Y18339D01*
X645338Y20879D01*
X647878Y23419D01*
Y25959D01*
X645338D01*
X642798Y23419D01*
X640258Y25959D01*
X637718D01*
Y23419D01*
X640258Y20879D01*
X637718Y18339D01*
Y15799D01*
X566300Y15711D02*
X568840D01*
X571380Y18251D01*
X573920Y15711D01*
X576460D01*
Y18251D01*
X573920Y20791D01*
X576460Y23331D01*
Y25871D01*
X573920D01*
X571380Y23331D01*
X568840Y25871D01*
X566300D01*
Y23331D01*
X568840Y20791D01*
X566300Y18251D01*
Y15711D01*
X509448Y17069D02*
X511988D01*
X514528Y19609D01*
X517068Y17069D01*
X519608D01*
Y19609D01*
X517068Y22149D01*
X519608Y24689D01*
Y27229D01*
X517068D01*
X514528Y24689D01*
X511988Y27229D01*
X509448D01*
Y24689D01*
X511988Y22149D01*
X509448Y19609D01*
Y17069D01*
X438030Y16981D02*
X440570D01*
X443110Y19521D01*
X445650Y16981D01*
X448190D01*
Y19521D01*
X445650Y22061D01*
X448190Y24601D01*
Y27141D01*
X445650D01*
X443110Y24601D01*
X440570Y27141D01*
X438030D01*
Y24601D01*
X440570Y22061D01*
X438030Y19521D01*
Y16981D01*
X419100Y16510D02*
X421640D01*
X424180Y19050D01*
X426720Y16510D01*
X429260D01*
Y19050D01*
X426720Y21590D01*
X429260Y24130D01*
Y26670D01*
X426720D01*
X424180Y24130D01*
X421640Y26670D01*
X419100D01*
Y24130D01*
X421640Y21590D01*
X419100Y19050D01*
Y16510D01*
X347682Y16422D02*
X350222D01*
X352762Y18962D01*
X355302Y16422D01*
X357842D01*
Y18962D01*
X355302Y21502D01*
X357842Y24042D01*
Y26582D01*
X355302D01*
X352762Y24042D01*
X350222Y26582D01*
X347682D01*
Y24042D01*
X350222Y21502D01*
X347682Y18962D01*
Y16422D01*
X687705Y107712D02*
X690245D01*
X692785Y110252D01*
X695325Y107712D01*
X697865D01*
Y110252D01*
X695325Y112792D01*
X697865Y115332D01*
Y117872D01*
X695325D01*
X692785Y115332D01*
X690245Y117872D01*
X687705D01*
Y115332D01*
X690245Y112792D01*
X687705Y110252D01*
Y107712D01*
X642620Y228600D02*
X645160D01*
X647700Y231140D01*
X650240Y228600D01*
X652780D01*
Y231140D01*
X650240Y233680D01*
X652780Y236220D01*
Y238760D01*
X650240D01*
X647700Y236220D01*
X645160Y238760D01*
X642620D01*
Y236220D01*
X645160Y233680D01*
X642620Y231140D01*
Y228600D01*
Y250190D02*
X645160D01*
X647700Y252730D01*
X650240Y250190D01*
X652780D01*
Y252730D01*
X650240Y255270D01*
X652780Y257810D01*
Y260350D01*
X650240D01*
X647700Y257810D01*
X645160Y260350D01*
X642620D01*
Y257810D01*
X645160Y255270D01*
X642620Y252730D01*
Y250190D01*
X419100Y114300D02*
X421640D01*
X424180Y116840D01*
X426720Y114300D01*
X429260D01*
Y116840D01*
X426720Y119380D01*
X429260Y121920D01*
Y124460D01*
X426720D01*
X424180Y121920D01*
X421640Y124460D01*
X419100D01*
Y121920D01*
X421640Y119380D01*
X419100Y116840D01*
Y114300D01*
X579039Y157562D02*
X581578D01*
X584118Y160102D01*
X586659Y157562D01*
X589198D01*
Y160102D01*
X586659Y162642D01*
X589198Y165182D01*
Y167722D01*
X586659D01*
X584118Y165182D01*
X581578Y167722D01*
X579039D01*
Y165182D01*
X581578Y162642D01*
X579039Y160102D01*
Y157562D01*
X431800Y119380D02*
X434340D01*
X436880Y121920D01*
X439420Y119380D01*
X441960D01*
Y121920D01*
X439420Y124460D01*
X441960Y127000D01*
Y129540D01*
X439420D01*
X436880Y127000D01*
X434340Y129540D01*
X431800D01*
Y127000D01*
X434340Y124460D01*
X431800Y121920D01*
Y119380D01*
X422910Y123190D02*
X425450D01*
X427990Y125730D01*
X430530Y123190D01*
X433070D01*
Y125730D01*
X430530Y128270D01*
X433070Y130810D01*
Y133350D01*
X430530D01*
X427990Y130810D01*
X425450Y133350D01*
X422910D01*
Y130810D01*
X425450Y128270D01*
X422910Y125730D01*
Y123190D01*
X603250Y250190D02*
X605790D01*
X608330Y252730D01*
X610870Y250190D01*
X613410D01*
Y252730D01*
X610870Y255270D01*
X613410Y257810D01*
Y260350D01*
X610870D01*
X608330Y257810D01*
X605790Y260350D01*
X603250D01*
Y257810D01*
X605790Y255270D01*
X603250Y252730D01*
Y250190D01*
X499745Y288290D02*
X502285D01*
X504825Y290830D01*
X507365Y288290D01*
X509905D01*
Y290830D01*
X507365Y293370D01*
X509905Y295910D01*
Y298450D01*
X507365D01*
X504825Y295910D01*
X502285Y298450D01*
X499745D01*
Y295910D01*
X502285Y293370D01*
X499745Y290830D01*
Y288290D01*
X450850Y238760D02*
X453390D01*
X455930Y241300D01*
X458470Y238760D01*
X461010D01*
Y241300D01*
X458470Y243840D01*
X461010Y246380D01*
Y248920D01*
X458470D01*
X455930Y246380D01*
X453390Y248920D01*
X450850D01*
Y246380D01*
X453390Y243840D01*
X450850Y241300D01*
Y238760D01*
X616331Y142240D02*
X618871D01*
X621411Y144780D01*
X623951Y142240D01*
X626491D01*
Y144780D01*
X623951Y147320D01*
X626491Y149860D01*
Y152400D01*
X623951D01*
X621411Y149860D01*
X618871Y152400D01*
X616331D01*
Y149860D01*
X618871Y147320D01*
X616331Y144780D01*
Y142240D01*
X615950Y154940D02*
X618490D01*
X621030Y157480D01*
X623570Y154940D01*
X626110D01*
Y157480D01*
X623570Y160020D01*
X626110Y162560D01*
Y165100D01*
X623570D01*
X621030Y162560D01*
X618490Y165100D01*
X615950D01*
Y162560D01*
X618490Y160020D01*
X615950Y157480D01*
Y154940D01*
X571500Y299720D02*
X574040D01*
X576580Y302260D01*
X579120Y299720D01*
X581660D01*
Y302260D01*
X579120Y304800D01*
X581660Y307340D01*
Y309880D01*
X579120D01*
X576580Y307340D01*
X574040Y309880D01*
X571500D01*
Y307340D01*
X574040Y304800D01*
X571500Y302260D01*
Y299720D01*
X548640Y328930D02*
X551180D01*
X553720Y331470D01*
X556260Y328930D01*
X558800D01*
Y331470D01*
X556260Y334010D01*
X558800Y336550D01*
Y339090D01*
X556260D01*
X553720Y336550D01*
X551180Y339090D01*
X548640D01*
Y336550D01*
X551180Y334010D01*
X548640Y331470D01*
Y328930D01*
X533400D02*
X535940D01*
X538480Y331470D01*
X541020Y328930D01*
X543560D01*
Y331470D01*
X541020Y334010D01*
X543560Y336550D01*
Y339090D01*
X541020D01*
X538480Y336550D01*
X535940Y339090D01*
X533400D01*
Y336550D01*
X535940Y334010D01*
X533400Y331470D01*
Y328930D01*
X520700D02*
X523240D01*
X525780Y331470D01*
X528320Y328930D01*
X530860D01*
Y331470D01*
X528320Y334010D01*
X530860Y336550D01*
Y339090D01*
X528320D01*
X525780Y336550D01*
X523240Y339090D01*
X520700D01*
Y336550D01*
X523240Y334010D01*
X520700Y331470D01*
Y328930D01*
X614680Y322580D02*
X617220D01*
X619760Y325120D01*
X622300Y322580D01*
X624840D01*
Y325120D01*
X622300Y327660D01*
X624840Y330200D01*
Y332740D01*
X622300D01*
X619760Y330200D01*
X617220Y332740D01*
X614680D01*
Y330200D01*
X617220Y327660D01*
X614680Y325120D01*
Y322580D01*
X627380Y330200D02*
X629920D01*
X632460Y332740D01*
X635000Y330200D01*
X637540D01*
Y332740D01*
X635000Y335280D01*
X637540Y337820D01*
Y340360D01*
X635000D01*
X632460Y337820D01*
X629920Y340360D01*
X627380D01*
Y337820D01*
X629920Y335280D01*
X627380Y332740D01*
Y330200D01*
Y359410D02*
X629920D01*
X632460Y361950D01*
X635000Y359410D01*
X637540D01*
Y361950D01*
X635000Y364490D01*
X637540Y367030D01*
Y369570D01*
X635000D01*
X632460Y367030D01*
X629920Y369570D01*
X627380D01*
Y367030D01*
X629920Y364490D01*
X627380Y361950D01*
Y359410D01*
X614680D02*
X617220D01*
X619760Y361950D01*
X622300Y359410D01*
X624840D01*
Y361950D01*
X622300Y364490D01*
X624840Y367030D01*
Y369570D01*
X622300D01*
X619760Y367030D01*
X617220Y369570D01*
X614680D01*
Y367030D01*
X617220Y364490D01*
X614680Y361950D01*
Y359410D01*
X600710Y310261D02*
X603250D01*
X605790Y312801D01*
X608330Y310261D01*
X610870D01*
Y312801D01*
X608330Y315341D01*
X610870Y317881D01*
Y320421D01*
X608330D01*
X605790Y317881D01*
X603250Y320421D01*
X600710D01*
Y317881D01*
X603250Y315341D01*
X600710Y312801D01*
Y310261D01*
X588010Y308610D02*
X590550D01*
X593090Y311150D01*
X595630Y308610D01*
X598170D01*
Y311150D01*
X595630Y313690D01*
X598170Y316230D01*
Y318770D01*
X595630D01*
X593090Y316230D01*
X590550Y318770D01*
X588010D01*
Y316230D01*
X590550Y313690D01*
X588010Y311150D01*
Y308610D01*
X514350Y284480D02*
X516890D01*
X519430Y287020D01*
X521970Y284480D01*
X524510D01*
Y287020D01*
X521970Y289560D01*
X524510Y292100D01*
Y294640D01*
X521970D01*
X519430Y292100D01*
X516890Y294640D01*
X514350D01*
Y292100D01*
X516890Y289560D01*
X514350Y287020D01*
Y284480D01*
X429260Y151130D02*
X431800D01*
X434340Y153670D01*
X436880Y151130D01*
X439420D01*
Y153670D01*
X436880Y156210D01*
X439420Y158750D01*
Y161290D01*
X436880D01*
X434340Y158750D01*
X431800Y161290D01*
X429260D01*
Y158750D01*
X431800Y156210D01*
X429260Y153670D01*
Y151130D01*
X453390Y247650D02*
X455930D01*
X458470Y250190D01*
X461010Y247650D01*
X463550D01*
Y250190D01*
X461010Y252730D01*
X463550Y255270D01*
Y257810D01*
X461010D01*
X458470Y255270D01*
X455930Y257810D01*
X453390D01*
Y255270D01*
X455930Y252730D01*
X453390Y250190D01*
Y247650D01*
X420878Y246888D02*
X423418D01*
X425958Y249428D01*
X428498Y246888D01*
X431038D01*
Y249428D01*
X428498Y251968D01*
X431038Y254508D01*
Y257048D01*
X428498D01*
X425958Y254508D01*
X423418Y257048D01*
X420878D01*
Y254508D01*
X423418Y251968D01*
X420878Y249428D01*
Y246888D01*
X342900Y81280D02*
X345440D01*
X347980Y83820D01*
X350520Y81280D01*
X353060D01*
Y83820D01*
X350520Y86360D01*
X353060Y88900D01*
Y91440D01*
X350520D01*
X347980Y88900D01*
X345440Y91440D01*
X342900D01*
Y88900D01*
X345440Y86360D01*
X342900Y83820D01*
Y81280D01*
X375920D02*
X378460D01*
X381000Y83820D01*
X383540Y81280D01*
X386080D01*
Y83820D01*
X383540Y86360D01*
X386080Y88900D01*
Y91440D01*
X383540D01*
X381000Y88900D01*
X378460Y91440D01*
X375920D01*
Y88900D01*
X378460Y86360D01*
X375920Y83820D01*
Y81280D01*
Y93980D02*
X378460D01*
X381000Y96520D01*
X383540Y93980D01*
X386080D01*
Y96520D01*
X383540Y99060D01*
X386080Y101600D01*
Y104140D01*
X383540D01*
X381000Y101600D01*
X378460Y104140D01*
X375920D01*
Y101600D01*
X378460Y99060D01*
X375920Y96520D01*
Y93980D01*
X359410D02*
X361950D01*
X364490Y96520D01*
X367030Y93980D01*
X369570D01*
Y96520D01*
X367030Y99060D01*
X369570Y101600D01*
Y104140D01*
X367030D01*
X364490Y101600D01*
X361950Y104140D01*
X359410D01*
Y101600D01*
X361950Y99060D01*
X359410Y96520D01*
Y93980D01*
X342900D02*
X345440D01*
X347980Y96520D01*
X350520Y93980D01*
X353060D01*
Y96520D01*
X350520Y99060D01*
X353060Y101600D01*
Y104140D01*
X350520D01*
X347980Y101600D01*
X345440Y104140D01*
X342900D01*
Y101600D01*
X345440Y99060D01*
X342900Y96520D01*
Y93980D01*
X254000Y140970D02*
X256540D01*
X259080Y143510D01*
X261620Y140970D01*
X264160D01*
Y143510D01*
X261620Y146050D01*
X264160Y148590D01*
Y151130D01*
X261620D01*
X259080Y148590D01*
X256540Y151130D01*
X254000D01*
Y148590D01*
X256540Y146050D01*
X254000Y143510D01*
Y140970D01*
D122*
X332740Y91440D02*
G03*
X332740Y91440I-5080J0D01*
G01*
Y66040D02*
G03*
X332740Y66040I-5080J0D01*
G01*
Y40640D02*
G03*
X332740Y40640I-5080J0D01*
G01*
Y15240D02*
G03*
X332740Y15240I-5080J0D01*
G01*
X304800Y15420D02*
G03*
X304800Y15420I-5080J0D01*
G01*
Y40820D02*
G03*
X304800Y40820I-5080J0D01*
G01*
Y66220D02*
G03*
X304800Y66220I-5080J0D01*
G01*
Y91620D02*
G03*
X304800Y91620I-5080J0D01*
G01*
X25400Y331470D02*
G03*
X25400Y331470I-5080J0D01*
G01*
X50800D02*
G03*
X50800Y331470I-5080J0D01*
G01*
M02*
