G04*
G04 #@! TF.GenerationSoftware,Altium Limited,Altium Designer,24.0.1 (36)*
G04*
G04 Layer_Color=255*
%FSLAX44Y44*%
%MOMM*%
G71*
G04*
G04 #@! TF.SameCoordinates,72622C8A-B07E-4F55-B3FE-632304D3AF33*
G04*
G04*
G04 #@! TF.FilePolarity,Positive*
G04*
G01*
G75*
%ADD28R,1.0160X0.7620*%
%ADD84C,4.5000*%
%ADD91C,3.5000*%
%ADD95O,2.0000X3.0000*%
%ADD96R,1.7000X1.7000*%
%ADD97C,1.7000*%
%ADD98R,1.7000X1.7000*%
%ADD99C,3.2000*%
%ADD100C,1.8000*%
%ADD110R,1.6510X0.8000*%
%ADD111R,1.7000X2.8000*%
%ADD112R,4.6000X3.6000*%
%ADD113R,0.8000X1.3210*%
D28*
X406781Y356870D02*
D03*
X388239D02*
D03*
X181229Y156210D02*
D03*
X199771D02*
D03*
X195961Y336550D02*
D03*
X177419D02*
D03*
D84*
X25000Y375000D02*
D03*
Y25000D02*
D03*
X725000Y375000D02*
D03*
Y25000D02*
D03*
D91*
X539530Y43140D02*
D03*
Y358140D02*
D03*
X684530Y43140D02*
D03*
Y358140D02*
D03*
D95*
X72390Y43180D02*
D03*
X119390D02*
D03*
X166390D02*
D03*
D96*
X327660Y91440D02*
D03*
X299720Y15420D02*
D03*
D97*
X327660Y66040D02*
D03*
Y40640D02*
D03*
Y15240D02*
D03*
X299720Y40820D02*
D03*
Y66220D02*
D03*
Y91620D02*
D03*
X20320Y331470D02*
D03*
D98*
X45720D02*
D03*
D99*
X31750Y232810D02*
D03*
Y282810D02*
D03*
X722630Y198520D02*
D03*
Y248520D02*
D03*
X29210Y113030D02*
D03*
Y163030D02*
D03*
D100*
X139700Y345440D02*
D03*
X89700D02*
D03*
D110*
X617220Y110490D02*
D03*
X591820D02*
D03*
X459740D02*
D03*
X434340D02*
D03*
X408940D02*
D03*
X383540D02*
D03*
Y341630D02*
D03*
X408940D02*
D03*
X434340D02*
D03*
X459740D02*
D03*
X591820D02*
D03*
X617220D02*
D03*
D111*
X151130Y182880D02*
D03*
X125730D02*
D03*
X176530D02*
D03*
X201930D02*
D03*
X227330D02*
D03*
X252730D02*
D03*
Y309880D02*
D03*
X227330D02*
D03*
X201930D02*
D03*
X176530D02*
D03*
X151130D02*
D03*
X125730D02*
D03*
D112*
X85090Y186840D02*
D03*
D113*
X104140Y210594D02*
D03*
X91440D02*
D03*
X78740D02*
D03*
X66040D02*
D03*
Y150086D02*
D03*
X78740D02*
D03*
X91440D02*
D03*
X104140D02*
D03*
M02*
