G04*
G04 #@! TF.GenerationSoftware,Altium Limited,Altium Designer,24.0.1 (36)*
G04*
G04 Layer_Physical_Order=3*
G04 Layer_Color=128*
%FSLAX44Y44*%
%MOMM*%
G71*
G04*
G04 #@! TF.SameCoordinates,72622C8A-B07E-4F55-B3FE-632304D3AF33*
G04*
G04*
G04 #@! TF.FilePolarity,Negative*
G04*
G01*
G75*
%ADD102C,1.0160*%
%ADD103O,2.3160X3.0160*%
%ADD104C,1.9160*%
%ADD105C,2.9160*%
%ADD106C,2.0160*%
%ADD107C,1.3208*%
%ADD108C,4.2160*%
%ADD109C,3.2160*%
D102*
X725000Y0D02*
G03*
X750000Y25000I0J25000D01*
G01*
Y375000D02*
G03*
X725000Y400000I-25000J-0D01*
G01*
X0Y25000D02*
G03*
X25000Y0I25000J0D01*
G01*
Y400000D02*
G03*
X0Y375000I0J-25000D01*
G01*
X25000Y0D02*
X725000D01*
X750000Y25000D02*
Y375000D01*
X25000Y400000D02*
X725000D01*
X0Y25000D02*
Y375000D01*
D103*
X72390Y43180D02*
D03*
X119390D02*
D03*
X166390D02*
D03*
D104*
X327660Y66040D02*
D03*
Y40640D02*
D03*
Y15240D02*
D03*
X299720Y15420D02*
D03*
Y40820D02*
D03*
Y66220D02*
D03*
Y91620D02*
D03*
X20320Y331470D02*
D03*
X45720D02*
D03*
D105*
X31750Y232810D02*
D03*
Y282810D02*
D03*
X722630Y248520D02*
D03*
X29210Y113030D02*
D03*
Y163030D02*
D03*
D106*
X139700Y345440D02*
D03*
D107*
X406400Y77470D02*
D03*
X407670Y176530D02*
D03*
Y190500D02*
D03*
Y204470D02*
D03*
X80089Y181841D02*
D03*
X90089D02*
D03*
X80089Y191841D02*
D03*
X90089D02*
D03*
X227330Y298773D02*
D03*
X431800Y300990D02*
D03*
X175260Y201930D02*
D03*
X121920Y162560D02*
D03*
X49530Y198120D02*
D03*
X378460Y173990D02*
D03*
X181610Y146050D02*
D03*
X165100Y145627D02*
D03*
X181610Y102447D02*
D03*
X165100D02*
D03*
X181610Y131516D02*
D03*
X165100Y131233D02*
D03*
X181610Y116981D02*
D03*
X165100Y116840D02*
D03*
X365760Y173990D02*
D03*
X351790D02*
D03*
X337820D02*
D03*
X323850D02*
D03*
X309880D02*
D03*
X295910D02*
D03*
X281940D02*
D03*
X267970D02*
D03*
X425450Y77470D02*
D03*
X412750Y119062D02*
D03*
X378460Y313690D02*
D03*
X472440Y299720D02*
D03*
X474980Y270510D02*
D03*
X471170Y260350D02*
D03*
X521970Y245110D02*
D03*
X407670Y259080D02*
D03*
X462280Y308610D02*
D03*
X521970Y205740D02*
D03*
X335280Y332740D02*
D03*
X521970Y214630D02*
D03*
X582930Y283210D02*
D03*
X129540Y207010D02*
D03*
X104140Y297180D02*
D03*
X150622Y250698D02*
D03*
X203200Y284480D02*
D03*
X165100Y270256D02*
D03*
Y227584D02*
D03*
Y241808D02*
D03*
Y213360D02*
D03*
X208280Y223520D02*
D03*
X260350Y266700D02*
D03*
X396240Y90170D02*
D03*
X609600Y233680D02*
D03*
X607060Y245110D02*
D03*
X427990Y137160D02*
D03*
X459460Y198400D02*
D03*
X648970Y339090D02*
D03*
X651510Y349250D02*
D03*
X610870Y375920D02*
D03*
X596900Y363220D02*
D03*
X610870Y213360D02*
D03*
X227330Y318770D02*
D03*
X207201Y336550D02*
D03*
X171450Y386080D02*
D03*
Y370840D02*
D03*
X576410Y377650D02*
D03*
X650410D02*
D03*
X728980Y60360D02*
D03*
Y152724D02*
D03*
X373262Y42002D02*
D03*
X403860Y27940D02*
D03*
X403264Y42002D02*
D03*
X402590Y57150D02*
D03*
X306070Y342900D02*
D03*
X306309Y356870D02*
D03*
X306070Y370840D02*
D03*
X285392Y377282D02*
D03*
X356810Y377370D02*
D03*
X406400Y370840D02*
D03*
X499110Y332740D02*
D03*
X227330Y194310D02*
D03*
Y182880D02*
D03*
X416560Y345440D02*
D03*
Y358140D02*
D03*
X425450Y176530D02*
D03*
Y193040D02*
D03*
X622300Y95250D02*
D03*
X493611Y106061D02*
D03*
Y42561D02*
D03*
X494030Y71120D02*
D03*
Y82550D02*
D03*
X621881Y41291D02*
D03*
X622300Y67310D02*
D03*
Y80010D02*
D03*
X443110Y85561D02*
D03*
X514528Y85649D02*
D03*
X571380Y84291D02*
D03*
X642798Y84379D02*
D03*
Y20879D02*
D03*
X571380Y20791D02*
D03*
X514528Y22149D02*
D03*
X443110Y22061D02*
D03*
X424180Y21590D02*
D03*
X352762Y21502D02*
D03*
X692785Y112792D02*
D03*
X647700Y233680D02*
D03*
Y255270D02*
D03*
X424180Y119380D02*
D03*
X584118Y162642D02*
D03*
X436880Y124460D02*
D03*
X427990Y128270D02*
D03*
X608330Y255270D02*
D03*
X504825Y293370D02*
D03*
X455930Y243840D02*
D03*
X621411Y147320D02*
D03*
X621030Y160020D02*
D03*
X576580Y304800D02*
D03*
X553720Y334010D02*
D03*
X538480D02*
D03*
X525780D02*
D03*
X619760Y327660D02*
D03*
Y364490D02*
D03*
X605790Y315341D02*
D03*
X593090Y313690D02*
D03*
X519430Y289560D02*
D03*
X434340Y156210D02*
D03*
X458470Y252730D02*
D03*
X425958Y251968D02*
D03*
D108*
X25000Y375000D02*
D03*
Y25000D02*
D03*
X725000Y375000D02*
D03*
Y25000D02*
D03*
D109*
X539530Y43140D02*
D03*
Y358140D02*
D03*
X684530Y43140D02*
D03*
Y358140D02*
D03*
M02*
