G04*
G04 #@! TF.GenerationSoftware,Altium Limited,Altium Designer,24.0.1 (36)*
G04*
G04 Layer_Color=128*
%FSLAX44Y44*%
%MOMM*%
G71*
G04*
G04 #@! TF.SameCoordinates,72622C8A-B07E-4F55-B3FE-632304D3AF33*
G04*
G04*
G04 #@! TF.FilePolarity,Positive*
G04*
G01*
G75*
%ADD121C,0.1270*%
D121*
X9000Y375000D02*
X41000D01*
X25000Y359000D02*
Y391000D01*
X9000Y25000D02*
X41000D01*
X25000Y9000D02*
Y41000D01*
X65890Y43180D02*
X78890D01*
X72390Y36680D02*
Y49680D01*
X112890Y43180D02*
X125890D01*
X119390Y36680D02*
Y49680D01*
X159890Y43180D02*
X172890D01*
X166390Y36680D02*
Y49680D01*
X323160Y91440D02*
X332160D01*
X327660Y86940D02*
Y95940D01*
X323160Y66040D02*
X332160D01*
X327660Y61540D02*
Y70540D01*
X323160Y40640D02*
X332160D01*
X327660Y36140D02*
Y45140D01*
X323160Y15240D02*
X332160D01*
X327660Y10740D02*
Y19740D01*
X295220Y15420D02*
X304220D01*
X299720Y10920D02*
Y19920D01*
X295220Y40820D02*
X304220D01*
X299720Y36320D02*
Y45320D01*
X295220Y66220D02*
X304220D01*
X299720Y61720D02*
Y70720D01*
X295220Y91620D02*
X304220D01*
X299720Y87120D02*
Y96120D01*
X15820Y331470D02*
X24820D01*
X20320Y326970D02*
Y335970D01*
X41220Y331470D02*
X50220D01*
X45720Y326970D02*
Y335970D01*
X22250Y232810D02*
X41250D01*
X31750Y223310D02*
Y242310D01*
X22250Y282810D02*
X41250D01*
X31750Y273310D02*
Y292310D01*
X713130Y198520D02*
X732130D01*
X722630Y189020D02*
Y208020D01*
X713130Y248520D02*
X732130D01*
X722630Y239020D02*
Y258020D01*
X709000Y375000D02*
X741000D01*
X725000Y359000D02*
Y391000D01*
X19710Y113030D02*
X38710D01*
X29210Y103530D02*
Y122530D01*
X19710Y163030D02*
X38710D01*
X29210Y153530D02*
Y172530D01*
X134700Y345440D02*
X144700D01*
X139700Y340440D02*
Y350440D01*
X84700Y345440D02*
X94700D01*
X89700Y340440D02*
Y350440D01*
X528530Y43140D02*
X550530D01*
X539530Y32140D02*
Y54140D01*
X528530Y358140D02*
X550530D01*
X539530Y347140D02*
Y369140D01*
X673530Y43140D02*
X695530D01*
X684530Y32140D02*
Y54140D01*
X673530Y358140D02*
X695530D01*
X684530Y347140D02*
Y369140D01*
X709000Y25000D02*
X741000D01*
X725000Y9000D02*
Y41000D01*
X404876Y77470D02*
X407924D01*
X406400Y75946D02*
Y78994D01*
X406146Y176530D02*
X409194D01*
X407670Y175006D02*
Y178054D01*
X406146Y190500D02*
X409194D01*
X407670Y188976D02*
Y192024D01*
X406146Y204470D02*
X409194D01*
X407670Y202946D02*
Y205994D01*
X387096Y40640D02*
X390144D01*
X388620Y39116D02*
Y42164D01*
X387096Y27940D02*
X390144D01*
X388620Y26416D02*
Y29464D01*
X387096Y53340D02*
X390144D01*
X388620Y51816D02*
Y54864D01*
X380746Y120650D02*
X383794D01*
X382270Y119126D02*
Y122174D01*
X78565Y181841D02*
X81613D01*
X80089Y180317D02*
Y183365D01*
X88565Y181841D02*
X91613D01*
X90089Y180317D02*
Y183365D01*
X78565Y191841D02*
X81613D01*
X80089Y190317D02*
Y193365D01*
X88565Y191841D02*
X91613D01*
X90089Y190317D02*
Y193365D01*
X225806Y298773D02*
X228854D01*
X227330Y297249D02*
Y300297D01*
X430276Y300990D02*
X433324D01*
X431800Y299466D02*
Y302514D01*
X173736Y201930D02*
X176784D01*
X175260Y200406D02*
Y203454D01*
X149606Y193040D02*
X152654D01*
X151130Y191516D02*
Y194564D01*
X120396Y162560D02*
X123444D01*
X121920Y161036D02*
Y164084D01*
X48006Y198120D02*
X51054D01*
X49530Y196596D02*
Y199644D01*
X376936Y173990D02*
X379984D01*
X378460Y172466D02*
Y175514D01*
X180086Y146050D02*
X183134D01*
X181610Y144526D02*
Y147574D01*
X163576Y145627D02*
X166624D01*
X165100Y144103D02*
Y147151D01*
X180086Y102447D02*
X183134D01*
X181610Y100923D02*
Y103971D01*
X163576Y102447D02*
X166624D01*
X165100Y100923D02*
Y103971D01*
X180086Y131516D02*
X183134D01*
X181610Y129992D02*
Y133040D01*
X163576Y131233D02*
X166624D01*
X165100Y129709D02*
Y132757D01*
X180086Y116981D02*
X183134D01*
X181610Y115457D02*
Y118505D01*
X163576Y116840D02*
X166624D01*
X165100Y115316D02*
Y118364D01*
X364236Y173990D02*
X367284D01*
X365760Y172466D02*
Y175514D01*
X350266Y173990D02*
X353314D01*
X351790Y172466D02*
Y175514D01*
X336296Y173990D02*
X339344D01*
X337820Y172466D02*
Y175514D01*
X322326Y173990D02*
X325374D01*
X323850Y172466D02*
Y175514D01*
X308356Y173990D02*
X311404D01*
X309880Y172466D02*
Y175514D01*
X294386Y173990D02*
X297434D01*
X295910Y172466D02*
Y175514D01*
X280416Y173990D02*
X283464D01*
X281940Y172466D02*
Y175514D01*
X266446Y173990D02*
X269494D01*
X267970Y172466D02*
Y175514D01*
X362966Y86360D02*
X366014D01*
X364490Y84836D02*
Y87884D01*
X423926Y77470D02*
X426974D01*
X425450Y75946D02*
Y78994D01*
X411226Y119062D02*
X414274D01*
X412750Y117538D02*
Y120586D01*
X376936Y313690D02*
X379984D01*
X378460Y312166D02*
Y315214D01*
X470916Y299720D02*
X473964D01*
X472440Y298196D02*
Y301244D01*
X473456Y270510D02*
X476504D01*
X474980Y268986D02*
Y272034D01*
X469646Y260350D02*
X472694D01*
X471170Y258826D02*
Y261874D01*
X520446Y245110D02*
X523494D01*
X521970Y243586D02*
Y246634D01*
X406146Y259080D02*
X409194D01*
X407670Y257556D02*
Y260604D01*
X460756Y308610D02*
X463804D01*
X462280Y307086D02*
Y310134D01*
X520446Y205740D02*
X523494D01*
X521970Y204216D02*
Y207264D01*
X333756Y332740D02*
X336804D01*
X335280Y331216D02*
Y334264D01*
X520446Y214630D02*
X523494D01*
X521970Y213106D02*
Y216154D01*
X581406Y283210D02*
X584454D01*
X582930Y281686D02*
Y284734D01*
X128016Y207010D02*
X131064D01*
X129540Y205486D02*
Y208534D01*
X102616Y297180D02*
X105664D01*
X104140Y295656D02*
Y298704D01*
X149098Y250698D02*
X152146D01*
X150622Y249174D02*
Y252222D01*
X201676Y284480D02*
X204724D01*
X203200Y282956D02*
Y286004D01*
X163576Y270256D02*
X166624D01*
X165100Y268732D02*
Y271780D01*
X163576Y227584D02*
X166624D01*
X165100Y226060D02*
Y229108D01*
X163576Y241808D02*
X166624D01*
X165100Y240284D02*
Y243332D01*
X163576Y213360D02*
X166624D01*
X165100Y211836D02*
Y214884D01*
X206756Y223520D02*
X209804D01*
X208280Y221996D02*
Y225044D01*
X258826Y266700D02*
X261874D01*
X260350Y265176D02*
Y268224D01*
X394716Y90170D02*
X397764D01*
X396240Y88646D02*
Y91694D01*
X608076Y233680D02*
X611124D01*
X609600Y232156D02*
Y235204D01*
X605536Y245110D02*
X608584D01*
X607060Y243586D02*
Y246634D01*
X426466Y137160D02*
X429514D01*
X427990Y135636D02*
Y138684D01*
X457936Y198400D02*
X460984D01*
X459460Y196876D02*
Y199924D01*
X647446Y339090D02*
X650494D01*
X648970Y337566D02*
Y340614D01*
X649986Y349250D02*
X653034D01*
X651510Y347726D02*
Y350774D01*
X609346Y375920D02*
X612394D01*
X610870Y374396D02*
Y377444D01*
X595376Y363220D02*
X598424D01*
X596900Y361696D02*
Y364744D01*
X609346Y213360D02*
X612394D01*
X610870Y211836D02*
Y214884D01*
X225806Y318770D02*
X228854D01*
X227330Y317246D02*
Y320294D01*
X149606Y302260D02*
X152654D01*
X151130Y300736D02*
Y303784D01*
X149606Y318770D02*
X152654D01*
X151130Y317246D02*
Y320294D01*
X205676Y336550D02*
X208724D01*
X207201Y335026D02*
Y338074D01*
X163576Y336550D02*
X166624D01*
X165100Y335026D02*
Y338074D01*
X169926Y386080D02*
X172974D01*
X171450Y384556D02*
Y387604D01*
X169926Y370840D02*
X172974D01*
X171450Y369316D02*
Y372364D01*
X574886Y377650D02*
X577934D01*
X576410Y376126D02*
Y379174D01*
X648886Y377650D02*
X651934D01*
X650410Y376126D02*
Y379174D01*
X727456Y60360D02*
X730504D01*
X728980Y58836D02*
Y61884D01*
X727456Y152724D02*
X730504D01*
X728980Y151200D02*
Y154248D01*
X371738Y42002D02*
X374786D01*
X373262Y40478D02*
Y43526D01*
X402336Y27940D02*
X405384D01*
X403860Y26416D02*
Y29464D01*
X401740Y42002D02*
X404788D01*
X403264Y40478D02*
Y43526D01*
X401066Y57150D02*
X404114D01*
X402590Y55626D02*
Y58674D01*
X319786Y342900D02*
X322834D01*
X321310Y341376D02*
Y344424D01*
X319786Y356870D02*
X322834D01*
X321310Y355346D02*
Y358394D01*
X319786Y370840D02*
X322834D01*
X321310Y369316D02*
Y372364D01*
X304546Y342900D02*
X307594D01*
X306070Y341376D02*
Y344424D01*
X304785Y356870D02*
X307833D01*
X306309Y355346D02*
Y358394D01*
X304546Y370840D02*
X307594D01*
X306070Y369316D02*
Y372364D01*
X283868Y377282D02*
X286916D01*
X285392Y375758D02*
Y378806D01*
X355286Y377370D02*
X358334D01*
X356810Y375846D02*
Y378894D01*
X404876Y370840D02*
X407924D01*
X406400Y369316D02*
Y372364D01*
X497586Y332740D02*
X500634D01*
X499110Y331216D02*
Y334264D01*
X225806Y194310D02*
X228854D01*
X227330Y192786D02*
Y195834D01*
X225806Y182880D02*
X228854D01*
X227330Y181356D02*
Y184404D01*
X149606Y182880D02*
X152654D01*
X151130Y181356D02*
Y184404D01*
X415036Y345440D02*
X418084D01*
X416560Y343916D02*
Y346964D01*
X415036Y358140D02*
X418084D01*
X416560Y356616D02*
Y359664D01*
X375666Y349250D02*
X378714D01*
X377190Y347726D02*
Y350774D01*
X375666Y359410D02*
X378714D01*
X377190Y357886D02*
Y360934D01*
X423926Y176530D02*
X426974D01*
X425450Y175006D02*
Y178054D01*
X423926Y193040D02*
X426974D01*
X425450Y191516D02*
Y194564D01*
X620776Y95250D02*
X623824D01*
X622300Y93726D02*
Y96774D01*
X605536Y95250D02*
X608584D01*
X607060Y93726D02*
Y96774D01*
X492088Y106061D02*
X495135D01*
X493611Y104537D02*
Y107585D01*
X477086Y106061D02*
X480134D01*
X478610Y104537D02*
Y107585D01*
X477086Y42561D02*
X480134D01*
X478610Y41037D02*
Y44085D01*
X492088Y42561D02*
X495135D01*
X493611Y41037D02*
Y44085D01*
X492506Y71120D02*
X495554D01*
X494030Y69596D02*
Y72644D01*
X492506Y82550D02*
X495554D01*
X494030Y81026D02*
Y84074D01*
X620358Y41291D02*
X623405D01*
X621881Y39767D02*
Y42815D01*
X605356Y41291D02*
X608404D01*
X606880Y39767D02*
Y42815D01*
X620776Y67310D02*
X623824D01*
X622300Y65786D02*
Y68834D01*
X620776Y80010D02*
X623824D01*
X622300Y78486D02*
Y81534D01*
X605536Y66040D02*
X608584D01*
X607060Y64516D02*
Y67564D01*
X605536Y80010D02*
X608584D01*
X607060Y78486D02*
Y81534D01*
X477266Y69850D02*
X480314D01*
X478790Y68326D02*
Y71374D01*
X477266Y82550D02*
X480314D01*
X478790Y81026D02*
Y84074D01*
X441586Y85561D02*
X444634D01*
X443110Y84037D02*
Y87085D01*
X513004Y85649D02*
X516052D01*
X514528Y84125D02*
Y87173D01*
X569856Y84291D02*
X572904D01*
X571380Y82767D02*
Y85815D01*
X641274Y84379D02*
X644322D01*
X642798Y82855D02*
Y85903D01*
X641274Y20879D02*
X644322D01*
X642798Y19355D02*
Y22403D01*
X569856Y20791D02*
X572904D01*
X571380Y19267D02*
Y22315D01*
X513004Y22149D02*
X516052D01*
X514528Y20625D02*
Y23673D01*
X441586Y22061D02*
X444634D01*
X443110Y20537D02*
Y23585D01*
X422656Y21590D02*
X425704D01*
X424180Y20066D02*
Y23114D01*
X351238Y21502D02*
X354286D01*
X352762Y19978D02*
Y23026D01*
X691261Y112792D02*
X694309D01*
X692785Y111268D02*
Y114316D01*
X646176Y233680D02*
X649224D01*
X647700Y232156D02*
Y235204D01*
X646176Y255270D02*
X649224D01*
X647700Y253746D02*
Y256794D01*
X422656Y119380D02*
X425704D01*
X424180Y117856D02*
Y120904D01*
X582594Y162642D02*
X585643D01*
X584118Y161118D02*
Y164166D01*
X435356Y124460D02*
X438404D01*
X436880Y122936D02*
Y125984D01*
X426466Y128270D02*
X429514D01*
X427990Y126746D02*
Y129794D01*
X606806Y255270D02*
X609854D01*
X608330Y253746D02*
Y256794D01*
X503301Y293370D02*
X506349D01*
X504825Y291846D02*
Y294894D01*
X454406Y243840D02*
X457454D01*
X455930Y242316D02*
Y245364D01*
X619887Y147320D02*
X622935D01*
X621411Y145796D02*
Y148844D01*
X619506Y160020D02*
X622554D01*
X621030Y158496D02*
Y161544D01*
X575056Y304800D02*
X578104D01*
X576580Y303276D02*
Y306324D01*
X552196Y334010D02*
X555244D01*
X553720Y332486D02*
Y335534D01*
X536956Y334010D02*
X540004D01*
X538480Y332486D02*
Y335534D01*
X524256Y334010D02*
X527304D01*
X525780Y332486D02*
Y335534D01*
X618236Y327660D02*
X621284D01*
X619760Y326136D02*
Y329184D01*
X630936Y335280D02*
X633984D01*
X632460Y333756D02*
Y336804D01*
X630936Y364490D02*
X633984D01*
X632460Y362966D02*
Y366014D01*
X618236Y364490D02*
X621284D01*
X619760Y362966D02*
Y366014D01*
X604266Y315341D02*
X607314D01*
X605790Y313817D02*
Y316865D01*
X591566Y313690D02*
X594614D01*
X593090Y312166D02*
Y315214D01*
X517906Y289560D02*
X520954D01*
X519430Y288036D02*
Y291084D01*
X432816Y156210D02*
X435864D01*
X434340Y154686D02*
Y157734D01*
X456946Y252730D02*
X459994D01*
X458470Y251206D02*
Y254254D01*
X424434Y251968D02*
X427482D01*
X425958Y250444D02*
Y253492D01*
X346456Y86360D02*
X349504D01*
X347980Y84836D02*
Y87884D01*
X379476Y86360D02*
X382524D01*
X381000Y84836D02*
Y87884D01*
X379476Y99060D02*
X382524D01*
X381000Y97536D02*
Y100584D01*
X362966Y99060D02*
X366014D01*
X364490Y97536D02*
Y100584D01*
X346456Y99060D02*
X349504D01*
X347980Y97536D02*
Y100584D01*
X257556Y146050D02*
X260604D01*
X259080Y144526D02*
Y147574D01*
M02*
