M48
;Layer_Color=9474304
;FILE_FORMAT=4:3
METRIC,LZ
;TYPE=PLATED
T01F00S00C0.305
T02F00S00C0.900
T03F00S00C1.000
T05F00S00C1.900
T06F00S00C2.200
T07F00S00C3.200
%
T01
X0072898Y0006036
Y0015272
X0069279Y0011279
X006428Y0008438
X006223Y0008001
Y0006731
X0060706Y0006604
Y0008001
Y0009525
X006223
X0062141Y0014732
X0062103Y0016002
X0058412Y0016264
X0061087Y0021336
X006096Y0023368
X0060706Y0024511
X0060833Y0025527
X006477
Y0023368
X0052197Y0024511
Y0021463
Y0020574
X0045946Y001984
X0042545Y0019304
Y0017653
X0040767
Y001905
Y0020447
Y0025908
X0042596Y0025197
X0045847Y0025273
X0045593Y0024384
X0043434Y0015621
X0042799Y0013716
Y0012827
X0042418Y0011938
X0041275Y0011906
X0043688Y0012446
X0044311Y0008556
X0042545Y0007747
X004064
X0039624Y0009017
X00381Y0008636
Y0009906
X0036449
Y0008636
X0034798
Y0009906
X0038227Y0012065
X0037846Y0017399
X0036576
X0035179
X0033782
X0032385
X0035276Y000215
X0037326Y00042
X0038862Y0004064
Y0002794
X0040386
X0040326Y00042
X0040259Y0005715
X0038862Y0005334
X0042418Y0002159
X0044311Y0002206
X0047861Y0004256
X0049361
X0049403Y0007112
Y0008255
X0047879
Y0006985
X0047861Y0010606
X0049361
X0051453Y0008565
X0057138Y0008429
Y0002079
X0060688Y0004129
X0062188
X006428Y0002088
X0051453Y0002215
X0030988Y0017399
X0029591
X0028194
X0026797
X0025908Y0014605
X0022733Y0018288
Y0019431
X0020828Y0022352
X001651Y0022758
Y0024181
X0015062Y002507
X001651Y0021336
X0017526Y0020193
X0015113Y0019304
Y0018288
X0012954Y0020701
X0012192Y0016256
X0009009Y0018184
X0008009
Y0019184
X0009009
X0004953Y0019812
X001651Y0014563
Y0013123
Y0011684
Y0010245
X0018161
Y0011698
Y0013152
Y0014605
X001651Y0027026
X0015113Y0030226
Y0031877
X001651Y0033655
X0017145Y0037084
Y0038608
X002072Y0033655
X0022733Y0031877
Y0029877
X002032Y0028448
X0026035Y002667
X0030607Y003429
X0030631Y0035687
X0030607Y0037084
X0028539Y0037728
X0010414Y0029718
X0032131Y003429
Y0035687
Y0037084
X0035681Y0037737
X0037719Y0035941
Y0034925
X0037846Y0031369
X0033528Y0033274
X0041656Y0034544
Y0035814
X004064Y0037084
X004318Y0030099
X0046228Y0030861
X0047244Y0029972
X0047498Y0027051
X0047117Y0026035
X0050482Y0029337
X0051943Y0028956
X0052578Y0033401
X0053848
X0055372
X0057658Y003048
X0059309Y0031369
X0060579Y0031534
X0061976Y0032766
X0063246Y0033528
X0064897Y0033909
X0065151Y0034925
X0065041Y0037765
X0063246Y0036449
X0061976
X0061087Y0037592
X005969Y0036322
X0057641Y0037765
X0058293Y0028321
X0049911Y0033274
T02
X0032766Y0001524
Y0004064
Y0006604
Y0009144
X0029972Y0009162
Y0006622
Y0004082
Y0001542
X0004572Y0033147
X0002032
T03
X000897Y0034544
X001397
T05
X0072263Y0019852
Y0024852
X0003175Y0023281
X0002921Y0016303
Y0011303
X0003175Y0028281
T06
X0053953Y0004314
X0068453
Y0035814
X0053953
T07
X00725Y00025
X00025
Y00375
X00725
M30
