G04*
G04 #@! TF.GenerationSoftware,Altium Limited,Altium Designer,24.0.1 (36)*
G04*
G04 Layer_Physical_Order=4*
G04 Layer_Color=16711680*
%FSLAX44Y44*%
%MOMM*%
G71*
G04*
G04 #@! TF.SameCoordinates,72622C8A-B07E-4F55-B3FE-632304D3AF33*
G04*
G04*
G04 #@! TF.FilePolarity,Positive*
G04*
G01*
G75*
%ADD10C,0.2540*%
%ADD14C,0.2032*%
%ADD16C,0.5080*%
%ADD28R,1.0160X0.7620*%
%ADD84C,4.5000*%
%ADD91C,3.5000*%
%ADD94C,0.3810*%
%ADD95O,2.0000X3.0000*%
%ADD96R,1.7000X1.7000*%
%ADD97C,1.7000*%
%ADD98R,1.7000X1.7000*%
%ADD99C,3.2000*%
%ADD100C,1.8000*%
%ADD101C,0.6096*%
%ADD110R,1.6510X0.8000*%
%ADD111R,1.7000X2.8000*%
%ADD112R,4.6000X3.6000*%
%ADD113R,0.8000X1.3210*%
G36*
X613269Y377841D02*
X613498Y377651D01*
X613734Y377484D01*
X613977Y377338D01*
X614226Y377215D01*
X614482Y377115D01*
X614744Y377037D01*
X615014Y376981D01*
X615290Y376947D01*
X615573Y376936D01*
Y374904D01*
X615290Y374893D01*
X615014Y374859D01*
X614744Y374803D01*
X614482Y374725D01*
X614226Y374625D01*
X613977Y374502D01*
X613734Y374356D01*
X613498Y374189D01*
X613269Y373999D01*
X613047Y373786D01*
Y378054D01*
X613269Y377841D01*
D02*
G37*
G36*
X599299Y365141D02*
X599528Y364951D01*
X599764Y364784D01*
X600007Y364638D01*
X600256Y364515D01*
X600512Y364415D01*
X600774Y364337D01*
X601044Y364281D01*
X601320Y364247D01*
X601603Y364236D01*
Y362204D01*
X601320Y362193D01*
X601044Y362159D01*
X600774Y362103D01*
X600512Y362025D01*
X600256Y361925D01*
X600007Y361802D01*
X599764Y361656D01*
X599528Y361489D01*
X599299Y361299D01*
X599077Y361086D01*
Y365354D01*
X599299Y365141D01*
D02*
G37*
G36*
X649111Y353102D02*
X649330Y352930D01*
X649560Y352779D01*
X649801Y352649D01*
X650053Y352539D01*
X650316Y352450D01*
X650590Y352381D01*
X650876Y352333D01*
X651172Y352305D01*
X651479Y352298D01*
X648462Y349281D01*
X648455Y349588D01*
X648427Y349884D01*
X648379Y350170D01*
X648310Y350444D01*
X648221Y350707D01*
X648111Y350959D01*
X647981Y351200D01*
X647830Y351430D01*
X647658Y351649D01*
X647466Y351857D01*
X648903Y353294D01*
X649111Y353102D01*
D02*
G37*
G36*
X646571Y342942D02*
X646790Y342770D01*
X647020Y342619D01*
X647261Y342489D01*
X647513Y342379D01*
X647776Y342290D01*
X648050Y342221D01*
X648336Y342173D01*
X648632Y342145D01*
X648940Y342138D01*
X645922Y339120D01*
X645915Y339428D01*
X645887Y339724D01*
X645839Y340010D01*
X645770Y340284D01*
X645681Y340547D01*
X645571Y340799D01*
X645441Y341040D01*
X645290Y341270D01*
X645118Y341489D01*
X644926Y341697D01*
X646363Y343134D01*
X646571Y342942D01*
D02*
G37*
G36*
X393700Y337820D02*
X392430Y336550D01*
X373380D01*
Y361950D01*
Y363220D01*
X393700D01*
Y337820D01*
D02*
G37*
G36*
X464119Y337640D02*
X463946Y337579D01*
X463794Y337478D01*
X463662Y337335D01*
X463550Y337152D01*
X463459Y336929D01*
X463387Y336665D01*
X463337Y336360D01*
X463306Y336015D01*
X463296Y335629D01*
X461264D01*
X461254Y336015D01*
X461223Y336360D01*
X461173Y336665D01*
X461101Y336929D01*
X461010Y337152D01*
X460898Y337335D01*
X460766Y337478D01*
X460614Y337579D01*
X460441Y337640D01*
X460248Y337660D01*
X464312D01*
X464119Y337640D01*
D02*
G37*
G36*
X436179D02*
X436006Y337579D01*
X435854Y337478D01*
X435722Y337335D01*
X435610Y337152D01*
X435519Y336929D01*
X435447Y336665D01*
X435397Y336360D01*
X435366Y336015D01*
X435356Y335629D01*
X433324D01*
X433314Y336015D01*
X433283Y336360D01*
X433233Y336665D01*
X433161Y336929D01*
X433070Y337152D01*
X432958Y337335D01*
X432826Y337478D01*
X432674Y337579D01*
X432501Y337640D01*
X432308Y337660D01*
X436372D01*
X436179Y337640D01*
D02*
G37*
G36*
X421640Y335280D02*
X398780D01*
X397510Y336550D01*
Y360680D01*
Y361950D01*
X421640D01*
Y335280D01*
D02*
G37*
G36*
X201061Y340094D02*
X201214Y339883D01*
X201468Y339697D01*
X201823Y339536D01*
X202281Y339400D01*
X202839Y339288D01*
X203500Y339202D01*
X205125Y339102D01*
X206091Y339090D01*
Y334010D01*
X205125Y333998D01*
X202839Y333812D01*
X202281Y333700D01*
X201823Y333564D01*
X201468Y333403D01*
X201214Y333217D01*
X201061Y333006D01*
X201010Y332771D01*
Y340330D01*
X201061Y340094D01*
D02*
G37*
G36*
X172369Y332771D02*
X172319Y333006D01*
X172166Y333217D01*
X171912Y333403D01*
X171557Y333564D01*
X171099Y333700D01*
X170541Y333812D01*
X169880Y333898D01*
X168255Y333998D01*
X167290Y334010D01*
Y339090D01*
X168255Y339102D01*
X170541Y339288D01*
X171099Y339400D01*
X171557Y339536D01*
X171912Y339697D01*
X172166Y339883D01*
X172319Y340094D01*
X172369Y340330D01*
Y332771D01*
D02*
G37*
G36*
X337201Y330341D02*
X337011Y330112D01*
X336844Y329876D01*
X336698Y329633D01*
X336575Y329384D01*
X336475Y329128D01*
X336397Y328866D01*
X336341Y328596D01*
X336307Y328320D01*
X336296Y328037D01*
X334264D01*
X334253Y328320D01*
X334219Y328596D01*
X334163Y328866D01*
X334085Y329128D01*
X333985Y329384D01*
X333862Y329633D01*
X333716Y329876D01*
X333549Y330112D01*
X333359Y330341D01*
X333146Y330563D01*
X337414D01*
X337201Y330341D01*
D02*
G37*
G36*
X229883Y326930D02*
X229984Y325701D01*
X230073Y325202D01*
X230188Y324779D01*
X230327Y324434D01*
X230492Y324165D01*
X230683Y323973D01*
X230899Y323857D01*
X231140Y323819D01*
X223519D01*
X223761Y323857D01*
X223977Y323973D01*
X224167Y324165D01*
X224333Y324434D01*
X224472Y324779D01*
X224587Y325202D01*
X224676Y325701D01*
X224739Y326277D01*
X224790Y327660D01*
X229870D01*
X229883Y326930D01*
D02*
G37*
G36*
X154965Y327958D02*
X155042Y327090D01*
X155169Y326323D01*
X155346Y325659D01*
X155575Y325097D01*
X155854Y324637D01*
X156185Y324279D01*
X156566Y324024D01*
X156997Y323870D01*
X157480Y323819D01*
X147320D01*
X147803Y323870D01*
X148234Y324024D01*
X148615Y324279D01*
X148946Y324637D01*
X149225Y325097D01*
X149454Y325659D01*
X149631Y326323D01*
X149758Y327090D01*
X149835Y327958D01*
X149860Y328929D01*
X154940D01*
X154965Y327958D01*
D02*
G37*
G36*
X47559Y322980D02*
X47386Y322919D01*
X47234Y322818D01*
X47102Y322675D01*
X46990Y322492D01*
X46899Y322269D01*
X46827Y322005D01*
X46777Y321700D01*
X46746Y321355D01*
X46736Y320969D01*
X44704D01*
X44694Y321355D01*
X44663Y321700D01*
X44613Y322005D01*
X44541Y322269D01*
X44450Y322492D01*
X44338Y322675D01*
X44206Y322818D01*
X44054Y322919D01*
X43881Y322980D01*
X43688Y323000D01*
X47752D01*
X47559Y322980D01*
D02*
G37*
G36*
X463307Y313030D02*
X463341Y312754D01*
X463397Y312484D01*
X463475Y312222D01*
X463575Y311966D01*
X463698Y311717D01*
X463844Y311474D01*
X464011Y311238D01*
X464201Y311009D01*
X464414Y310787D01*
X460146D01*
X460359Y311009D01*
X460549Y311238D01*
X460716Y311474D01*
X460862Y311717D01*
X460985Y311966D01*
X461085Y312222D01*
X461163Y312484D01*
X461219Y312754D01*
X461253Y313030D01*
X461264Y313312D01*
X463296D01*
X463307Y313030D01*
D02*
G37*
G36*
X381515Y313352D02*
X381543Y313056D01*
X381591Y312770D01*
X381660Y312496D01*
X381749Y312233D01*
X381859Y311981D01*
X381989Y311740D01*
X382140Y311510D01*
X382312Y311291D01*
X382504Y311083D01*
X381067Y309646D01*
X380859Y309838D01*
X380640Y310010D01*
X380410Y310161D01*
X380169Y310291D01*
X379917Y310401D01*
X379654Y310490D01*
X379380Y310559D01*
X379094Y310607D01*
X378798Y310635D01*
X378490Y310642D01*
X381508Y313659D01*
X381515Y313352D01*
D02*
G37*
G36*
X434199Y302911D02*
X434428Y302721D01*
X434664Y302554D01*
X434907Y302408D01*
X435156Y302285D01*
X435412Y302185D01*
X435674Y302107D01*
X435944Y302051D01*
X436220Y302017D01*
X436502Y302006D01*
Y299974D01*
X436220Y299963D01*
X435944Y299929D01*
X435674Y299873D01*
X435412Y299795D01*
X435156Y299695D01*
X434907Y299572D01*
X434664Y299426D01*
X434428Y299259D01*
X434199Y299069D01*
X433977Y298856D01*
Y303124D01*
X434199Y302911D01*
D02*
G37*
G36*
X470263Y297586D02*
X470041Y297799D01*
X469812Y297989D01*
X469576Y298156D01*
X469333Y298302D01*
X469084Y298425D01*
X468828Y298525D01*
X468566Y298603D01*
X468296Y298659D01*
X468020Y298693D01*
X467738Y298704D01*
Y300736D01*
X468020Y300747D01*
X468296Y300781D01*
X468566Y300837D01*
X468828Y300915D01*
X469084Y301015D01*
X469333Y301138D01*
X469576Y301284D01*
X469812Y301451D01*
X470041Y301641D01*
X470263Y301854D01*
Y297586D01*
D02*
G37*
G36*
X207391Y295920D02*
X207218Y295858D01*
X207066Y295755D01*
X206934Y295611D01*
X206822Y295425D01*
X206731Y295198D01*
X206660Y294930D01*
X206609Y294621D01*
X206578Y294270D01*
X206568Y293878D01*
X204536D01*
X204526Y294270D01*
X204496Y294621D01*
X204445Y294930D01*
X204373Y295198D01*
X204282Y295425D01*
X204170Y295611D01*
X204038Y295755D01*
X203886Y295858D01*
X203713Y295920D01*
X203520Y295941D01*
X207584D01*
X207391Y295920D01*
D02*
G37*
G36*
X185000Y295910D02*
X184957Y295890D01*
X184919Y295829D01*
X184886Y295728D01*
X184856Y295585D01*
X184832Y295403D01*
X184796Y294915D01*
X184776Y293878D01*
X182744D01*
X182734Y294269D01*
X182703Y294618D01*
X182653Y294926D01*
X182581Y295194D01*
X182490Y295421D01*
X182378Y295606D01*
X182246Y295751D01*
X182094Y295855D01*
X181921Y295919D01*
X181728Y295941D01*
X185000Y295910D01*
D02*
G37*
G36*
X506795Y291017D02*
X506648Y290826D01*
X506518Y290620D01*
X506406Y290399D01*
X506311Y290164D01*
X506233Y289915D01*
X506173Y289651D01*
X506129Y289372D01*
X506104Y289078D01*
X506095Y288770D01*
X503555D01*
X503546Y289078D01*
X503521Y289372D01*
X503477Y289651D01*
X503417Y289915D01*
X503339Y290164D01*
X503244Y290399D01*
X503132Y290620D01*
X503002Y290826D01*
X502855Y291017D01*
X502691Y291193D01*
X506959D01*
X506795Y291017D01*
D02*
G37*
G36*
X584485Y285832D02*
X580485Y285031D01*
X580614Y285230D01*
X580706Y285432D01*
X580761Y285636D01*
X580778Y285843D01*
X580759Y286052D01*
X580702Y286264D01*
X580609Y286479D01*
X580478Y286696D01*
X580310Y286916D01*
X580105Y287138D01*
X581884Y288233D01*
X584485Y285832D01*
D02*
G37*
G36*
X472803Y268376D02*
X472581Y268589D01*
X472352Y268779D01*
X472116Y268946D01*
X471873Y269092D01*
X471624Y269215D01*
X471368Y269315D01*
X471106Y269393D01*
X470836Y269449D01*
X470560Y269483D01*
X470277Y269494D01*
Y271526D01*
X470560Y271537D01*
X470836Y271571D01*
X471106Y271627D01*
X471368Y271705D01*
X471624Y271805D01*
X471873Y271928D01*
X472116Y272074D01*
X472352Y272241D01*
X472581Y272431D01*
X472803Y272644D01*
Y268376D01*
D02*
G37*
G36*
X167499Y272177D02*
X167728Y271987D01*
X167964Y271820D01*
X168207Y271674D01*
X168456Y271551D01*
X168712Y271451D01*
X168974Y271373D01*
X169244Y271317D01*
X169520Y271283D01*
X169802Y271272D01*
Y269240D01*
X169520Y269229D01*
X169244Y269195D01*
X168974Y269139D01*
X168712Y269061D01*
X168456Y268961D01*
X168207Y268838D01*
X167964Y268692D01*
X167728Y268525D01*
X167499Y268335D01*
X167277Y268122D01*
Y272390D01*
X167499Y272177D01*
D02*
G37*
G36*
X405493Y256946D02*
X405271Y257159D01*
X405042Y257349D01*
X404806Y257516D01*
X404563Y257662D01*
X404314Y257785D01*
X404058Y257885D01*
X403796Y257963D01*
X403526Y258019D01*
X403250Y258053D01*
X402967Y258064D01*
Y260096D01*
X403250Y260107D01*
X403526Y260141D01*
X403796Y260197D01*
X404058Y260275D01*
X404314Y260375D01*
X404563Y260498D01*
X404806Y260644D01*
X405042Y260811D01*
X405271Y261001D01*
X405493Y261214D01*
Y256946D01*
D02*
G37*
G36*
X606153Y253136D02*
X605977Y253300D01*
X605785Y253447D01*
X605580Y253577D01*
X605359Y253689D01*
X605124Y253784D01*
X604875Y253862D01*
X604611Y253922D01*
X604332Y253965D01*
X604038Y253991D01*
X603730Y254000D01*
Y256540D01*
X604038Y256549D01*
X604332Y256574D01*
X604611Y256618D01*
X604875Y256678D01*
X605124Y256756D01*
X605359Y256851D01*
X605580Y256963D01*
X605785Y257093D01*
X605977Y257239D01*
X606153Y257404D01*
Y253136D01*
D02*
G37*
G36*
X519571Y248962D02*
X519790Y248790D01*
X520020Y248639D01*
X520261Y248509D01*
X520513Y248399D01*
X520776Y248310D01*
X521050Y248241D01*
X521336Y248193D01*
X521632Y248165D01*
X521940Y248158D01*
X518922Y245140D01*
X518915Y245448D01*
X518887Y245744D01*
X518839Y246030D01*
X518770Y246304D01*
X518681Y246567D01*
X518571Y246819D01*
X518441Y247060D01*
X518290Y247290D01*
X518118Y247509D01*
X517926Y247717D01*
X519363Y249154D01*
X519571Y248962D01*
D02*
G37*
G36*
X458283Y245809D02*
X458475Y245663D01*
X458680Y245533D01*
X458901Y245421D01*
X459136Y245326D01*
X459385Y245248D01*
X459649Y245188D01*
X459928Y245145D01*
X460222Y245119D01*
X460530Y245110D01*
Y242570D01*
X460222Y242561D01*
X459928Y242535D01*
X459649Y242492D01*
X459385Y242432D01*
X459136Y242354D01*
X458901Y242259D01*
X458680Y242147D01*
X458475Y242017D01*
X458283Y241870D01*
X458107Y241706D01*
Y245974D01*
X458283Y245809D01*
D02*
G37*
G36*
X611521Y231281D02*
X611331Y231052D01*
X611164Y230816D01*
X611018Y230573D01*
X610895Y230324D01*
X610795Y230068D01*
X610717Y229806D01*
X610661Y229536D01*
X610627Y229260D01*
X610616Y228978D01*
X608584D01*
X608573Y229260D01*
X608539Y229536D01*
X608483Y229806D01*
X608405Y230068D01*
X608305Y230324D01*
X608182Y230573D01*
X608036Y230816D01*
X607869Y231052D01*
X607679Y231281D01*
X607466Y231503D01*
X611734D01*
X611521Y231281D01*
D02*
G37*
G36*
X162923Y225450D02*
X162701Y225663D01*
X162472Y225853D01*
X162236Y226020D01*
X161993Y226166D01*
X161744Y226289D01*
X161488Y226389D01*
X161226Y226467D01*
X160956Y226523D01*
X160680Y226557D01*
X160397Y226568D01*
Y228600D01*
X160680Y228611D01*
X160956Y228645D01*
X161226Y228701D01*
X161488Y228779D01*
X161744Y228879D01*
X161993Y229002D01*
X162236Y229148D01*
X162472Y229315D01*
X162701Y229505D01*
X162923Y229718D01*
Y225450D01*
D02*
G37*
G36*
X519571Y218482D02*
X519790Y218310D01*
X520020Y218159D01*
X520261Y218029D01*
X520513Y217919D01*
X520776Y217830D01*
X521050Y217761D01*
X521336Y217713D01*
X521632Y217685D01*
X521940Y217678D01*
X518922Y214660D01*
X518915Y214968D01*
X518887Y215264D01*
X518839Y215550D01*
X518770Y215824D01*
X518681Y216087D01*
X518571Y216339D01*
X518441Y216580D01*
X518290Y216810D01*
X518118Y217029D01*
X517926Y217237D01*
X519363Y218674D01*
X519571Y218482D01*
D02*
G37*
G36*
X612791Y210961D02*
X612601Y210732D01*
X612434Y210496D01*
X612288Y210253D01*
X612165Y210004D01*
X612065Y209748D01*
X611987Y209486D01*
X611931Y209216D01*
X611897Y208940D01*
X611886Y208657D01*
X609854D01*
X609843Y208940D01*
X609809Y209216D01*
X609753Y209486D01*
X609675Y209748D01*
X609575Y210004D01*
X609452Y210253D01*
X609306Y210496D01*
X609139Y210732D01*
X608949Y210961D01*
X608736Y211183D01*
X613004D01*
X612791Y210961D01*
D02*
G37*
G36*
X521940Y202692D02*
X521632Y202685D01*
X521336Y202657D01*
X521050Y202609D01*
X520776Y202540D01*
X520513Y202451D01*
X520261Y202341D01*
X520020Y202211D01*
X519790Y202060D01*
X519571Y201888D01*
X519363Y201696D01*
X517926Y203133D01*
X518118Y203341D01*
X518290Y203560D01*
X518441Y203790D01*
X518571Y204031D01*
X518681Y204283D01*
X518770Y204546D01*
X518839Y204820D01*
X518887Y205106D01*
X518915Y205402D01*
X518922Y205709D01*
X521940Y202692D01*
D02*
G37*
G36*
X173083Y199796D02*
X172907Y199960D01*
X172715Y200107D01*
X172510Y200237D01*
X172289Y200349D01*
X172054Y200444D01*
X171805Y200522D01*
X171541Y200582D01*
X171262Y200625D01*
X170968Y200651D01*
X170660Y200660D01*
Y203200D01*
X170968Y203209D01*
X171262Y203235D01*
X171541Y203278D01*
X171805Y203338D01*
X172054Y203416D01*
X172289Y203511D01*
X172510Y203623D01*
X172715Y203753D01*
X172907Y203899D01*
X173083Y204064D01*
Y199796D01*
D02*
G37*
G36*
X461381Y196001D02*
X461191Y195772D01*
X461024Y195536D01*
X460878Y195293D01*
X460755Y195044D01*
X460655Y194788D01*
X460577Y194526D01*
X460521Y194256D01*
X460487Y193980D01*
X460476Y193697D01*
X458444D01*
X458433Y193980D01*
X458399Y194256D01*
X458343Y194526D01*
X458265Y194788D01*
X458165Y195044D01*
X458042Y195293D01*
X457896Y195536D01*
X457729Y195772D01*
X457539Y196001D01*
X457326Y196223D01*
X461594D01*
X461381Y196001D01*
D02*
G37*
G36*
X51500Y195767D02*
X51353Y195576D01*
X51223Y195370D01*
X51111Y195149D01*
X51016Y194914D01*
X50938Y194665D01*
X50878Y194401D01*
X50834Y194122D01*
X50809Y193828D01*
X50800Y193520D01*
X48260D01*
X48251Y193828D01*
X48225Y194122D01*
X48182Y194401D01*
X48122Y194665D01*
X48044Y194914D01*
X47949Y195149D01*
X47837Y195370D01*
X47707Y195576D01*
X47561Y195767D01*
X47396Y195943D01*
X51664D01*
X51500Y195767D01*
D02*
G37*
G36*
X372110Y173990D02*
Y81280D01*
X370890Y80060D01*
X344120D01*
X339090Y85090D01*
Y102870D01*
X331470Y110490D01*
X218440D01*
Y181610D01*
X242706D01*
Y167356D01*
X262754D01*
Y181610D01*
X364490D01*
X372110Y173990D01*
D02*
G37*
G36*
X111857Y249017D02*
X111760Y248920D01*
Y166370D01*
X60960D01*
X58420Y168910D01*
Y201930D01*
X52070Y208280D01*
X5080D01*
Y250190D01*
X111371D01*
X111857Y249017D01*
D02*
G37*
G36*
X159600Y168911D02*
X159605Y168860D01*
X159611Y168707D01*
X159630Y163831D01*
X154550D01*
X154525Y164800D01*
X154448Y165667D01*
X154321Y166432D01*
X154144Y167096D01*
X153915Y167658D01*
X153636Y168118D01*
X153305Y168477D01*
X152924Y168733D01*
X152493Y168888D01*
X152010Y168941D01*
X159600Y168911D01*
D02*
G37*
G36*
X581942Y160508D02*
X581765Y160672D01*
X581574Y160819D01*
X581368Y160948D01*
X581148Y161061D01*
X580913Y161156D01*
X580663Y161233D01*
X580399Y161294D01*
X580120Y161337D01*
X579827Y161363D01*
X579519Y161372D01*
Y163912D01*
X579827Y163920D01*
X580120Y163946D01*
X580399Y163989D01*
X580663Y164050D01*
X580913Y164128D01*
X581148Y164223D01*
X581368Y164335D01*
X581574Y164464D01*
X581765Y164611D01*
X581942Y164775D01*
Y160508D01*
D02*
G37*
G36*
X62070Y156661D02*
X62101Y152881D01*
X62073Y153122D01*
X61995Y153338D01*
X61865Y153529D01*
X61685Y153694D01*
X61453Y153834D01*
X61171Y153948D01*
X60837Y154037D01*
X60453Y154100D01*
X60017Y154138D01*
X59531Y154151D01*
Y156691D01*
X62070Y156661D01*
D02*
G37*
G36*
X204871Y159754D02*
X205024Y159543D01*
X205278Y159357D01*
X205633Y159196D01*
X206091Y159060D01*
X206649Y158948D01*
X207310Y158862D01*
X208935Y158762D01*
X209900Y158750D01*
Y153670D01*
X208935Y153658D01*
X206649Y153472D01*
X206091Y153360D01*
X205633Y153224D01*
X205278Y153063D01*
X205024Y152877D01*
X204871Y152666D01*
X204820Y152430D01*
Y159990D01*
X204871Y159754D01*
D02*
G37*
G36*
X176180Y152430D02*
X176129Y152666D01*
X175976Y152877D01*
X175722Y153063D01*
X175367Y153224D01*
X174909Y153360D01*
X174351Y153472D01*
X173690Y153558D01*
X172065Y153658D01*
X171099Y153670D01*
Y158750D01*
X172065Y158762D01*
X174351Y158948D01*
X174909Y159060D01*
X175367Y159196D01*
X175722Y159357D01*
X175976Y159543D01*
X176129Y159754D01*
X176180Y159990D01*
Y152430D01*
D02*
G37*
G36*
X430343Y139129D02*
X430535Y138983D01*
X430740Y138853D01*
X430961Y138741D01*
X431196Y138646D01*
X431445Y138568D01*
X431709Y138508D01*
X431988Y138464D01*
X432282Y138439D01*
X432590Y138430D01*
Y135890D01*
X432282Y135881D01*
X431988Y135856D01*
X431709Y135812D01*
X431445Y135752D01*
X431196Y135674D01*
X430961Y135579D01*
X430740Y135467D01*
X430535Y135337D01*
X430343Y135190D01*
X430167Y135026D01*
Y139294D01*
X430343Y139129D01*
D02*
G37*
G36*
X432154Y129912D02*
X430988Y128819D01*
X429504Y130916D01*
X429519Y130920D01*
X429550Y130940D01*
X429597Y130977D01*
X429737Y131103D01*
X430358Y131708D01*
X432154Y129912D01*
D02*
G37*
G36*
X439233Y126430D02*
X439425Y126283D01*
X439630Y126153D01*
X439851Y126041D01*
X440086Y125946D01*
X440335Y125868D01*
X440599Y125808D01*
X440878Y125765D01*
X441172Y125739D01*
X441480Y125730D01*
Y123190D01*
X441172Y123181D01*
X440878Y123155D01*
X440599Y123112D01*
X440335Y123052D01*
X440086Y122974D01*
X439851Y122879D01*
X439630Y122767D01*
X439425Y122637D01*
X439233Y122491D01*
X439057Y122326D01*
Y126594D01*
X439233Y126430D01*
D02*
G37*
G36*
X426533Y121349D02*
X426725Y121203D01*
X426930Y121073D01*
X427151Y120961D01*
X427386Y120866D01*
X427635Y120788D01*
X427899Y120728D01*
X428178Y120684D01*
X428472Y120659D01*
X428780Y120650D01*
Y118110D01*
X428472Y118101D01*
X428178Y118076D01*
X427899Y118032D01*
X427635Y117972D01*
X427386Y117894D01*
X427151Y117799D01*
X426930Y117687D01*
X426725Y117557D01*
X426533Y117410D01*
X426357Y117246D01*
Y121514D01*
X426533Y121349D01*
D02*
G37*
G36*
X415618Y120141D02*
X415705Y120038D01*
X415816Y119947D01*
X415950Y119869D01*
X416108Y119803D01*
X416290Y119748D01*
X416496Y119706D01*
X416725Y119676D01*
X416978Y119658D01*
X417255Y119652D01*
X416921Y117112D01*
X416581Y117108D01*
X415494Y117025D01*
X415291Y116988D01*
X415116Y116943D01*
X414969Y116891D01*
X414849Y116833D01*
X414756Y116767D01*
X415555Y120255D01*
X415618Y120141D01*
D02*
G37*
G36*
X397267Y94590D02*
X397301Y94314D01*
X397357Y94044D01*
X397435Y93782D01*
X397535Y93526D01*
X397658Y93277D01*
X397804Y93034D01*
X397971Y92798D01*
X398161Y92569D01*
X398374Y92347D01*
X394106D01*
X394319Y92569D01*
X394509Y92798D01*
X394676Y93034D01*
X394822Y93277D01*
X394945Y93526D01*
X395045Y93782D01*
X395123Y94044D01*
X395179Y94314D01*
X395213Y94590D01*
X395224Y94873D01*
X397256D01*
X397267Y94590D01*
D02*
G37*
G36*
X308225Y90204D02*
X308473Y86816D01*
X308633Y85888D01*
X308832Y85062D01*
X309069Y84336D01*
X309345Y83711D01*
X309659Y83188D01*
X310012Y82765D01*
X308575Y81328D01*
X308152Y81681D01*
X307629Y81995D01*
X307004Y82271D01*
X306278Y82508D01*
X305452Y82707D01*
X304524Y82867D01*
X303496Y82988D01*
X301136Y83115D01*
X299805Y83120D01*
X308220Y91535D01*
X308225Y90204D01*
D02*
G37*
G36*
X429494Y80077D02*
X429302Y79869D01*
X429130Y79650D01*
X428979Y79420D01*
X428849Y79179D01*
X428739Y78927D01*
X428650Y78664D01*
X428581Y78390D01*
X428533Y78104D01*
X428505Y77808D01*
X428498Y77501D01*
X425480Y80518D01*
X425788Y80525D01*
X426084Y80553D01*
X426370Y80601D01*
X426644Y80670D01*
X426907Y80759D01*
X427159Y80869D01*
X427400Y80999D01*
X427630Y81150D01*
X427849Y81322D01*
X428057Y81514D01*
X429494Y80077D01*
D02*
G37*
G36*
X404223Y75336D02*
X404001Y75549D01*
X403772Y75739D01*
X403536Y75906D01*
X403293Y76052D01*
X403044Y76175D01*
X402788Y76275D01*
X402526Y76353D01*
X402256Y76409D01*
X401980Y76443D01*
X401698Y76454D01*
Y78486D01*
X401980Y78497D01*
X402256Y78531D01*
X402526Y78587D01*
X402788Y78665D01*
X403044Y78765D01*
X403293Y78888D01*
X403536Y79034D01*
X403772Y79201D01*
X404001Y79391D01*
X404223Y79604D01*
Y75336D01*
D02*
G37*
G36*
X128558Y55911D02*
X128273Y55612D01*
X128033Y55329D01*
X127837Y55062D01*
X127687Y54812D01*
X127582Y54579D01*
X127521Y54362D01*
X127506Y54161D01*
X127536Y53978D01*
X127611Y53810D01*
X127731Y53660D01*
X124870Y56521D01*
X125021Y56401D01*
X125188Y56326D01*
X125372Y56296D01*
X125572Y56311D01*
X125789Y56371D01*
X126022Y56477D01*
X126272Y56627D01*
X126539Y56822D01*
X126822Y57063D01*
X127121Y57348D01*
X128558Y55911D01*
D02*
G37*
G36*
X374290Y46422D02*
X374323Y46146D01*
X374379Y45877D01*
X374457Y45614D01*
X374558Y45358D01*
X374681Y45109D01*
X374826Y44866D01*
X374994Y44630D01*
X375184Y44401D01*
X375396Y44179D01*
X371129D01*
X371341Y44401D01*
X371531Y44630D01*
X371699Y44866D01*
X371844Y45109D01*
X371967Y45358D01*
X372068Y45614D01*
X372146Y45877D01*
X372202Y46146D01*
X372235Y46422D01*
X372246Y46705D01*
X374278D01*
X374290Y46422D01*
D02*
G37*
G36*
X130810Y152400D02*
Y77470D01*
X115570D01*
X96520Y58420D01*
Y8890D01*
X92710Y5080D01*
X54610D01*
X50800Y8890D01*
Y44450D01*
X44450Y50800D01*
X5080D01*
Y130810D01*
X73660D01*
Y157480D01*
X125730D01*
X130810Y152400D01*
D02*
G37*
%LPC*%
G36*
X259989Y150622D02*
X258171D01*
X256490Y149926D01*
X255204Y148640D01*
X254508Y146959D01*
Y145141D01*
X255204Y143460D01*
X256490Y142174D01*
X258171Y141478D01*
X259989D01*
X261670Y142174D01*
X262107Y142612D01*
X262396Y142723D01*
X262577Y142896D01*
X262714Y143010D01*
X262847Y143104D01*
X262977Y143182D01*
X263104Y143245D01*
X263230Y143294D01*
X263358Y143332D01*
X263491Y143360D01*
X263632Y143377D01*
X263848Y143386D01*
X264009Y143460D01*
X302457D01*
X304239Y141679D01*
X305079Y141117D01*
X306070Y140920D01*
X345637D01*
X361900Y124657D01*
Y103989D01*
X361826Y103828D01*
X361817Y103612D01*
X361800Y103471D01*
X361772Y103338D01*
X361734Y103210D01*
X361684Y103083D01*
X361622Y102957D01*
X361544Y102827D01*
X361450Y102694D01*
X361336Y102557D01*
X361163Y102376D01*
X361051Y102087D01*
X360614Y101650D01*
X359918Y99969D01*
Y98151D01*
X360614Y96470D01*
X361900Y95184D01*
X363581Y94488D01*
X365399D01*
X367080Y95184D01*
X368366Y96470D01*
X369062Y98151D01*
Y99969D01*
X368366Y101650D01*
X367929Y102087D01*
X367817Y102376D01*
X367644Y102556D01*
X367530Y102694D01*
X367436Y102827D01*
X367358Y102957D01*
X367295Y103084D01*
X367246Y103210D01*
X367208Y103338D01*
X367180Y103471D01*
X367163Y103612D01*
X367154Y103828D01*
X367080Y103989D01*
Y125730D01*
X366883Y126721D01*
X366321Y127561D01*
X348541Y145341D01*
X347701Y145903D01*
X346710Y146100D01*
X307143D01*
X305361Y147881D01*
X304521Y148443D01*
X303530Y148640D01*
X264009D01*
X263848Y148714D01*
X263632Y148723D01*
X263491Y148740D01*
X263358Y148768D01*
X263230Y148806D01*
X263103Y148855D01*
X262977Y148918D01*
X262847Y148996D01*
X262714Y149090D01*
X262577Y149204D01*
X262396Y149377D01*
X262107Y149488D01*
X261670Y149926D01*
X259989Y150622D01*
D02*
G37*
G36*
X348889Y103632D02*
X347071D01*
X345390Y102936D01*
X344104Y101650D01*
X343408Y99969D01*
Y98151D01*
X344104Y96470D01*
X345390Y95184D01*
X347071Y94488D01*
X348889D01*
X350570Y95184D01*
X351856Y96470D01*
X352552Y98151D01*
Y99969D01*
X351856Y101650D01*
X350570Y102936D01*
X348889Y103632D01*
D02*
G37*
G36*
X365399Y90932D02*
X363581D01*
X361900Y90236D01*
X360614Y88950D01*
X359918Y87269D01*
Y85451D01*
X360614Y83770D01*
X361900Y82484D01*
X363581Y81788D01*
X365399D01*
X367080Y82484D01*
X368366Y83770D01*
X369062Y85451D01*
Y87269D01*
X368366Y88950D01*
X367080Y90236D01*
X365399Y90932D01*
D02*
G37*
G36*
X348889D02*
X347071D01*
X345390Y90236D01*
X344104Y88950D01*
X343408Y87269D01*
Y85451D01*
X344104Y83770D01*
X345390Y82484D01*
X347071Y81788D01*
X348889D01*
X350570Y82484D01*
X351856Y83770D01*
X352552Y85451D01*
Y87269D01*
X351856Y88950D01*
X350570Y90236D01*
X348889Y90932D01*
D02*
G37*
%LPD*%
G36*
X261479Y147971D02*
X261708Y147781D01*
X261944Y147614D01*
X262187Y147468D01*
X262436Y147345D01*
X262692Y147245D01*
X262954Y147167D01*
X263224Y147111D01*
X263500Y147077D01*
X263783Y147066D01*
Y145034D01*
X263500Y145023D01*
X263224Y144989D01*
X262954Y144933D01*
X262692Y144855D01*
X262436Y144755D01*
X262187Y144632D01*
X261944Y144486D01*
X261708Y144319D01*
X261479Y144129D01*
X261257Y143916D01*
Y148184D01*
X261479Y147971D01*
D02*
G37*
G36*
X365517Y103480D02*
X365551Y103204D01*
X365607Y102934D01*
X365685Y102672D01*
X365785Y102416D01*
X365908Y102167D01*
X366054Y101924D01*
X366221Y101688D01*
X366411Y101459D01*
X366624Y101237D01*
X362356D01*
X362569Y101459D01*
X362759Y101688D01*
X362926Y101924D01*
X363072Y102167D01*
X363195Y102416D01*
X363295Y102672D01*
X363373Y102934D01*
X363429Y103204D01*
X363463Y103480D01*
X363474Y103763D01*
X365506D01*
X365517Y103480D01*
D02*
G37*
D10*
X421640Y83820D02*
Y113996D01*
X417255Y118382D02*
X421640Y113996D01*
X335280Y71120D02*
X408940D01*
X413430Y118382D02*
X417255D01*
X412750Y119062D02*
X413430Y118382D01*
X408940Y71120D02*
X421640Y83820D01*
X330200Y66040D02*
X335280Y71120D01*
X85090Y19050D02*
X180340D01*
X81280Y22860D02*
X85090Y19050D01*
X180340D02*
X189230Y27940D01*
Y161290D01*
X166370Y163830D02*
X186690D01*
X189230Y161290D01*
X163830Y200442D02*
X165318Y201930D01*
X163830Y166370D02*
Y200442D01*
X165318Y201930D02*
X175260D01*
X163830Y166370D02*
X166370Y163830D01*
X49530Y161290D02*
Y198120D01*
X63310Y155421D02*
X66040Y152691D01*
X55399Y155421D02*
X63310D01*
X66040Y150086D02*
Y152691D01*
X49530Y161290D02*
X55399Y155421D01*
X504190Y194310D02*
X523240D01*
X440690Y130810D02*
X504190Y194310D01*
X523240D02*
X542290Y213360D01*
X444500Y124460D02*
X508000Y187960D01*
X529590D02*
X596900Y255270D01*
X508000Y187960D02*
X529590D01*
X515620Y267970D02*
X533400D01*
X542290Y213360D02*
Y259080D01*
X533400Y267970D02*
X542290Y259080D01*
X596900Y255270D02*
X608330D01*
X504825Y278765D02*
X515620Y267970D01*
X434340Y117284D02*
X445299D01*
X490656Y162642D02*
X584118D01*
X445299Y117284D02*
X490656Y162642D01*
X455930Y243840D02*
X466090D01*
X474980Y175260D02*
Y234950D01*
X466090Y243840D02*
X474980Y234950D01*
X436880Y137160D02*
X474980Y175260D01*
X427990Y137160D02*
X436880D01*
X424180Y119380D02*
X432244D01*
X434340Y117284D01*
X436880Y124460D02*
X444500D01*
X431256Y130810D02*
X440690D01*
X427990Y128270D02*
X428716D01*
X431256Y130810D01*
X504825Y278765D02*
Y293370D01*
D14*
X373262Y57032D02*
X382270Y66040D01*
X313870Y77470D02*
X406400D01*
X382270Y66040D02*
X447040D01*
X470535Y89535D01*
X299720Y91620D02*
X313870Y77470D01*
X450850Y300990D02*
X458470Y293370D01*
X431800Y300990D02*
X450850D01*
X138430Y67220D02*
Y220980D01*
X145034Y227584D02*
X165100D01*
X138430Y220980D02*
X145034Y227584D01*
X425450Y77470D02*
X448310Y100330D01*
X378460Y313690D02*
X399415Y292735D01*
X412115D01*
X419100Y285750D01*
X481330D01*
X521970Y245110D01*
X408940Y288290D02*
X416560Y280670D01*
X364490Y288290D02*
X408940D01*
X335280Y317500D02*
X364490Y288290D01*
X416560Y280670D02*
X476250D01*
X506730Y250190D01*
X412750Y275590D02*
X464820D01*
X469900Y270510D01*
X406400Y281940D02*
X412750Y275590D01*
X217170Y281940D02*
X406400D01*
X410210Y270510D02*
X458470D01*
X199390Y274320D02*
X406400D01*
X410210Y270510D01*
X458470D02*
X467950Y261030D01*
X470490D02*
X471170Y260350D01*
X467950Y261030D02*
X470490D01*
X469900Y270510D02*
X474980D01*
X459740Y299720D02*
X472440D01*
X458470Y293370D02*
X483630D01*
X492520Y302260D02*
X566420D01*
X582930Y285750D01*
X483630Y293370D02*
X492520Y302260D01*
X506730Y229870D02*
Y250190D01*
X459740Y341630D02*
X462280Y339090D01*
Y308610D02*
Y339090D01*
X275590Y259080D02*
X407670D01*
X267970Y251460D02*
X275590Y259080D01*
X195580Y251460D02*
X267970D01*
X176784Y270256D02*
X195580Y251460D01*
X165100Y270256D02*
X176784D01*
X434340Y325120D02*
X459740Y299720D01*
X434340Y325120D02*
Y341630D01*
X45720Y317500D02*
Y331470D01*
Y317500D02*
X82550Y280670D01*
X176530D01*
X199390Y257810D01*
X266700D01*
X274320Y265430D01*
X455930D01*
X483870Y237490D01*
Y208280D02*
Y237490D01*
Y208280D02*
X491490Y200660D01*
X516890D02*
X521970Y205740D01*
X491490Y200660D02*
X516890D01*
X205552Y293558D02*
X217170Y281940D01*
X335280Y317500D02*
Y332740D01*
X506730Y229870D02*
X521970Y214630D01*
X582930Y283210D02*
Y285750D01*
X119390Y48180D02*
X138430Y67220D01*
X119390Y43180D02*
Y48180D01*
X201930Y309880D02*
X205552Y306258D01*
Y293558D02*
Y306258D01*
X183760Y289950D02*
X199390Y274320D01*
X396240Y90170D02*
Y121920D01*
X420370Y146050D01*
X435610D01*
X459460Y169900D02*
Y198400D01*
X435610Y146050D02*
X459460Y169900D01*
X488950Y142240D02*
X582930D01*
X466090Y119380D02*
X488950Y142240D01*
X452783Y119380D02*
X466090D01*
X448310Y114907D02*
X452783Y119380D01*
X448310Y100330D02*
Y114907D01*
X473710Y109063D02*
Y116891D01*
X493979Y137160D01*
X588010D01*
X604520Y153670D01*
X470535Y105888D02*
X473710Y109063D01*
X470535Y89535D02*
Y105888D01*
X596900Y156210D02*
Y189230D01*
X582930Y142240D02*
X596900Y156210D01*
X603250Y195580D02*
Y218440D01*
X596900Y189230D02*
X603250Y195580D01*
Y218440D02*
X609600Y224790D01*
X604520Y153670D02*
Y190500D01*
X610870Y196850D01*
X609600Y224790D02*
Y233680D01*
X183760Y289950D02*
Y302650D01*
X176530Y309880D02*
X183760Y302650D01*
X645160Y355600D02*
X651510Y349250D01*
X645160Y355600D02*
Y367030D01*
X610870Y375920D02*
X636270D01*
X645160Y367030D01*
X605790Y363220D02*
X618736Y350274D01*
X637786D02*
X648970Y339090D01*
X618736Y350274D02*
X637786D01*
X596900Y363220D02*
X605790D01*
X610870Y196850D02*
Y213360D01*
X373262Y42002D02*
Y57032D01*
X364490Y99060D02*
Y125730D01*
X306070Y143510D02*
X346710D01*
X364490Y125730D01*
X303530Y146050D02*
X306070Y143510D01*
X259080Y146050D02*
X303530D01*
D16*
X227330Y309880D02*
Y327660D01*
X195961Y336550D02*
X218440D01*
X227330Y327660D01*
X151130Y309880D02*
X152400Y311150D01*
Y331470D01*
X157480Y336550D01*
X177419D01*
X221370Y160410D02*
Y176920D01*
X217170Y156210D02*
X221370Y160410D01*
Y176920D02*
X227330Y182880D01*
X199771Y156210D02*
X217170D01*
X162606D02*
X181229D01*
X157090Y161726D02*
Y176920D01*
Y161726D02*
X162606Y156210D01*
X151130Y182880D02*
X157090Y176920D01*
D28*
X406781Y356870D02*
D03*
X388239D02*
D03*
X181229Y156210D02*
D03*
X199771D02*
D03*
X195961Y336550D02*
D03*
X177419D02*
D03*
D84*
X25000Y375000D02*
D03*
Y25000D02*
D03*
X725000Y375000D02*
D03*
Y25000D02*
D03*
D91*
X539530Y43140D02*
D03*
Y358140D02*
D03*
X684530Y43140D02*
D03*
Y358140D02*
D03*
D94*
X298385Y42155D02*
X299720Y40820D01*
D95*
X72390Y43180D02*
D03*
X119390D02*
D03*
X166390D02*
D03*
D96*
X327660Y91440D02*
D03*
X299720Y15420D02*
D03*
D97*
X327660Y66040D02*
D03*
Y40640D02*
D03*
Y15240D02*
D03*
X299720Y40820D02*
D03*
Y66220D02*
D03*
Y91620D02*
D03*
X20320Y331470D02*
D03*
D98*
X45720D02*
D03*
D99*
X31750Y232810D02*
D03*
Y282810D02*
D03*
X722630Y198520D02*
D03*
Y248520D02*
D03*
X29210Y113030D02*
D03*
Y163030D02*
D03*
D100*
X139700Y345440D02*
D03*
X89700D02*
D03*
D101*
X406400Y77470D02*
D03*
X407670Y176530D02*
D03*
Y190500D02*
D03*
Y204470D02*
D03*
X388620Y40640D02*
D03*
Y27940D02*
D03*
Y53340D02*
D03*
X382270Y120650D02*
D03*
X80089Y181841D02*
D03*
X90089D02*
D03*
X80089Y191841D02*
D03*
X90089D02*
D03*
X227330Y298773D02*
D03*
X431800Y300990D02*
D03*
X175260Y201930D02*
D03*
X151130Y193040D02*
D03*
X121920Y162560D02*
D03*
X49530Y198120D02*
D03*
X378460Y173990D02*
D03*
X181610Y146050D02*
D03*
X165100Y145627D02*
D03*
X181610Y102447D02*
D03*
X165100D02*
D03*
X181610Y131516D02*
D03*
X165100Y131233D02*
D03*
X181610Y116981D02*
D03*
X165100Y116840D02*
D03*
X365760Y173990D02*
D03*
X351790D02*
D03*
X337820D02*
D03*
X323850D02*
D03*
X309880D02*
D03*
X295910D02*
D03*
X281940D02*
D03*
X267970D02*
D03*
X364490Y86360D02*
D03*
X425450Y77470D02*
D03*
X412750Y119062D02*
D03*
X378460Y313690D02*
D03*
X472440Y299720D02*
D03*
X474980Y270510D02*
D03*
X471170Y260350D02*
D03*
X521970Y245110D02*
D03*
X407670Y259080D02*
D03*
X462280Y308610D02*
D03*
X521970Y205740D02*
D03*
X335280Y332740D02*
D03*
X521970Y214630D02*
D03*
X582930Y283210D02*
D03*
X129540Y207010D02*
D03*
X104140Y297180D02*
D03*
X150622Y250698D02*
D03*
X203200Y284480D02*
D03*
X165100Y270256D02*
D03*
Y227584D02*
D03*
Y241808D02*
D03*
Y213360D02*
D03*
X208280Y223520D02*
D03*
X260350Y266700D02*
D03*
X396240Y90170D02*
D03*
X609600Y233680D02*
D03*
X607060Y245110D02*
D03*
X427990Y137160D02*
D03*
X459460Y198400D02*
D03*
X648970Y339090D02*
D03*
X651510Y349250D02*
D03*
X610870Y375920D02*
D03*
X596900Y363220D02*
D03*
X610870Y213360D02*
D03*
X227330Y318770D02*
D03*
X151130Y302260D02*
D03*
Y318770D02*
D03*
X207201Y336550D02*
D03*
X165100D02*
D03*
X171450Y386080D02*
D03*
Y370840D02*
D03*
X576410Y377650D02*
D03*
X650410D02*
D03*
X728980Y60360D02*
D03*
Y152724D02*
D03*
X373262Y42002D02*
D03*
X403860Y27940D02*
D03*
X403264Y42002D02*
D03*
X402590Y57150D02*
D03*
X321310Y342900D02*
D03*
Y356870D02*
D03*
Y370840D02*
D03*
X306070Y342900D02*
D03*
X306309Y356870D02*
D03*
X306070Y370840D02*
D03*
X285392Y377282D02*
D03*
X356810Y377370D02*
D03*
X406400Y370840D02*
D03*
X499110Y332740D02*
D03*
X227330Y194310D02*
D03*
Y182880D02*
D03*
X151130D02*
D03*
X416560Y345440D02*
D03*
Y358140D02*
D03*
X377190Y349250D02*
D03*
Y359410D02*
D03*
X425450Y176530D02*
D03*
Y193040D02*
D03*
X622300Y95250D02*
D03*
X607060D02*
D03*
X493611Y106061D02*
D03*
X478610D02*
D03*
Y42561D02*
D03*
X493611D02*
D03*
X494030Y71120D02*
D03*
Y82550D02*
D03*
X621881Y41291D02*
D03*
X606880D02*
D03*
X622300Y67310D02*
D03*
Y80010D02*
D03*
X607060Y66040D02*
D03*
Y80010D02*
D03*
X478790Y69850D02*
D03*
Y82550D02*
D03*
X443110Y85561D02*
D03*
X514528Y85649D02*
D03*
X571380Y84291D02*
D03*
X642798Y84379D02*
D03*
Y20879D02*
D03*
X571380Y20791D02*
D03*
X514528Y22149D02*
D03*
X443110Y22061D02*
D03*
X424180Y21590D02*
D03*
X352762Y21502D02*
D03*
X692785Y112792D02*
D03*
X647700Y233680D02*
D03*
Y255270D02*
D03*
X424180Y119380D02*
D03*
X584118Y162642D02*
D03*
X436880Y124460D02*
D03*
X427990Y128270D02*
D03*
X608330Y255270D02*
D03*
X504825Y293370D02*
D03*
X455930Y243840D02*
D03*
X621411Y147320D02*
D03*
X621030Y160020D02*
D03*
X576580Y304800D02*
D03*
X553720Y334010D02*
D03*
X538480D02*
D03*
X525780D02*
D03*
X619760Y327660D02*
D03*
X632460Y335280D02*
D03*
Y364490D02*
D03*
X619760D02*
D03*
X605790Y315341D02*
D03*
X593090Y313690D02*
D03*
X519430Y289560D02*
D03*
X434340Y156210D02*
D03*
X458470Y252730D02*
D03*
X425958Y251968D02*
D03*
X347980Y86360D02*
D03*
X381000D02*
D03*
Y99060D02*
D03*
X364490D02*
D03*
X347980D02*
D03*
X259080Y146050D02*
D03*
D110*
X617220Y110490D02*
D03*
X591820D02*
D03*
X459740D02*
D03*
X434340D02*
D03*
X408940D02*
D03*
X383540D02*
D03*
Y341630D02*
D03*
X408940D02*
D03*
X434340D02*
D03*
X459740D02*
D03*
X591820D02*
D03*
X617220D02*
D03*
D111*
X151130Y182880D02*
D03*
X125730D02*
D03*
X176530D02*
D03*
X201930D02*
D03*
X227330D02*
D03*
X252730D02*
D03*
Y309880D02*
D03*
X227330D02*
D03*
X201930D02*
D03*
X176530D02*
D03*
X151130D02*
D03*
X125730D02*
D03*
D112*
X85090Y186840D02*
D03*
D113*
X104140Y210594D02*
D03*
X91440D02*
D03*
X78740D02*
D03*
X66040D02*
D03*
Y150086D02*
D03*
X78740D02*
D03*
X91440D02*
D03*
X104140D02*
D03*
M02*
